<svg width="378" height="91" viewBox="0 0 378 91" fill="none" xmlns="http://www.w3.org/2000/svg">
<path d="M12.21 21.6L12.375 21.435H18.04C21.9267 21.435 23.9433 21.545 24.09 21.765C24.1267 21.8017 24.5667 26.715 25.41 36.505C26.2167 46.3317 26.62 51.2083 26.62 51.135L35.035 36.725C40.6817 27.045 43.5417 22.15 43.615 22.04C43.7617 21.82 43.9267 21.6733 44.11 21.6L44.385 21.435H49.94H55.44L55.66 21.6C55.77 21.7467 55.825 21.875 55.825 21.985L55.33 24.185C54.8533 24.405 54.1567 24.515 53.24 24.515C51.6633 24.5517 50.71 24.625 50.38 24.735L50.105 24.9L50.05 24.955C49.94 25.065 48.62 30.1983 46.09 40.355C43.56 50.5483 42.3133 55.645 42.35 55.645C42.5333 55.8283 43.6333 55.92 45.65 55.92C46.53 55.92 47.025 56.0483 47.135 56.305C47.2083 56.415 47.1533 56.8367 46.97 57.57C46.8233 58.2667 46.6767 58.6883 46.53 58.835L46.365 59H45.54C41.8367 58.8167 37.6383 58.7983 32.945 58.945C31.845 58.9817 31.2217 58.8717 31.075 58.615C31.0017 58.505 31.0567 58.0833 31.24 57.35C31.4233 56.6533 31.5517 56.2317 31.625 56.085L31.845 55.92H33.55C35.2733 55.8833 36.245 55.81 36.465 55.7C36.6483 55.59 36.795 55.3517 36.905 54.985C37.1617 54.2883 38.39 49.5217 40.59 40.685C43.01 30.8583 44.22 25.9817 44.22 26.055C44.1833 26.055 41.03 31.445 34.76 42.225C28.4167 53.0783 25.2267 58.5233 25.19 58.56L24.805 58.89C24.6583 58.9633 24.2367 59 23.54 59C22.66 59 22.1833 58.89 22.11 58.67C22.0367 58.4867 21.56 53.0967 20.68 42.5L19.36 26.44L15.895 40.3C13.585 49.43 12.43 54.1233 12.43 54.38C12.43 54.6 12.4483 54.7283 12.485 54.765C12.7783 55.535 13.9517 55.92 16.005 55.92C16.5183 55.92 16.8117 56.0483 16.885 56.305C16.9583 56.415 16.9033 56.8367 16.72 57.57C16.5733 58.2667 16.4267 58.6883 16.28 58.835L16.115 59H15.4C12.0633 58.8167 8.45167 58.7983 4.565 58.945C3.64833 58.9817 3.11667 58.8717 2.97 58.615C2.89667 58.505 2.95167 58.0833 3.135 57.35C3.31833 56.6167 3.465 56.195 3.575 56.085C3.685 55.975 3.92333 55.92 4.29 55.92C6.89333 55.92 8.48833 55.315 9.075 54.105L16.39 24.9C16.39 24.79 16.3533 24.735 16.28 24.735C16.06 24.6617 15.1983 24.5883 13.695 24.515C12.4117 24.515 11.6967 24.3867 11.55 24.13C11.5133 24.02 11.5683 23.5983 11.715 22.865C11.8983 22.1683 12.0633 21.7467 12.21 21.6ZM68.6104 34.745L69.7104 34.69H69.7654C70.572 34.7267 71.287 34.91 71.9104 35.24C72.5337 35.5333 73.0837 35.9367 73.5604 36.45L74.0004 36.89L74.3304 36.615C75.2104 35.7717 76.1637 35.5517 77.1904 35.955C77.7037 36.1383 78.052 36.45 78.2354 36.89C78.382 37.2933 78.3454 38.0083 78.1254 39.035C77.942 39.8417 77.3737 42.115 76.4204 45.855C75.1004 51.2083 74.422 53.995 74.3854 54.215C74.2387 55.2417 74.2204 55.9567 74.3304 56.36C74.4037 56.5433 74.5137 56.69 74.6604 56.8C74.7704 56.91 74.9354 56.965 75.1554 56.965C75.412 56.965 75.6137 56.9283 75.7604 56.855C76.457 56.3417 77.172 54.6733 77.9054 51.85C78.0887 51.1533 78.2354 50.7683 78.3454 50.695C78.4187 50.6217 78.8587 50.585 79.6654 50.585C80.472 50.585 80.9304 50.6217 81.0404 50.695C81.1137 50.7683 81.1504 50.915 81.1504 51.135C81.1504 51.355 81.0587 51.795 80.8754 52.455C79.5187 57.075 77.5937 59.4583 75.1004 59.605C73.2304 59.715 71.727 59.0733 70.5904 57.68C70.407 57.46 70.242 57.2217 70.0954 56.965C70.022 56.745 69.967 56.635 69.9304 56.635L69.5454 56.965C68.262 58.1017 66.997 58.8533 65.7504 59.22C63.367 60.0267 61.222 59.66 59.3154 58.12C59.0954 57.9367 58.8937 57.735 58.7104 57.515C58.1604 56.965 57.702 56.305 57.3354 55.535C56.2354 53.2983 56.0154 50.6767 56.6754 47.67C57.5187 43.6733 59.4254 40.3733 62.3954 37.77C64.3754 36.0467 66.447 35.0383 68.6104 34.745ZM69.7654 37.33C68.262 37.0733 66.8137 37.7883 65.4204 39.475C65.0537 39.9517 64.7237 40.465 64.4304 41.015C63.8804 42.0783 63.2204 44.1683 62.4504 47.285C61.9737 49.045 61.6254 50.585 61.4054 51.905C61.2587 53.1517 61.2587 54.105 61.4054 54.765C61.772 56.0483 62.487 56.7817 63.5504 56.965C64.1737 57.075 64.9254 56.9467 65.8054 56.58C67.1254 55.8467 68.372 54.6183 69.5454 52.895L69.8204 52.51L71.1954 47.065L72.5704 41.565L72.4604 41.125C72.1304 39.035 71.3054 37.7883 69.9854 37.385C69.912 37.3483 69.8387 37.33 69.7654 37.33ZM92.8512 34.745C94.0978 34.5617 95.3628 34.745 96.6462 35.295C97.6362 35.735 98.3878 36.3583 98.9012 37.165L99.1212 37.44L99.3412 37.11C100.258 36.01 101.376 35.2583 102.696 34.855C104.31 34.415 105.776 34.7083 107.096 35.735C107.353 35.9183 107.573 36.12 107.756 36.34C108.196 36.8533 108.49 37.4583 108.636 38.155C109.003 39.365 108.911 40.5567 108.361 41.73C107.775 42.9767 106.785 43.6733 105.391 43.82C104.218 43.93 103.411 43.5083 102.971 42.555C102.861 42.3717 102.788 42.0783 102.751 41.675C102.751 41.0517 102.88 40.4833 103.136 39.97C103.43 39.31 103.961 38.7783 104.731 38.375C105.061 38.2283 105.226 38.1183 105.226 38.045C105.08 37.825 104.823 37.6233 104.456 37.44C104.273 37.3667 103.998 37.33 103.631 37.33C103.265 37.33 102.99 37.3667 102.806 37.44C101.89 37.9533 101.175 38.925 100.661 40.355L97.4712 53.06C97.2145 54.1967 97.1595 55.04 97.3062 55.59C97.5995 56.58 98.3878 57.0567 99.6712 57.02C100.111 56.9833 100.533 56.8917 100.936 56.745C102.403 56.195 103.613 54.93 104.566 52.95C104.823 52.4367 105.025 51.9233 105.171 51.41C105.318 50.9333 105.483 50.6767 105.666 50.64C105.776 50.6033 106.161 50.585 106.821 50.585C107.628 50.585 108.068 50.6217 108.141 50.695C108.325 50.8417 108.343 51.1533 108.196 51.63C107.903 52.84 107.39 53.9583 106.656 54.985C104.75 57.7717 102.421 59.3117 99.6712 59.605C99.5978 59.605 99.5245 59.605 99.4512 59.605C97.3245 59.715 95.6195 59.0183 94.3362 57.515C94.2628 57.4783 94.2078 57.4233 94.1712 57.35C93.9512 57.0933 93.8228 56.9467 93.7862 56.91L93.4562 57.295C92.9428 57.8817 92.4295 58.3217 91.9162 58.615C90.8162 59.3117 89.7345 59.6417 88.6712 59.605C87.9745 59.5683 87.2778 59.385 86.5812 59.055C85.4078 58.505 84.6378 57.515 84.2712 56.085C83.8678 54.2517 84.1978 52.73 85.2612 51.52C86.2878 50.53 87.4062 50.2183 88.6162 50.585C89.0562 50.7317 89.4045 50.9517 89.6612 51.245C90.3578 52.015 90.3945 53.0417 89.7712 54.325C89.4412 55.0217 88.9278 55.5533 88.2312 55.92C87.9012 56.1033 87.7178 56.195 87.6812 56.195C87.6812 56.3417 87.9562 56.5617 88.5062 56.855C88.6528 56.9283 88.9095 56.965 89.2762 56.965C89.6428 56.965 89.9178 56.9283 90.1012 56.855C91.0178 56.3783 91.7145 55.425 92.1912 53.995L95.4912 41.015C95.5645 40.6483 95.6012 40.135 95.6012 39.475C95.6012 38.9617 95.5645 38.6133 95.4912 38.43C95.0512 37.4767 94.1162 37.1283 92.6862 37.385C91.3295 37.6417 90.1195 38.5583 89.0562 40.135C88.4328 41.125 87.9745 42.1517 87.6812 43.215C87.5712 43.435 87.4978 43.5633 87.4612 43.6C87.3878 43.6733 86.9478 43.71 86.1412 43.71H84.9312L84.7662 43.545C84.6562 43.435 84.6012 43.2883 84.6012 43.105C84.7478 42.1517 85.2612 40.9967 86.1412 39.64C86.1778 39.5667 86.2145 39.4933 86.2512 39.42C87.8645 36.89 89.9362 35.35 92.4662 34.8C92.6128 34.8 92.7412 34.7817 92.8512 34.745ZM123.699 17.97L123.974 17.75H124.964H125.899L126.064 17.915C126.174 18.025 126.229 18.135 126.229 18.245C126.229 18.3917 126.082 18.63 125.789 18.96C124.726 20.06 123.736 21.3067 122.819 22.7C120.876 25.7067 119.464 29.1717 118.584 33.095C117.154 39.1083 116.879 45.58 117.759 52.51C117.942 54.2333 118.217 55.8467 118.584 57.35C119.867 63.0333 122.269 67.7633 125.789 71.54C126.082 71.87 126.229 72.1083 126.229 72.255C126.229 72.365 126.174 72.475 126.064 72.585L125.899 72.75H124.964H123.974L123.699 72.53C122.782 71.7233 122.067 71.045 121.554 70.495C116.421 65.0683 113.524 57.7533 112.864 48.55C112.717 47.01 112.699 45.0117 112.809 42.555C112.846 42.2983 112.864 42.0967 112.864 41.95C113.524 32.7467 116.421 25.4317 121.554 20.005C122.067 19.455 122.782 18.7767 123.699 17.97ZM140.291 34.8C140.914 34.6167 141.702 34.635 142.656 34.855C143.682 35.1483 144.489 35.625 145.076 36.285C145.479 36.6883 145.827 37.2383 146.121 37.935L146.231 38.155L146.671 37.715C148.137 36.3217 149.696 35.405 151.346 34.965C153.472 34.415 155.397 34.5433 157.121 35.35C157.744 35.6433 158.294 36.0283 158.771 36.505C159.101 36.8717 159.339 37.2383 159.486 37.605L159.871 38.43V38.595L160.421 38.045C162.107 36.2483 164.014 35.185 166.141 34.855C167.461 34.5983 168.671 34.6167 169.771 34.91C171.201 35.2033 172.282 35.8267 173.016 36.78C173.419 37.2933 173.749 37.9717 174.006 38.815C174.079 39.145 174.116 39.75 174.116 40.63C174.116 41.5833 174.097 42.1883 174.061 42.445C173.657 44.6083 172.667 47.8533 171.091 52.18C170.321 54.3067 169.954 55.7 169.991 56.36C170.027 56.7633 170.229 56.9833 170.596 57.02C171.476 57.0933 172.282 56.6167 173.016 55.59C173.749 54.5633 174.336 53.225 174.776 51.575C174.959 50.9883 175.142 50.6767 175.326 50.64C175.436 50.6033 175.821 50.585 176.481 50.585C177.287 50.585 177.727 50.6217 177.801 50.695C178.021 50.8417 178.021 51.2267 177.801 51.85C177.104 54.3067 176.004 56.25 174.501 57.68C174.024 58.1567 173.437 58.5967 172.741 59C171.127 59.8067 169.551 59.8433 168.011 59.11C167.351 58.78 166.856 58.395 166.526 57.955C165.829 57.1117 165.481 56.1217 165.481 54.985C165.481 54.2883 165.756 53.1517 166.306 51.575C168.102 46.735 169.111 43.3067 169.331 41.29C169.477 40.41 169.459 39.585 169.276 38.815C169.019 38.0817 168.652 37.6233 168.176 37.44C167.809 37.2567 167.241 37.22 166.471 37.33C164.051 37.6967 161.961 39.53 160.201 42.83L159.761 43.6L158.001 50.585C156.827 55.315 156.186 57.7717 156.076 57.955C155.599 58.9083 154.811 59.4583 153.711 59.605C153.417 59.6417 153.142 59.6233 152.886 59.55C151.969 59.2933 151.474 58.725 151.401 57.845C151.401 57.5517 151.987 55.0217 153.161 50.255C154.407 45.2683 155.049 42.665 155.086 42.445C155.269 41.565 155.361 40.74 155.361 39.97C155.324 38.98 155.086 38.265 154.646 37.825C154.536 37.6417 154.371 37.5133 154.151 37.44C154.004 37.3667 153.692 37.33 153.216 37.33C152.592 37.33 152.006 37.4217 151.456 37.605C150.429 37.935 149.476 38.54 148.596 39.42C147.716 40.3 146.872 41.4733 146.066 42.94L145.681 43.6L143.976 50.585C142.729 55.4983 141.996 58.1017 141.776 58.395C141.739 58.4683 141.647 58.5783 141.501 58.725C140.731 59.495 139.832 59.77 138.806 59.55C137.889 59.2933 137.394 58.725 137.321 57.845C137.321 57.515 138.017 54.545 139.411 48.935C140.841 43.3983 141.592 40.3733 141.666 39.86C141.776 38.9067 141.739 38.21 141.556 37.77C141.372 37.44 141.116 37.275 140.786 37.275C140.566 37.275 140.364 37.3483 140.181 37.495C139.887 37.6783 139.576 38.1 139.246 38.76C138.879 39.64 138.421 41.125 137.871 43.215C137.761 43.435 137.687 43.5633 137.651 43.6C137.577 43.6733 137.137 43.71 136.331 43.71H135.121L134.956 43.545C134.809 43.3983 134.827 42.9583 135.011 42.225C135.964 38.7783 137.174 36.5417 138.641 35.515C139.337 35.075 139.887 34.8367 140.291 34.8Z" fill="#202229"/>
<path d="M206.24 51.905C207.413 51.6117 208.385 51.85 209.155 52.62C209.558 52.9867 209.815 53.5 209.925 54.16C210.438 56.1033 209.998 58.5967 208.605 61.64C207.322 64.5 205.397 67.0117 202.83 69.175C202.353 69.615 202.005 69.7617 201.785 69.615C201.675 69.5417 201.492 69.3217 201.235 68.955C200.832 68.3683 200.667 68.02 200.74 67.91C200.777 67.8367 200.997 67.5983 201.4 67.195C204.003 64.9217 205.8 62.3367 206.79 59.44L207.065 58.725L206.735 58.835C206.112 59.055 205.47 59.0917 204.81 58.945C204.26 58.835 203.82 58.6333 203.49 58.34C202.83 57.7167 202.555 56.8733 202.665 55.81C202.922 54.1233 203.783 52.9317 205.25 52.235C205.58 52.0883 205.91 51.9783 206.24 51.905ZM224.865 51.85C225.709 51.7033 226.46 51.8133 227.12 52.18C228.294 52.84 228.752 53.885 228.495 55.315C228.312 56.1217 227.909 56.855 227.285 57.515C226.039 58.835 224.682 59.2933 223.215 58.89C222.775 58.7433 222.372 58.505 222.005 58.175C221.015 57.2583 220.85 56.0483 221.51 54.545C221.987 53.555 222.72 52.8033 223.71 52.29C224.15 52.07 224.535 51.9233 224.865 51.85ZM243.38 51.85C244.224 51.7033 244.975 51.8133 245.635 52.18C246.809 52.84 247.267 53.885 247.01 55.315C246.827 56.1217 246.424 56.855 245.8 57.515C244.554 58.835 243.197 59.2933 241.73 58.89C241.29 58.7433 240.887 58.505 240.52 58.175C239.53 57.2583 239.365 56.0483 240.025 54.545C240.502 53.555 241.235 52.8033 242.225 52.29C242.665 52.07 243.05 51.9233 243.38 51.85ZM261.896 51.85C262.739 51.7033 263.491 51.8133 264.151 52.18C265.324 52.84 265.782 53.885 265.526 55.315C265.342 56.1217 264.939 56.855 264.316 57.515C263.069 58.835 261.712 59.2933 260.246 58.89C259.806 58.7433 259.402 58.505 259.036 58.175C258.046 57.2583 257.881 56.0483 258.541 54.545C259.017 53.555 259.751 52.8033 260.741 52.29C261.181 52.07 261.566 51.9233 261.896 51.85ZM280.301 51.905C281.474 51.6117 282.446 51.85 283.216 52.62C283.619 52.9867 283.876 53.5 283.986 54.16C284.499 56.1033 284.059 58.5967 282.666 61.64C281.383 64.5 279.458 67.0117 276.891 69.175C276.414 69.615 276.066 69.7617 275.846 69.615C275.736 69.5417 275.553 69.3217 275.296 68.955C274.893 68.3683 274.728 68.02 274.801 67.91C274.838 67.8367 275.058 67.5983 275.461 67.195C278.064 64.9217 279.861 62.3367 280.851 59.44L281.126 58.725L280.796 58.835C280.173 59.055 279.531 59.0917 278.871 58.945C278.321 58.835 277.881 58.6333 277.551 58.34C276.891 57.7167 276.616 56.8733 276.726 55.81C276.983 54.1233 277.844 52.9317 279.311 52.235C279.641 52.0883 279.971 51.9783 280.301 51.905ZM298.926 34.8C299.55 34.6167 300.338 34.635 301.291 34.855C302.318 35.1483 303.125 35.625 303.711 36.285C304.115 36.6883 304.463 37.2383 304.756 37.935L304.866 38.155L305.306 37.715C306.773 36.3217 308.331 35.405 309.981 34.965C312.108 34.415 314.033 34.5433 315.756 35.35C316.38 35.6433 316.93 36.0283 317.406 36.505C317.736 36.8717 317.975 37.2383 318.121 37.605L318.506 38.43V38.595L319.056 38.045C320.743 36.2483 322.65 35.185 324.776 34.855C326.096 34.5983 327.306 34.6167 328.406 34.91C329.836 35.2033 330.918 35.8267 331.651 36.78C332.055 37.2933 332.385 37.9717 332.641 38.815C332.715 39.145 332.751 39.75 332.751 40.63C332.751 41.5833 332.733 42.1883 332.696 42.445C332.293 44.6083 331.303 47.8533 329.726 52.18C328.956 54.3067 328.59 55.7 328.626 56.36C328.663 56.7633 328.865 56.9833 329.231 57.02C330.111 57.0933 330.918 56.6167 331.651 55.59C332.385 54.5633 332.971 53.225 333.411 51.575C333.595 50.9883 333.778 50.6767 333.961 50.64C334.071 50.6033 334.456 50.585 335.116 50.585C335.923 50.585 336.363 50.6217 336.436 50.695C336.656 50.8417 336.656 51.2267 336.436 51.85C335.74 54.3067 334.64 56.25 333.136 57.68C332.66 58.1567 332.073 58.5967 331.376 59C329.763 59.8067 328.186 59.8433 326.646 59.11C325.986 58.78 325.491 58.395 325.161 57.955C324.465 57.1117 324.116 56.1217 324.116 54.985C324.116 54.2883 324.391 53.1517 324.941 51.575C326.738 46.735 327.746 43.3067 327.966 41.29C328.113 40.41 328.095 39.585 327.911 38.815C327.655 38.0817 327.288 37.6233 326.811 37.44C326.445 37.2567 325.876 37.22 325.106 37.33C322.686 37.6967 320.596 39.53 318.836 42.83L318.396 43.6L316.636 50.585C315.463 55.315 314.821 57.7717 314.711 57.955C314.235 58.9083 313.446 59.4583 312.346 59.605C312.053 59.6417 311.778 59.6233 311.521 59.55C310.605 59.2933 310.11 58.725 310.036 57.845C310.036 57.5517 310.623 55.0217 311.796 50.255C313.043 45.2683 313.685 42.665 313.721 42.445C313.905 41.565 313.996 40.74 313.996 39.97C313.96 38.98 313.721 38.265 313.281 37.825C313.171 37.6417 313.006 37.5133 312.786 37.44C312.64 37.3667 312.328 37.33 311.851 37.33C311.228 37.33 310.641 37.4217 310.091 37.605C309.065 37.935 308.111 38.54 307.231 39.42C306.351 40.3 305.508 41.4733 304.701 42.94L304.316 43.6L302.611 50.585C301.365 55.4983 300.631 58.1017 300.411 58.395C300.375 58.4683 300.283 58.5783 300.136 58.725C299.366 59.495 298.468 59.77 297.441 59.55C296.525 59.2933 296.03 58.725 295.956 57.845C295.956 57.515 296.653 54.545 298.046 48.935C299.476 43.3983 300.228 40.3733 300.301 39.86C300.411 38.9067 300.375 38.21 300.191 37.77C300.008 37.44 299.751 37.275 299.421 37.275C299.201 37.275 299 37.3483 298.816 37.495C298.523 37.6783 298.211 38.1 297.881 38.76C297.515 39.64 297.056 41.125 296.506 43.215C296.396 43.435 296.323 43.5633 296.286 43.6C296.213 43.6733 295.773 43.71 294.966 43.71H293.756L293.591 43.545C293.445 43.3983 293.463 42.9583 293.646 42.225C294.6 38.7783 295.81 36.5417 297.276 35.515C297.973 35.075 298.523 34.8367 298.926 34.8Z" fill="#202229"/>
<path d="M359.3 17.805C359.373 17.7683 359.722 17.75 360.345 17.75H361.28L361.555 17.97C362.472 18.7767 363.187 19.455 363.7 20.005C368.833 25.4317 371.73 32.7467 372.39 41.95C372.537 43.49 372.555 45.4883 372.445 47.945C372.408 48.2017 372.39 48.4033 372.39 48.55C371.73 57.7533 368.833 65.0683 363.7 70.495C363.187 71.045 362.472 71.7233 361.555 72.53L361.28 72.75H360.345C359.575 72.75 359.153 72.64 359.08 72.42C359.043 72.3467 359.025 72.255 359.025 72.145C359.062 72.0717 359.282 71.7967 359.685 71.32C363.095 67.58 365.423 62.9233 366.67 57.35C368.1 51.3733 368.375 44.92 367.495 37.99C367.312 36.23 367.037 34.5983 366.67 33.095C365.423 27.5583 363.095 22.92 359.685 19.18C359.282 18.7033 359.062 18.4283 359.025 18.355C359.025 18.0983 359.117 17.915 359.3 17.805Z" fill="#202229"/>
<path d="M194.164 43.06L194.488 43.024H194.524C194.788 43.024 194.956 43.108 195.028 43.276C195.052 43.372 194.188 46.96 192.436 54.04C190.636 61.144 189.736 64.708 189.736 64.732C189.712 64.804 189.88 64.864 190.24 64.912C190.6 64.936 191.188 64.96 192.004 64.984C192.94 64.984 193.444 65.068 193.516 65.236C193.564 65.308 193.528 65.584 193.408 66.064C193.264 66.568 193.168 66.844 193.12 66.892L193.012 67H192.436C189.796 66.88 186.712 66.868 183.184 66.964C182.368 66.988 181.912 66.916 181.816 66.748C181.792 66.676 181.828 66.4 181.924 65.92C182.068 65.44 182.164 65.164 182.212 65.092L182.356 64.984H183.724C185.188 64.96 186.04 64.864 186.28 64.696C186.376 64.648 187.084 61.936 188.404 56.56L190.42 48.496L189.952 48.748C188.896 49.276 187.852 49.576 186.82 49.648C186.364 49.696 186.076 49.624 185.956 49.432L185.92 49.324L186.064 48.676C186.208 48.1 186.34 47.776 186.46 47.704C186.484 47.704 186.688 47.68 187.072 47.632C187.96 47.56 188.884 47.296 189.844 46.84C191.404 46.048 192.748 44.896 193.876 43.384C193.948 43.288 194.044 43.18 194.164 43.06Z" fill="black"/>
<path d="M346.008 43.456C346.872 43.24 347.496 43.456 347.88 44.104C348 44.32 348.072 44.56 348.096 44.824C348.096 45.184 348.012 45.532 347.844 45.868C347.292 46.636 346.596 47.08 345.756 47.2C345.492 47.2 345.216 47.128 344.928 46.984C344.688 46.864 344.496 46.648 344.352 46.336C344.28 46.24 344.232 46.048 344.208 45.76C344.208 45.376 344.28 45.04 344.424 44.752C344.76 44.08 345.288 43.648 346.008 43.456ZM342.912 51.16C343.08 51.112 343.344 51.088 343.704 51.088C344.256 51.112 344.736 51.232 345.144 51.448C345.456 51.616 345.696 51.796 345.864 51.988C346.056 52.156 346.236 52.396 346.404 52.708C346.62 53.164 346.716 53.644 346.692 54.148C346.692 54.556 346.668 54.844 346.62 55.012C346.596 55.06 346.056 56.56 345 59.512C343.992 62.2 343.452 63.688 343.38 63.976C343.14 64.768 343.104 65.296 343.272 65.56C343.392 65.704 343.644 65.728 344.028 65.632C344.964 65.416 345.72 64.252 346.296 62.14C346.416 61.756 346.536 61.552 346.656 61.528C346.728 61.504 346.98 61.492 347.412 61.492C347.94 61.492 348.228 61.516 348.276 61.564C348.42 61.66 348.42 61.912 348.276 62.32C348.012 63.256 347.616 64.132 347.088 64.948C346.128 66.388 345.036 67.192 343.812 67.36C343.38 67.456 342.936 67.432 342.48 67.288C342 67.144 341.604 66.964 341.292 66.748C340.764 66.316 340.416 65.704 340.248 64.912C340.152 64.456 340.176 63.976 340.32 63.472C340.368 63.28 340.896 61.804 341.904 59.044C342.768 56.74 343.32 55.228 343.56 54.508C343.8 53.764 343.836 53.248 343.668 52.96C343.596 52.768 343.344 52.732 342.912 52.852C342.192 53.02 341.556 53.776 341.004 55.12C340.692 56.2 340.536 56.716 340.536 56.668C340.464 56.812 340.416 56.896 340.392 56.92C340.344 56.968 340.056 56.992 339.528 56.992H338.736L338.628 56.884C338.556 56.812 338.52 56.716 338.52 56.596C338.568 56.212 338.772 55.612 339.132 54.796C339.42 54.172 339.72 53.656 340.032 53.248C340.344 52.816 340.74 52.384 341.22 51.952C341.748 51.544 342.312 51.28 342.912 51.16Z" fill="black"/>
</svg>
