<svg width="22" height="22" viewBox="0 0 22 22" fill="none" xmlns="http://www.w3.org/2000/svg">
<g clip-path="url(#clip0)">
<path d="M17.3719 6.88855L17.769 7.19231L17.3719 6.88854L17.3719 6.88852L17.3719 6.88846L17.3721 6.8882L17.3729 6.88718L17.3759 6.8832L17.3875 6.8681L17.4289 6.81395L17.5567 6.6471C17.6355 6.54423 17.7225 6.43079 17.7567 6.38667C17.7595 6.38103 17.7648 6.3697 17.7723 6.35111C17.7895 6.30841 17.8104 6.24692 17.8329 6.16685C17.8778 6.00731 17.9226 5.79861 17.9578 5.56832C18.0304 5.09359 18.0513 4.60029 17.9893 4.28756L17.9893 4.28735C17.8974 3.82294 17.6191 3.56933 17.3399 3.31487C17.2514 3.23425 17.1628 3.15355 17.0801 3.06603C16.9235 2.90043 16.8482 2.68531 16.8734 2.4619C16.8965 2.25759 16.9976 2.09346 17.1009 1.97801C17.3046 1.75047 17.6195 1.59387 17.9436 1.56154L17.3719 6.88855ZM17.3719 6.88855C17.3052 6.97576 17.269 7.08251 17.269 7.19231V7.61539C17.269 7.81006 17.382 7.98702 17.5586 8.06895C17.7925 8.17748 18.0204 8.1631 18.2093 8.09013C18.37 8.02804 18.4976 7.92433 18.5647 7.86981L18.5661 7.86867C18.5751 7.86131 18.5833 7.85468 18.5907 7.8486C18.736 7.91652 18.9143 7.98972 19.1019 8.04559C19.3057 8.10629 19.5854 8.16704 19.8615 8.1298C19.9272 8.16049 20.0125 8.20497 20.1033 8.2547C20.1978 8.30649 20.2904 8.35966 20.3599 8.40023C20.3945 8.42041 20.423 8.43727 20.4428 8.44899L20.4654 8.46245L20.471 8.46585L20.4723 8.46664L20.4726 8.46679M17.3719 6.88855L20.4726 8.46679M20.4726 8.46679L20.4726 8.4668M20.4726 8.46679L20.4726 8.4668M20.4726 8.46681C20.6271 8.5598 20.8196 8.56246 20.9765 8.47377C21.1335 8.38507 21.2305 8.21875 21.2305 8.03847C21.2305 7.82868 21.1626 7.63431 21.0905 7.48004C21.0161 7.32066 20.9187 7.16585 20.822 7.02674C20.7245 6.88646 20.6193 6.75026 20.5249 6.62999C20.5037 6.60299 20.4834 6.57709 20.4637 6.55218C20.3924 6.46161 20.3314 6.38411 20.2799 6.31409C20.2481 6.27082 20.1847 6.11977 20.1198 5.81036C20.0602 5.52548 20.0125 5.17751 19.9694 4.807C19.9481 4.62297 19.9282 4.4368 19.9086 4.25269L19.9077 4.24458C19.8885 4.06416 19.8694 3.88531 19.8497 3.71695C19.8109 3.38452 19.7663 3.05894 19.7037 2.82405C19.5678 2.31409 19.2851 1.96575 18.9318 1.76378C18.5924 1.56973 18.228 1.53314 17.9438 1.56152L20.4726 8.46681ZM20.4726 8.46681L20.4726 8.4668M20.4726 8.46681L20.4726 8.4668" fill="url(#paint0_linear)" stroke="white" stroke-linecap="round" stroke-linejoin="round"/>
<path d="M0.493131 18.9283C0.492305 18.9291 0.491577 18.9298 0.490944 18.9304C0.491856 18.9294 0.492965 18.928 0.494269 18.9264L0.494781 18.9268M0.493131 18.9283C0.493644 18.9278 0.494194 18.9273 0.494781 18.9268M0.493131 18.9283L0.572943 18.9908C0.566752 19.0921 0.585286 19.1806 0.627106 19.2483C0.627106 19.2483 0.699294 19.4735 0.886637 19.2363C0.91207 19.2038 0.944214 19.169 0.983409 19.1341L1.10323 19.0956L1.10308 19.0952C1.10313 19.0953 1.10318 19.0955 0.983583 19.1339C1.01381 19.107 1.04822 19.0799 1.08698 19.0537M0.494781 18.9268C0.507769 18.9148 0.53914 18.8899 0.590754 18.8703C0.581382 18.9112 0.575516 18.9508 0.573079 18.9886L0.494781 18.9268ZM8.11644 16.9313L8.11635 16.9313L3.35476 17.4797L3.37046 16.98C3.37046 16.98 3.37046 16.98 3.37045 16.98C2.14295 16.9414 1.25804 17.3011 0.709655 17.7963C0.438967 18.0408 0.246761 18.3224 0.147727 18.6056C0.0589743 18.8593 0.0243222 19.1852 0.177045 19.4684C0.184278 19.4845 0.193351 19.5031 0.20452 19.5231C0.232217 19.5728 0.296254 19.6747 0.416348 19.7519C0.561932 19.8454 0.752181 19.8768 0.940483 19.8072C1.09722 19.7492 1.20641 19.6381 1.27901 19.5462L1.28039 19.5444C1.32045 19.4932 1.63612 19.1722 2.49836 19.4434L2.49869 19.4435C3.43625 19.7376 4.17337 20.0739 4.58348 20.3187C6.04177 21.191 7.48136 21.3102 8.82542 21.4215L8.87704 21.4258L8.8775 21.4258C11.6882 21.6563 13.9321 20.3708 15.0143 19.7508L15.0381 19.7372L15.0389 19.7367C15.0554 19.7272 15.0799 19.7137 15.1119 19.6962C15.7948 19.3205 19.8676 17.0803 21.0091 12.4077L21.0091 12.4077C21.0203 12.3617 21.0315 12.3159 21.0426 12.2704C21.3056 11.1948 21.5288 10.2814 21.584 9.53379C21.643 8.73514 21.5191 8.02152 20.97 7.45512C20.4566 6.92548 19.9231 6.77874 19.4532 6.74478C19.293 6.7332 19.1275 6.73463 18.9947 6.73578C18.9522 6.73615 18.9131 6.73649 18.8786 6.73636C18.7151 6.73577 18.6194 6.7263 18.5502 6.70501C17.8807 6.4971 17.3697 6.50699 16.977 6.62401C16.6332 6.72646 16.4104 6.90885 16.3301 6.97458C16.3205 6.98245 16.3129 6.98864 16.3074 6.99283C15.851 7.33415 15.6575 7.80656 15.5727 8.07988C15.3761 8.64342 15.3616 9.18118 15.3662 9.66435C15.367 9.74767 15.3683 9.82882 15.3696 9.90831C15.3759 10.3091 15.3817 10.6677 15.3189 11.0495C15.1547 12.0479 14.6937 14.0165 12.8717 15.1835C10.9385 16.4216 9.4019 16.7503 8.11644 16.9313Z" fill="url(#paint1_linear)" stroke="white"/>
<g opacity="0.2">
<path opacity="0.2" d="M18.1173 2.39594C18.3906 2.39594 18.7481 2.50765 18.889 3.04047C18.9595 3.30515 19.0128 3.80359 19.0695 4.33297C19.2018 5.5739 19.3101 6.41781 19.6006 6.81484L19.6418 6.87156C19.7381 7.00219 19.8154 7.10875 19.8859 7.1964C19.4459 7.18781 18.944 7.08812 18.8203 7.02453C18.6862 6.95406 18.5435 6.93 18.4129 6.92312C18.4198 6.91625 18.4249 6.90937 18.4318 6.90078C18.7206 6.53641 18.9835 4.95859 18.8203 4.12844C18.6724 3.3739 18.162 2.915 17.856 2.64C17.8131 2.60047 17.7735 2.56609 17.7409 2.53515C17.7907 2.48531 17.8973 2.41828 18.0296 2.40453C18.0571 2.39594 18.0881 2.39594 18.1173 2.39594ZM18.1173 2.05219C18.0743 2.05219 18.0348 2.0539 17.9953 2.05906C17.5828 2.10031 17.2081 2.46984 17.4453 2.7225C17.6842 2.97515 18.3253 3.39281 18.4817 4.19031C18.6398 4.98953 18.3545 6.43844 18.162 6.6825C18.0932 6.77015 17.9403 6.79765 17.7718 6.79765C17.4676 6.79765 17.1118 6.70484 17.1118 6.70484C17.1118 6.70484 17.1651 6.99875 17.5467 7.1775C17.7013 7.24969 17.8663 7.26344 18.0279 7.26344C18.119 7.26344 18.2084 7.26 18.2943 7.26C18.4301 7.26 18.5556 7.27031 18.6604 7.32531C18.8735 7.43703 19.494 7.53844 19.946 7.53844C20.1007 7.53844 20.2348 7.52641 20.3259 7.49891C20.6335 7.40781 20.826 7.40094 20.8759 7.40094H20.8896C20.8896 7.40094 20.9859 7.2789 20.6404 7.23766C20.2949 7.1964 20.2881 7.17062 19.8773 6.61031C19.4665 6.05 19.4287 3.7314 19.2207 2.95281C19.0334 2.24469 18.5195 2.05219 18.1173 2.05219Z" fill="#424242"/>
</g>
<g opacity="0.2">
<path opacity="0.2" d="M17.5759 7.55389C17.7718 7.55389 17.9987 7.59343 18.2513 7.67249C18.4816 7.74468 18.7119 7.74983 18.9079 7.74983H19.023H19.1365C19.5369 7.74983 19.8738 7.78077 20.2434 8.16061C20.826 8.76046 20.5905 9.85014 20.0491 12.0656L20.0251 12.1653C19.0918 15.9844 15.931 18.0847 14.6162 18.81C14.5818 18.8289 14.5543 18.8444 14.5354 18.8547C13.5729 19.4081 11.7802 20.4359 9.54757 20.4359C9.35164 20.4359 9.1557 20.4273 8.96148 20.4119C7.62773 20.3036 6.36789 20.2005 5.1046 19.4459C4.54601 19.1125 3.70726 18.7584 2.8032 18.4731C2.48007 18.3717 2.16898 18.3201 1.88023 18.3201C1.82179 18.3201 1.76507 18.3219 1.71007 18.3253C2.01773 18.1534 2.49382 17.9919 3.19335 17.9919C3.24148 17.9919 3.2896 17.9919 3.33945 17.9936L3.95304 18.0125C4.83304 18.04 5.52742 18.0623 6.16335 18.0623C6.98492 18.0623 7.63117 18.0228 8.25851 17.9334C9.6507 17.7375 11.3523 17.3576 13.4182 16.0342C14.9805 15.0339 15.9568 13.4114 16.3194 11.2114C16.3985 10.7353 16.3916 10.2987 16.3848 9.87593C16.3762 9.33796 16.3676 8.87389 16.5343 8.40468C16.536 8.3978 16.5394 8.39092 16.5412 8.38405C16.6202 8.12452 16.7474 7.92858 16.9193 7.79968C16.9348 7.78764 16.9519 7.77389 16.9709 7.75843C17.0791 7.67421 17.2287 7.55389 17.5759 7.55389ZM17.5759 7.03827C16.9898 7.03827 16.7268 7.30124 16.6082 7.38889C16.2679 7.64499 16.1166 8.00593 16.0462 8.23452C15.7076 9.1953 15.9791 10.1045 15.8107 11.1289C15.6423 12.1533 15.1524 14.3137 13.1398 15.6028C11.1271 16.8919 9.51492 17.2373 8.1846 17.4247C7.53492 17.5158 6.9007 17.5484 6.16164 17.5484C5.3882 17.5484 4.4996 17.5141 3.3532 17.478C3.2982 17.4762 3.24492 17.4762 3.19164 17.4762C1.07242 17.4762 0.352261 18.8048 0.627261 19.2465C0.627261 19.2465 0.658198 19.3428 0.732105 19.3428C0.771636 19.3428 0.82148 19.3153 0.885073 19.2345C1.01742 19.0661 1.33195 18.8341 1.87851 18.8341C2.09679 18.8341 2.35117 18.8719 2.64679 18.963C3.61101 19.2655 4.38617 19.6161 4.8382 19.8859C6.20289 20.7023 7.54867 20.8106 8.91679 20.924C9.12992 20.9412 9.3396 20.9498 9.54414 20.9498C11.9126 20.9498 13.7998 19.867 14.788 19.2998C15.1765 19.0764 19.384 16.9434 20.5218 12.2856C21.0855 9.97733 21.4276 8.64358 20.6094 7.79968C20.0955 7.2703 19.5851 7.23249 19.133 7.23249C19.0557 7.23249 18.9801 7.23421 18.9062 7.23421C18.724 7.23421 18.5555 7.22733 18.4026 7.17921C18.0726 7.0778 17.801 7.03827 17.5759 7.03827Z" fill="#424242"/>
</g>
</g>
<defs>
<linearGradient id="paint0_linear" x1="16.9242" y1="4.1124" x2="22.1578" y2="6.62879" gradientUnits="userSpaceOnUse">
<stop offset="0.0049069" stop-color="#A0BD46"/>
<stop offset="0.424" stop-color="#7F972D"/>
<stop offset="0.9261" stop-color="#52650B"/>
</linearGradient>
<linearGradient id="paint1_linear" x1="8.64856" y1="10.9772" x2="16.071" y2="20.5706" gradientUnits="userSpaceOnUse">
<stop offset="0.2808" stop-color="#FF1744"/>
<stop offset="0.6543" stop-color="#B20500"/>
<stop offset="1" stop-color="#EB382F"/>
</linearGradient>
<clipPath id="clip0">
<rect width="22" height="22" fill="white"/>
</clipPath>
</defs>
</svg>
