<svg width="333" height="154" viewBox="0 0 333 154" fill="none" xmlns="http://www.w3.org/2000/svg">
<path d="M5.18838 56.648L5.33238 56.504H19.5884C29.1884 56.504 34.0684 56.6 34.2284 56.792C34.2924 56.952 34.0204 58.872 33.4124 62.552C32.7724 66.328 32.4364 68.232 32.4044 68.264C32.2764 68.424 31.8924 68.504 31.2524 68.504C30.5804 68.504 30.2124 68.408 30.1484 68.216C30.0844 68.088 30.1004 67.688 30.1964 67.016C30.6764 64.104 30.7724 62.152 30.4844 61.16C30.1964 60.2 29.1884 59.576 27.4604 59.288C27.1724 59.256 26.2444 59.24 24.6764 59.24C22.8524 59.208 21.8604 59.288 21.7004 59.48C21.6364 59.544 20.5164 63.976 18.3404 72.776L15.0284 85.976L15.1724 86.072C15.5884 86.232 17.1724 86.312 19.9244 86.312H21.4124L21.6044 86.456C21.7004 86.584 21.7484 86.696 21.7484 86.792L21.3164 88.712C21.2204 88.904 20.9004 88.984 20.3564 88.952C20.1644 88.952 19.7004 88.952 18.9644 88.952C12.2764 88.824 7.06038 88.84 3.31638 89H2.59638L2.45238 88.856C2.29238 88.696 2.27638 88.328 2.40438 87.752C2.40438 87.688 2.42038 87.624 2.45238 87.56C2.61238 86.856 2.75638 86.472 2.88438 86.408C2.98038 86.344 3.54038 86.312 4.56438 86.312C6.70838 86.312 8.10038 86.264 8.74038 86.168C9.25238 86.136 9.60438 86.024 9.79638 85.832C9.86038 85.736 10.9804 81.304 13.1564 72.536C15.3644 63.736 16.4684 59.32 16.4684 59.288C16.3404 59.224 15.3484 59.192 13.4924 59.192C12.0204 59.224 11.1244 59.272 10.8044 59.336C8.94838 59.624 7.58838 60.296 6.72438 61.352C5.89238 62.376 4.99638 64.312 4.03638 67.16C3.78038 67.864 3.65237 68.232 3.65237 68.264C3.52438 68.424 3.14038 68.504 2.50038 68.504C1.86038 68.504 1.47638 68.392 1.34838 68.168L1.30038 68.024L3.12438 62.408C4.40438 58.664 5.09238 56.744 5.18838 56.648Z" fill="#202229"/>
<path d="M62.5126 71.59L62.6486 71.522H73.4606H84.3066L84.4426 71.59C84.5106 71.6353 84.6012 71.7147 84.7146 71.828C84.7826 71.964 84.8166 72.0887 84.8166 72.202C84.8166 72.3153 84.7826 72.44 84.7146 72.576C84.6012 72.6893 84.5219 72.7573 84.4766 72.78L84.3406 72.848L73.5286 72.882H62.7166L62.5126 72.814C62.2859 72.678 62.1726 72.474 62.1726 72.202C62.1726 72.0433 62.2066 71.9187 62.2746 71.828C62.3199 71.7373 62.3992 71.658 62.5126 71.59ZM62.5126 78.186L62.7166 78.118H73.5286H84.3406L84.4766 78.22C84.5219 78.2427 84.6012 78.3107 84.7146 78.424C84.7826 78.56 84.8166 78.6847 84.8166 78.798C84.8166 78.9113 84.7826 79.036 84.7146 79.172C84.6012 79.2853 84.5106 79.3647 84.4426 79.41L84.3066 79.478H73.4606H62.6486L62.5126 79.41C62.3992 79.342 62.3199 79.2627 62.2746 79.172C62.2066 79.0813 62.1726 78.9567 62.1726 78.798C62.1726 78.526 62.2859 78.322 62.5126 78.186Z" fill="#202229"/>
<path d="M29.6844 81.613C29.7384 81.577 31.4394 81.559 34.7874 81.559C38.1894 81.559 39.9534 81.568 40.0794 81.586C41.5014 81.73 42.6534 82.234 43.5354 83.098C44.0394 83.62 44.3724 84.268 44.5344 85.042C44.6424 85.42 44.6604 85.852 44.5884 86.338C44.4084 87.868 43.5534 89.218 42.0234 90.388C41.1054 91.09 40.0794 91.585 38.9454 91.873C38.2974 92.053 37.4604 92.143 36.4344 92.143C36.1824 92.143 35.7144 92.143 35.0304 92.143H32.6814L31.9254 95.221C31.4034 97.291 31.1604 98.335 31.1964 98.353C31.2324 98.389 31.2954 98.407 31.3854 98.407C31.6734 98.461 32.1954 98.488 32.9514 98.488C33.3654 98.488 33.5904 98.506 33.6264 98.542C33.7344 98.578 33.7884 98.659 33.7884 98.785L33.5184 99.838C33.4464 99.946 33.2664 99.991 32.9784 99.973C32.8884 99.973 32.6814 99.973 32.3574 99.973C30.8634 99.901 28.9824 99.892 26.7144 99.946C26.4984 99.964 26.3274 99.973 26.2014 99.973C25.5714 99.991 25.2204 99.946 25.1484 99.838C25.1124 99.784 25.1304 99.577 25.2024 99.217C25.2924 98.821 25.3824 98.596 25.4724 98.542C25.5624 98.506 25.8864 98.488 26.4444 98.488C27.4524 98.47 28.0194 98.398 28.1454 98.272C28.1994 98.236 28.8474 95.734 30.0894 90.766C31.3314 85.798 31.9524 83.296 31.9524 83.26C31.9524 83.242 31.9344 83.215 31.8984 83.179C31.8264 83.143 31.3404 83.107 30.4404 83.071H29.5224L29.4144 82.963C29.3424 82.891 29.3514 82.675 29.4414 82.315C29.5494 81.883 29.6304 81.649 29.6844 81.613ZM39.0264 83.098H35.1924C35.0124 83.116 34.8954 83.17 34.8414 83.26L33.8964 86.986C33.2664 89.452 32.9514 90.694 32.9514 90.712C32.9514 90.748 33.6534 90.766 35.0574 90.766C36.6054 90.748 37.5864 90.694 38.0004 90.604C38.9724 90.406 39.7014 90.001 40.1874 89.389C40.5834 88.867 40.9164 88.03 41.1864 86.878C41.3844 86.104 41.4834 85.51 41.4834 85.096C41.4834 84.628 41.3844 84.259 41.1864 83.989C40.7544 83.467 40.0344 83.17 39.0264 83.098Z" fill="#202229"/>
<path d="M133.264 93.36L133.408 93.216H134.032C136.88 93.376 140.496 93.392 144.88 93.264C145.936 93.232 146.528 93.328 146.656 93.552C146.688 93.648 146.624 94.016 146.464 94.656C146.336 95.264 146.208 95.632 146.08 95.76L145.936 95.904H145.264C143.76 95.904 142.72 96.032 142.144 96.288L141.952 96.384V96.72C141.984 96.848 142.24 100.528 142.72 107.76L143.392 118.56L154.096 99.696L153.808 96.24V96.192C153.808 96.16 153.728 96.112 153.568 96.048C153.216 95.952 152.416 95.904 151.168 95.904C150.464 95.904 150.064 95.792 149.968 95.568C149.904 95.472 149.952 95.104 150.112 94.464C150.304 93.792 150.432 93.424 150.496 93.36L150.64 93.216H151.264C154.08 93.376 157.696 93.392 162.112 93.264C163.168 93.232 163.76 93.328 163.888 93.552C163.92 93.648 163.872 94.016 163.744 94.656C163.584 95.264 163.44 95.632 163.312 95.76L163.168 95.904H162.496C161.024 95.904 160 96.032 159.424 96.288L159.184 96.384V96.672C159.216 96.8 159.472 100.48 159.952 107.712C160.4 114.592 160.624 118.208 160.624 118.56C160.688 118.688 164.192 112.528 171.136 100.08C172.032 98.416 172.496 97.552 172.528 97.488C172.656 97.2 172.592 96.928 172.336 96.672C171.76 96.16 170.848 95.904 169.6 95.904C169.28 95.904 169.072 95.792 168.976 95.568C168.912 95.472 168.96 95.104 169.12 94.464C169.312 93.792 169.44 93.424 169.504 93.36L169.648 93.216H170.272L173.44 93.312C175.168 93.344 176.64 93.344 177.856 93.312L180.016 93.216C180.208 93.216 180.352 93.264 180.448 93.36C180.576 93.488 180.64 93.6 180.64 93.696L180.16 95.568V95.616C180.064 95.808 179.84 95.904 179.488 95.904C178.368 95.904 177.392 96.096 176.56 96.48C175.888 96.8 175.328 97.296 174.88 97.968C174.752 98.16 172.048 102.928 166.768 112.272C161.488 121.616 158.784 126.384 158.656 126.576C158.528 126.768 158.4 126.88 158.272 126.912C158.112 127.008 157.744 127.056 157.168 127.056C156.56 127.056 156.208 127.024 156.112 126.96L155.92 126.768C155.888 126.736 155.616 122.912 155.104 115.296C154.624 107.488 154.384 103.664 154.384 103.824C154.384 103.792 153.936 104.544 153.04 106.08C152.112 107.712 150.4 110.736 147.904 115.152C143.52 122.832 141.296 126.704 141.232 126.768C141.04 126.96 140.56 127.056 139.792 127.056L138.928 127.008L138.784 126.864C138.688 126.768 138.64 126.64 138.64 126.48C138.608 126.416 138.272 121.36 137.632 111.312C137.024 101.36 136.688 96.336 136.624 96.24C136.592 96.176 136.496 96.112 136.336 96.048C135.76 95.952 134.96 95.904 133.936 95.904C133.232 95.904 132.816 95.792 132.688 95.568L132.64 95.424L132.88 94.464C133.008 93.856 133.136 93.488 133.264 93.36Z" fill="#202229"/>
<path d="M261.188 55.648L261.332 55.504H275.588C285.188 55.504 290.068 55.6 290.228 55.792C290.292 55.952 290.02 57.872 289.412 61.552C288.772 65.328 288.436 67.232 288.404 67.264C288.276 67.424 287.892 67.504 287.252 67.504C286.58 67.504 286.212 67.408 286.148 67.216C286.084 67.088 286.1 66.688 286.196 66.016C286.676 63.104 286.772 61.152 286.484 60.16C286.196 59.2 285.188 58.576 283.46 58.288C283.172 58.256 282.244 58.24 280.676 58.24C278.852 58.208 277.86 58.288 277.7 58.48C277.636 58.544 276.516 62.976 274.34 71.776L271.028 84.976L271.172 85.072C271.588 85.232 273.172 85.312 275.924 85.312H277.412L277.604 85.456C277.7 85.584 277.748 85.696 277.748 85.792L277.316 87.712C277.22 87.904 276.9 87.984 276.356 87.952C276.164 87.952 275.7 87.952 274.964 87.952C268.276 87.824 263.06 87.84 259.316 88H258.596L258.452 87.856C258.292 87.696 258.276 87.328 258.404 86.752C258.404 86.688 258.42 86.624 258.452 86.56C258.612 85.856 258.756 85.472 258.884 85.408C258.98 85.344 259.54 85.312 260.564 85.312C262.708 85.312 264.1 85.264 264.74 85.168C265.252 85.136 265.604 85.024 265.796 84.832C265.86 84.736 266.98 80.304 269.156 71.536C271.364 62.736 272.468 58.32 272.468 58.288C272.34 58.224 271.348 58.192 269.492 58.192C268.02 58.224 267.124 58.272 266.804 58.336C264.948 58.624 263.588 59.296 262.724 60.352C261.892 61.376 260.996 63.312 260.036 66.16C259.78 66.864 259.652 67.232 259.652 67.264C259.524 67.424 259.14 67.504 258.5 67.504C257.86 67.504 257.476 67.392 257.348 67.168L257.3 67.024L259.124 61.408C260.404 57.664 261.092 55.744 261.188 55.648Z" fill="#202229"/>
<path d="M244.875 43.732L245.165 43.5H246.209H247.195L247.369 43.674C247.485 43.79 247.543 43.906 247.543 44.022C247.543 44.1767 247.388 44.428 247.079 44.776C245.957 45.936 244.913 47.2507 243.947 48.72C241.897 51.8907 240.409 55.5447 239.481 59.682C237.973 66.0233 237.683 72.848 238.611 80.156C238.804 81.9733 239.094 83.6747 239.481 85.26C240.834 91.2533 243.367 96.2413 247.079 100.224C247.388 100.572 247.543 100.823 247.543 100.978C247.543 101.094 247.485 101.21 247.369 101.326L247.195 101.5H246.209H245.165L244.875 101.268C243.908 100.417 243.154 99.702 242.613 99.122C237.199 93.3993 234.145 85.6853 233.449 75.98C233.294 74.356 233.275 72.2487 233.391 69.658C233.429 69.3873 233.449 69.1747 233.449 69.02C234.145 59.3147 237.199 51.6007 242.613 45.878C243.154 45.298 243.908 44.5827 244.875 43.732Z" fill="#202229"/>
<path d="M313.709 43.558C313.786 43.5193 314.153 43.5 314.811 43.5H315.797L316.087 43.732C317.053 44.5827 317.807 45.298 318.349 45.878C323.762 51.6007 326.817 59.3147 327.513 69.02C327.667 70.644 327.687 72.7513 327.571 75.342C327.532 75.6127 327.513 75.8253 327.513 75.98C326.817 85.6853 323.762 93.3993 318.349 99.122C317.807 99.702 317.053 100.417 316.087 101.268L315.797 101.5H314.811C313.999 101.5 313.554 101.384 313.477 101.152C313.438 101.075 313.419 100.978 313.419 100.862C313.457 100.785 313.689 100.495 314.115 99.992C317.711 96.048 320.166 91.1373 321.481 85.26C322.989 78.9573 323.279 72.152 322.351 64.844C322.157 62.988 321.867 61.2673 321.481 59.682C320.166 53.8433 317.711 48.952 314.115 45.008C313.689 44.5053 313.457 44.2153 313.419 44.138C313.419 43.8673 313.515 43.674 313.709 43.558Z" fill="#202229"/>
<path d="M172.068 118.128L172.152 118.044H180.468C186.068 118.044 188.915 118.1 189.008 118.212C189.046 118.305 188.887 119.425 188.532 121.572C188.159 123.775 187.963 124.885 187.944 124.904C187.87 124.997 187.646 125.044 187.272 125.044C186.88 125.044 186.666 124.988 186.628 124.876C186.591 124.801 186.6 124.568 186.656 124.176C186.936 122.477 186.992 121.339 186.824 120.76C186.656 120.2 186.068 119.836 185.06 119.668C184.892 119.649 184.351 119.64 183.436 119.64C182.372 119.621 181.794 119.668 181.7 119.78C181.663 119.817 181.01 122.403 179.74 127.536L177.808 135.236L177.892 135.292C178.135 135.385 179.059 135.432 180.664 135.432H181.532L181.644 135.516C181.7 135.591 181.728 135.656 181.728 135.712L181.476 136.832C181.42 136.944 181.234 136.991 180.916 136.972C180.804 136.972 180.534 136.972 180.104 136.972C176.203 136.897 173.16 136.907 170.976 137H170.556L170.472 136.916C170.379 136.823 170.37 136.608 170.444 136.272C170.444 136.235 170.454 136.197 170.472 136.16C170.566 135.749 170.65 135.525 170.724 135.488C170.78 135.451 171.107 135.432 171.704 135.432C172.955 135.432 173.767 135.404 174.14 135.348C174.439 135.329 174.644 135.264 174.756 135.152C174.794 135.096 175.447 132.511 176.716 127.396C178.004 122.263 178.648 119.687 178.648 119.668C178.574 119.631 177.995 119.612 176.912 119.612C176.054 119.631 175.531 119.659 175.344 119.696C174.262 119.864 173.468 120.256 172.964 120.872C172.479 121.469 171.956 122.599 171.396 124.26C171.247 124.671 171.172 124.885 171.172 124.904C171.098 124.997 170.874 125.044 170.5 125.044C170.127 125.044 169.903 124.979 169.828 124.848L169.8 124.764L170.864 121.488C171.611 119.304 172.012 118.184 172.068 118.128Z" fill="#202229"/>
<path d="M286.068 77.128L286.152 77.044H294.468C300.068 77.044 302.915 77.1 303.008 77.212C303.046 77.3053 302.887 78.4253 302.532 80.572C302.159 82.7747 301.963 83.8853 301.944 83.904C301.87 83.9973 301.646 84.044 301.272 84.044C300.88 84.044 300.666 83.988 300.628 83.876C300.591 83.8013 300.6 83.568 300.656 83.176C300.936 81.4773 300.992 80.3387 300.824 79.76C300.656 79.2 300.068 78.836 299.06 78.668C298.892 78.6493 298.351 78.64 297.436 78.64C296.372 78.6213 295.794 78.668 295.7 78.78C295.663 78.8173 295.01 81.4027 293.74 86.536L291.808 94.236L291.892 94.292C292.135 94.3853 293.059 94.432 294.664 94.432H295.532L295.644 94.516C295.7 94.5907 295.728 94.656 295.728 94.712L295.476 95.832C295.42 95.944 295.234 95.9907 294.916 95.972C294.804 95.972 294.534 95.972 294.104 95.972C290.203 95.8973 287.16 95.9067 284.976 96H284.556L284.472 95.916C284.379 95.8227 284.37 95.608 284.444 95.272C284.444 95.2347 284.454 95.1973 284.472 95.16C284.566 94.7493 284.65 94.5253 284.724 94.488C284.78 94.4507 285.107 94.432 285.704 94.432C286.955 94.432 287.767 94.404 288.14 94.348C288.439 94.3293 288.644 94.264 288.756 94.152C288.794 94.096 289.447 91.5107 290.716 86.396C292.004 81.2627 292.648 78.6867 292.648 78.668C292.574 78.6307 291.995 78.612 290.912 78.612C290.054 78.6307 289.531 78.6587 289.344 78.696C288.262 78.864 287.468 79.256 286.964 79.872C286.479 80.4693 285.956 81.5987 285.396 83.26C285.247 83.6707 285.172 83.8853 285.172 83.904C285.098 83.9973 284.874 84.044 284.5 84.044C284.127 84.044 283.903 83.9787 283.828 83.848L283.8 83.764L284.864 80.488C285.611 78.304 286.012 77.184 286.068 77.128Z" fill="#202229"/>
<path d="M133.264 19.36L133.408 19.216H134.032C136.88 19.376 140.496 19.392 144.88 19.264C145.936 19.232 146.528 19.328 146.656 19.552C146.688 19.648 146.624 20.016 146.464 20.656C146.336 21.264 146.208 21.632 146.08 21.76L145.936 21.904H145.264C143.76 21.904 142.72 22.032 142.144 22.288L141.952 22.384V22.72C141.984 22.848 142.24 26.528 142.72 33.76L143.392 44.56L154.096 25.696L153.808 22.24V22.192C153.808 22.16 153.728 22.112 153.568 22.048C153.216 21.952 152.416 21.904 151.168 21.904C150.464 21.904 150.064 21.792 149.968 21.568C149.904 21.472 149.952 21.104 150.112 20.464C150.304 19.792 150.432 19.424 150.496 19.36L150.64 19.216H151.264C154.08 19.376 157.696 19.392 162.112 19.264C163.168 19.232 163.76 19.328 163.888 19.552C163.92 19.648 163.872 20.016 163.744 20.656C163.584 21.264 163.44 21.632 163.312 21.76L163.168 21.904H162.496C161.024 21.904 160 22.032 159.424 22.288L159.184 22.384V22.672C159.216 22.8 159.472 26.48 159.952 33.712C160.4 40.592 160.624 44.208 160.624 44.56C160.688 44.688 164.192 38.528 171.136 26.08C172.032 24.416 172.496 23.552 172.528 23.488C172.656 23.2 172.592 22.928 172.336 22.672C171.76 22.16 170.848 21.904 169.6 21.904C169.28 21.904 169.072 21.792 168.976 21.568C168.912 21.472 168.96 21.104 169.12 20.464C169.312 19.792 169.44 19.424 169.504 19.36L169.648 19.216H170.272L173.44 19.312C175.168 19.344 176.64 19.344 177.856 19.312L180.016 19.216C180.208 19.216 180.352 19.264 180.448 19.36C180.576 19.488 180.64 19.6 180.64 19.696L180.16 21.568V21.616C180.064 21.808 179.84 21.904 179.488 21.904C178.368 21.904 177.392 22.096 176.56 22.48C175.888 22.8 175.328 23.296 174.88 23.968C174.752 24.16 172.048 28.928 166.768 38.272C161.488 47.616 158.784 52.384 158.656 52.576C158.528 52.768 158.4 52.88 158.272 52.912C158.112 53.008 157.744 53.056 157.168 53.056C156.56 53.056 156.208 53.024 156.112 52.96L155.92 52.768C155.888 52.736 155.616 48.912 155.104 41.296C154.624 33.488 154.384 29.664 154.384 29.824C154.384 29.792 153.936 30.544 153.04 32.08C152.112 33.712 150.4 36.736 147.904 41.152C143.52 48.832 141.296 52.704 141.232 52.768C141.04 52.96 140.56 53.056 139.792 53.056L138.928 53.008L138.784 52.864C138.688 52.768 138.64 52.64 138.64 52.48C138.608 52.416 138.272 47.36 137.632 37.312C137.024 27.36 136.688 22.336 136.624 22.24C136.592 22.176 136.496 22.112 136.336 22.048C135.76 21.952 134.96 21.904 133.936 21.904C133.232 21.904 132.816 21.792 132.688 21.568L132.64 21.424L132.88 20.464C133.008 19.856 133.136 19.488 133.264 19.36Z" fill="#202229"/>
<path d="M172.562 41.932C172.618 41.8947 174.382 41.876 177.854 41.876C181.382 41.876 183.211 41.8853 183.342 41.904C184.816 42.0533 186.011 42.576 186.926 43.472C187.448 44.0133 187.794 44.6853 187.962 45.488C188.074 45.88 188.092 46.328 188.018 46.832C187.831 48.4187 186.944 49.8187 185.358 51.032C184.406 51.76 183.342 52.2733 182.166 52.572C181.494 52.7587 180.626 52.852 179.562 52.852C179.3 52.852 178.815 52.852 178.106 52.852H175.67L174.886 56.044C174.344 58.1907 174.092 59.2733 174.13 59.292C174.167 59.3293 174.232 59.348 174.326 59.348C174.624 59.404 175.166 59.432 175.95 59.432C176.379 59.432 176.612 59.4507 176.65 59.488C176.762 59.5253 176.818 59.6093 176.818 59.74L176.538 60.832C176.463 60.944 176.276 60.9907 175.978 60.972C175.884 60.972 175.67 60.972 175.334 60.972C173.784 60.8973 171.834 60.888 169.482 60.944C169.258 60.9627 169.08 60.972 168.95 60.972C168.296 60.9907 167.932 60.944 167.858 60.832C167.82 60.776 167.839 60.5613 167.914 60.188C168.007 59.7773 168.1 59.544 168.194 59.488C168.287 59.4507 168.623 59.432 169.202 59.432C170.247 59.4133 170.835 59.3387 170.966 59.208C171.022 59.1707 171.694 56.576 172.982 51.424C174.27 46.272 174.914 43.6773 174.914 43.64C174.914 43.6213 174.895 43.5933 174.858 43.556C174.783 43.5187 174.279 43.4813 173.346 43.444H172.394L172.282 43.332C172.207 43.2573 172.216 43.0333 172.31 42.66C172.422 42.212 172.506 41.9693 172.562 41.932ZM182.25 43.472H178.274C178.087 43.4907 177.966 43.5467 177.91 43.64L176.93 47.504C176.276 50.0613 175.95 51.3493 175.95 51.368C175.95 51.4053 176.678 51.424 178.134 51.424C179.739 51.4053 180.756 51.3493 181.186 51.256C182.194 51.0507 182.95 50.6307 183.454 49.996C183.864 49.4547 184.21 48.5867 184.49 47.392C184.695 46.5893 184.798 45.9733 184.798 45.544C184.798 45.0587 184.695 44.676 184.49 44.396C184.042 43.8547 183.295 43.5467 182.25 43.472Z" fill="#202229"/>
<line x1="107.5" y1="74.5" x2="215.5" y2="74.5" stroke="#202229" stroke-width="3" stroke-linecap="round" stroke-linejoin="round"/>
</svg>
