<svg width="209" height="84" viewBox="0 0 209 84" fill="none" xmlns="http://www.w3.org/2000/svg">
<path d="M5.18838 23.648L5.33238 23.504H19.5884C29.1884 23.504 34.0684 23.6 34.2284 23.792C34.2924 23.952 34.0204 25.872 33.4124 29.552C32.7724 33.328 32.4364 35.232 32.4044 35.264C32.2764 35.424 31.8924 35.504 31.2524 35.504C30.5804 35.504 30.2124 35.408 30.1484 35.216C30.0844 35.088 30.1004 34.688 30.1964 34.016C30.6764 31.104 30.7724 29.152 30.4844 28.16C30.1964 27.2 29.1884 26.576 27.4604 26.288C27.1724 26.256 26.2444 26.24 24.6764 26.24C22.8524 26.208 21.8604 26.288 21.7004 26.48C21.6364 26.544 20.5164 30.976 18.3404 39.776L15.0284 52.976L15.1724 53.072C15.5884 53.232 17.1724 53.312 19.9244 53.312H21.4124L21.6044 53.456C21.7004 53.584 21.7484 53.696 21.7484 53.792L21.3164 55.712C21.2204 55.904 20.9004 55.984 20.3564 55.952C20.1644 55.952 19.7004 55.952 18.9644 55.952C12.2764 55.824 7.06038 55.84 3.31638 56H2.59638L2.45238 55.856C2.29238 55.696 2.27638 55.328 2.40438 54.752C2.40438 54.688 2.42038 54.624 2.45238 54.56C2.61238 53.856 2.75638 53.472 2.88438 53.408C2.98038 53.344 3.54038 53.312 4.56438 53.312C6.70838 53.312 8.10038 53.264 8.74038 53.168C9.25238 53.136 9.60438 53.024 9.79638 52.832C9.86038 52.736 10.9804 48.304 13.1564 39.536C15.3644 30.736 16.4684 26.32 16.4684 26.288C16.3404 26.224 15.3484 26.192 13.4924 26.192C12.0204 26.224 11.1244 26.272 10.8044 26.336C8.94838 26.624 7.58838 27.296 6.72438 28.352C5.89238 29.376 4.99638 31.312 4.03638 34.16C3.78038 34.864 3.65237 35.232 3.65237 35.264C3.52438 35.424 3.14038 35.504 2.50038 35.504C1.86038 35.504 1.47638 35.392 1.34838 35.168L1.30038 35.024L3.12438 29.408C4.40438 25.664 5.09238 23.744 5.18838 23.648Z" fill="#202229"/>
<path d="M118.212 20.224L118.356 20.032H118.932C119.284 20.032 119.508 20.08 119.604 20.176L119.796 20.32V34.624V48.928L119.94 49.024C119.972 49.056 120.084 49.104 120.276 49.168C120.66 49.264 121.94 49.312 124.116 49.312H125.7V50.656V52H125.124L120.996 51.904C118.596 51.872 116.196 51.872 113.796 51.904C110.98 51.968 109.588 52 109.62 52H109.044V50.656V49.312H110.628C112.868 49.312 114.18 49.264 114.564 49.168C114.756 49.104 114.868 49.056 114.9 49.024L115.044 48.928V36.88C115.044 28.848 115.028 24.832 114.996 24.832C113.332 25.472 111.476 25.792 109.428 25.792H108.804V24.448V23.104H109.428C112.244 23.104 114.644 22.528 116.628 21.376C117.428 20.864 117.956 20.48 118.212 20.224ZM141.492 20.08C144.212 19.792 146.58 20.576 148.596 22.432C149.46 23.264 150.196 24.352 150.804 25.696C151.988 28.352 152.58 32 152.58 36.64C152.58 41.568 151.892 45.36 150.516 48.016C149.62 49.872 148.308 51.216 146.58 52.048C144.628 53.008 142.644 53.28 140.628 52.864C139.06 52.576 137.652 51.856 136.404 50.704C135.668 50.032 135.012 49.136 134.436 48.016C133.06 45.296 132.372 41.504 132.372 36.64C132.372 32.96 132.724 29.952 133.428 27.616C133.876 26.24 134.436 25.008 135.108 23.92C136.58 21.776 138.596 20.512 141.156 20.128C141.252 20.096 141.364 20.08 141.492 20.08ZM143.124 22.336C142.42 22.24 141.764 22.288 141.156 22.48C139.748 22.96 138.772 23.904 138.228 25.312C138.164 25.536 138.1 25.776 138.036 26.032C137.716 27.44 137.556 30.784 137.556 36.064C137.556 42.272 137.748 46.016 138.132 47.296C138.324 47.968 138.644 48.56 139.092 49.072C139.988 50.224 141.124 50.8 142.5 50.8C143.844 50.8 144.964 50.224 145.86 49.072C146.308 48.56 146.628 47.968 146.82 47.296C147.204 46.016 147.396 42.272 147.396 36.064C147.396 30.784 147.236 27.44 146.916 26.032C146.596 24.496 145.732 23.392 144.324 22.72C143.94 22.528 143.54 22.4 143.124 22.336ZM166.932 20.08C169.652 19.792 172.02 20.576 174.036 22.432C174.9 23.264 175.636 24.352 176.244 25.696C177.428 28.352 178.02 32 178.02 36.64C178.02 41.568 177.332 45.36 175.956 48.016C175.06 49.872 173.748 51.216 172.02 52.048C170.068 53.008 168.084 53.28 166.068 52.864C164.5 52.576 163.092 51.856 161.844 50.704C161.108 50.032 160.452 49.136 159.876 48.016C158.5 45.296 157.812 41.504 157.812 36.64C157.812 32.96 158.164 29.952 158.868 27.616C159.316 26.24 159.876 25.008 160.548 23.92C162.02 21.776 164.036 20.512 166.596 20.128C166.692 20.096 166.804 20.08 166.932 20.08ZM168.564 22.336C167.86 22.24 167.204 22.288 166.596 22.48C165.188 22.96 164.212 23.904 163.668 25.312C163.604 25.536 163.54 25.776 163.476 26.032C163.156 27.44 162.996 30.784 162.996 36.064C162.996 42.272 163.188 46.016 163.572 47.296C163.764 47.968 164.084 48.56 164.532 49.072C165.428 50.224 166.564 50.8 167.94 50.8C169.284 50.8 170.404 50.224 171.3 49.072C171.748 48.56 172.068 47.968 172.26 47.296C172.644 46.016 172.836 42.272 172.836 36.064C172.836 30.784 172.676 27.44 172.356 26.032C172.036 24.496 171.172 23.392 169.764 22.72C169.38 22.528 168.98 22.4 168.564 22.336Z" fill="#202229"/>
<path d="M66.482 34.685L66.606 34.623H76.464H86.353L86.477 34.685C86.539 34.7263 86.6217 34.7987 86.725 34.902C86.787 35.026 86.818 35.1397 86.818 35.243C86.818 35.3463 86.787 35.46 86.725 35.584C86.6217 35.6873 86.5494 35.7493 86.508 35.77L86.384 35.832L76.526 35.863H66.668L66.482 35.801C66.2754 35.677 66.172 35.491 66.172 35.243C66.172 35.0983 66.203 34.9847 66.265 34.902C66.3064 34.8193 66.3787 34.747 66.482 34.685ZM66.482 40.699L66.668 40.637H76.526H86.384L86.508 40.73C86.5494 40.7507 86.6217 40.8127 86.725 40.916C86.787 41.04 86.818 41.1537 86.818 41.257C86.818 41.3603 86.787 41.474 86.725 41.598C86.6217 41.7013 86.539 41.7737 86.477 41.815L86.353 41.877H76.464H66.606L66.482 41.815C66.3787 41.753 66.3064 41.6807 66.265 41.598C66.203 41.5153 66.172 41.4017 66.172 41.257C66.172 41.009 66.2754 40.823 66.482 40.699Z" fill="#202229"/>
<path d="M30.7622 45.802L30.8432 45.721H38.8622C44.2622 45.721 47.0072 45.775 47.0972 45.883C47.1332 45.973 46.9802 47.053 46.6382 49.123C46.2782 51.247 46.0892 52.318 46.0712 52.336C45.9992 52.426 45.7832 52.471 45.4232 52.471C45.0452 52.471 44.8382 52.417 44.8022 52.309C44.7662 52.237 44.7752 52.012 44.8292 51.634C45.0992 49.996 45.1532 48.898 44.9912 48.34C44.8292 47.8 44.2622 47.449 43.2902 47.287C43.1282 47.269 42.6062 47.26 41.7242 47.26C40.6982 47.242 40.1402 47.287 40.0502 47.395C40.0142 47.431 39.3842 49.924 38.1602 54.874L36.2972 62.299L36.3782 62.353C36.6122 62.443 37.5032 62.488 39.0512 62.488H39.8882L39.9962 62.569C40.0502 62.641 40.0772 62.704 40.0772 62.758L39.8342 63.838C39.7802 63.946 39.6002 63.991 39.2942 63.973C39.1862 63.973 38.9252 63.973 38.5112 63.973C34.7492 63.901 31.8152 63.91 29.7092 64H29.3042L29.2232 63.919C29.1332 63.829 29.1242 63.622 29.1962 63.298C29.1962 63.262 29.2052 63.226 29.2232 63.19C29.3132 62.794 29.3942 62.578 29.4662 62.542C29.5202 62.506 29.8352 62.488 30.4112 62.488C31.6172 62.488 32.4002 62.461 32.7602 62.407C33.0482 62.389 33.2462 62.326 33.3542 62.218C33.3902 62.164 34.0202 59.671 35.2442 54.739C36.4862 49.789 37.1072 47.305 37.1072 47.287C37.0352 47.251 36.4772 47.233 35.4332 47.233C34.6052 47.251 34.1012 47.278 33.9212 47.314C32.8772 47.476 32.1122 47.854 31.6262 48.448C31.1582 49.024 30.6542 50.113 30.1142 51.715C29.9702 52.111 29.8982 52.318 29.8982 52.336C29.8262 52.426 29.6102 52.471 29.2502 52.471C28.8902 52.471 28.6742 52.408 28.6022 52.282L28.5752 52.201L29.6012 49.042C30.3212 46.936 30.7082 45.856 30.7622 45.802Z" fill="#202229"/>
<path d="M196.038 32.222H197.488C197.759 32.28 198.029 32.4057 198.3 32.599C198.938 33.063 199.325 33.962 199.46 35.296L199.808 39.733C199.808 39.7523 200.446 39.3463 201.722 38.515C203.385 37.4323 204.525 36.5817 205.144 35.963C205.279 35.8083 205.357 35.673 205.376 35.557C205.434 35.1897 205.366 34.89 205.173 34.658C205.038 34.5227 204.873 34.455 204.68 34.455C204.525 34.455 204.4 34.3873 204.303 34.252C204.245 34.194 204.216 34.107 204.216 33.991C204.216 33.6043 204.525 33.1983 205.144 32.773C205.705 32.3863 206.285 32.193 206.884 32.193C207.232 32.193 207.561 32.2993 207.87 32.512C208.469 32.8987 208.682 33.5657 208.508 34.513C208.315 35.4797 207.068 36.775 204.767 38.399C203.8 39.1143 202.553 39.9553 201.026 40.922C200.311 41.3473 199.953 41.5987 199.953 41.676L200.388 47.389C200.465 48.2783 200.668 48.926 200.997 49.332C201.171 49.5447 201.451 49.68 201.838 49.738H202.041L202.215 49.564C202.466 49.3513 202.776 49.1483 203.143 48.955C203.51 48.781 203.858 48.6843 204.187 48.665C204.38 48.665 204.516 48.694 204.593 48.752C204.767 48.8487 204.854 48.984 204.854 49.158C204.815 49.6993 204.477 50.231 203.839 50.753C203.085 51.391 202.196 51.7873 201.171 51.942C200.63 52.0193 200.011 52.029 199.315 51.971C199.238 51.9517 199.18 51.942 199.141 51.942C198.832 51.8647 198.551 51.7197 198.3 51.507C197.836 51.1397 197.517 50.5017 197.343 49.593C197.227 49.0323 197.111 47.853 196.995 46.055C196.879 44.4117 196.821 43.5803 196.821 43.561C196.763 43.561 195.961 44.0637 194.414 45.069C192.152 46.5383 190.702 47.592 190.064 48.23C189.929 48.3847 189.851 48.52 189.832 48.636C189.774 49.0033 189.842 49.303 190.035 49.535C190.112 49.6123 190.199 49.6607 190.296 49.68C190.451 49.7187 190.547 49.738 190.586 49.738C190.76 49.738 190.886 49.825 190.963 49.999C191.137 50.289 190.963 50.6757 190.441 51.159C189.938 51.6037 189.397 51.8743 188.817 51.971C188.411 52.0097 188.102 52 187.889 51.942C187.657 51.884 187.396 51.7293 187.106 51.478C186.642 51.014 186.516 50.3857 186.729 49.593C186.768 49.4383 186.816 49.2933 186.874 49.158C187.338 48.2107 188.672 46.983 190.876 45.475C192.171 44.547 193.892 43.4257 196.038 42.111C196.463 41.8597 196.676 41.705 196.676 41.647L196.299 36.775C196.144 35.441 195.787 34.687 195.226 34.513C194.82 34.455 194.617 34.4453 194.617 34.484L194.385 34.687C193.805 35.209 193.186 35.4893 192.529 35.528C192.316 35.528 192.162 35.499 192.065 35.441C191.988 35.4023 191.92 35.325 191.862 35.209C191.843 35.1317 191.843 35.0253 191.862 34.89C192.036 34.2327 192.529 33.6333 193.341 33.092C194.056 32.5893 194.955 32.2993 196.038 32.222Z" fill="#202229"/>
</svg>
