<svg width="339" height="158" viewBox="0 0 339 158" fill="none" xmlns="http://www.w3.org/2000/svg">
<path d="M5.18838 60.648L5.33238 60.504H19.5884C29.1884 60.504 34.0684 60.6 34.2284 60.792C34.2924 60.952 34.0204 62.872 33.4124 66.552C32.7724 70.328 32.4364 72.232 32.4044 72.264C32.2764 72.424 31.8924 72.504 31.2524 72.504C30.5804 72.504 30.2124 72.408 30.1484 72.216C30.0844 72.088 30.1004 71.688 30.1964 71.016C30.6764 68.104 30.7724 66.152 30.4844 65.16C30.1964 64.2 29.1884 63.576 27.4604 63.288C27.1724 63.256 26.2444 63.24 24.6764 63.24C22.8524 63.208 21.8604 63.288 21.7004 63.48C21.6364 63.544 20.5164 67.976 18.3404 76.776L15.0284 89.976L15.1724 90.072C15.5884 90.232 17.1724 90.312 19.9244 90.312H21.4124L21.6044 90.456C21.7004 90.584 21.7484 90.696 21.7484 90.792L21.3164 92.712C21.2204 92.904 20.9004 92.984 20.3564 92.952C20.1644 92.952 19.7004 92.952 18.9644 92.952C12.2764 92.824 7.06038 92.84 3.31638 93H2.59638L2.45238 92.856C2.29238 92.696 2.27638 92.328 2.40438 91.752C2.40438 91.688 2.42038 91.624 2.45238 91.56C2.61238 90.856 2.75638 90.472 2.88438 90.408C2.98038 90.344 3.54038 90.312 4.56438 90.312C6.70838 90.312 8.10038 90.264 8.74038 90.168C9.25238 90.136 9.60438 90.024 9.79638 89.832C9.86038 89.736 10.9804 85.304 13.1564 76.536C15.3644 67.736 16.4684 63.32 16.4684 63.288C16.3404 63.224 15.3484 63.192 13.4924 63.192C12.0204 63.224 11.1244 63.272 10.8044 63.336C8.94838 63.624 7.58838 64.296 6.72438 65.352C5.89238 66.376 4.99638 68.312 4.03638 71.16C3.78038 71.864 3.65237 72.232 3.65237 72.264C3.52438 72.424 3.14038 72.504 2.50038 72.504C1.86038 72.504 1.47638 72.392 1.34838 72.168L1.30038 72.024L3.12438 66.408C4.40438 62.664 5.09238 60.744 5.18838 60.648Z" fill="#202229"/>
<path d="M64.0736 73.4L64.2336 73.32H76.9536H89.7136L89.8736 73.4C89.9536 73.4533 90.0603 73.5467 90.1936 73.68C90.2736 73.84 90.3136 73.9867 90.3136 74.12C90.3136 74.2533 90.2736 74.4 90.1936 74.56C90.0603 74.6933 89.9669 74.7733 89.9136 74.8L89.7536 74.88L77.0336 74.92H64.3136L64.0736 74.84C63.8069 74.68 63.6736 74.44 63.6736 74.12C63.6736 73.9333 63.7136 73.7867 63.7936 73.68C63.8469 73.5733 63.9403 73.48 64.0736 73.4ZM64.0736 81.16L64.3136 81.08H77.0336H89.7536L89.9136 81.2C89.9669 81.2267 90.0603 81.3067 90.1936 81.44C90.2736 81.6 90.3136 81.7467 90.3136 81.88C90.3136 82.0133 90.2736 82.16 90.1936 82.32C90.0603 82.4533 89.9536 82.5467 89.8736 82.6L89.7136 82.68H76.9536H64.2336L64.0736 82.6C63.9403 82.52 63.8469 82.4267 63.7936 82.32C63.7136 82.2133 63.6736 82.0667 63.6736 81.88C63.6736 81.56 63.8069 81.32 64.0736 81.16Z" fill="#202229"/>
<path d="M29.682 85.932C29.738 85.8947 29.8967 85.876 30.158 85.876C31.894 85.9507 33.826 85.9693 35.954 85.932L38.082 85.876H38.39L38.474 85.96C38.5487 86.0347 38.586 86.1093 38.586 86.184C38.586 86.4827 38.4927 86.8467 38.306 87.276C38.2687 87.388 37.998 87.444 37.494 87.444C37.4007 87.444 37.2887 87.444 37.158 87.444C36.0567 87.4627 35.4407 87.5373 35.31 87.668L35.198 87.752L33.294 95.48C32.006 100.595 31.362 103.18 31.362 103.236C31.3433 103.292 31.4273 103.329 31.614 103.348C31.8567 103.385 32.3233 103.413 33.014 103.432C33.7233 103.432 34.1153 103.497 34.19 103.628C34.2087 103.684 34.1807 103.899 34.106 104.272C34.0127 104.627 33.9287 104.841 33.854 104.916L33.77 105H33.322C31.1753 104.907 28.7393 104.897 26.014 104.972C25.3793 104.991 25.0247 104.935 24.95 104.804C24.9313 104.748 24.9593 104.533 25.034 104.16C25.146 103.787 25.2207 103.572 25.258 103.516L25.37 103.432H26.35C27.3393 103.413 27.9273 103.357 28.114 103.264C28.17 103.245 28.2353 103.199 28.31 103.124L32.174 87.64C32.174 87.6213 32.1553 87.5933 32.118 87.556C31.9687 87.5 31.446 87.4627 30.55 87.444C29.822 87.444 29.43 87.388 29.374 87.276C29.3367 87.22 29.3553 87.0053 29.43 86.632C29.5233 86.24 29.6073 86.0067 29.682 85.932Z" fill="#202229"/>
<path d="M154.606 93.312C154.702 93.248 157.726 93.216 163.678 93.216C169.726 93.216 172.862 93.232 173.086 93.264C175.614 93.52 177.662 94.416 179.23 95.952C180.126 96.88 180.718 98.032 181.006 99.408C181.198 100.08 181.23 100.848 181.102 101.712C180.782 104.432 179.262 106.832 176.542 108.912C174.91 110.16 173.086 111.04 171.07 111.552C169.918 111.872 168.43 112.032 166.606 112.032C166.158 112.032 165.326 112.032 164.11 112.032H159.934L158.59 117.504C157.662 121.184 157.23 123.04 157.294 123.072C157.358 123.136 157.47 123.168 157.63 123.168C158.142 123.264 159.07 123.312 160.414 123.312C161.15 123.312 161.55 123.344 161.614 123.408C161.806 123.472 161.902 123.616 161.902 123.84L161.422 125.712C161.294 125.904 160.974 125.984 160.462 125.952C160.302 125.952 159.934 125.952 159.358 125.952C156.702 125.824 153.358 125.808 149.326 125.904C148.942 125.936 148.638 125.952 148.414 125.952C147.294 125.984 146.67 125.904 146.542 125.712C146.478 125.616 146.51 125.248 146.638 124.608C146.798 123.904 146.958 123.504 147.118 123.408C147.278 123.344 147.854 123.312 148.846 123.312C150.638 123.28 151.646 123.152 151.87 122.928C151.966 122.864 153.118 118.416 155.326 109.584C157.534 100.752 158.638 96.304 158.638 96.24C158.638 96.208 158.606 96.16 158.542 96.096C158.414 96.032 157.55 95.968 155.95 95.904H154.318L154.126 95.712C153.998 95.584 154.014 95.2 154.174 94.56C154.366 93.792 154.51 93.376 154.606 93.312ZM171.214 95.952H164.398C164.078 95.984 163.87 96.08 163.774 96.24L162.094 102.864C160.974 107.248 160.414 109.456 160.414 109.488C160.414 109.552 161.662 109.584 164.158 109.584C166.91 109.552 168.654 109.456 169.39 109.296C171.118 108.944 172.414 108.224 173.278 107.136C173.982 106.208 174.574 104.72 175.054 102.672C175.406 101.296 175.582 100.24 175.582 99.504C175.582 98.672 175.406 98.016 175.054 97.536C174.286 96.608 173.006 96.08 171.214 95.952Z" fill="#202229"/>
<path d="M271.188 56.648L271.332 56.504H285.588C295.188 56.504 300.068 56.6 300.228 56.792C300.292 56.952 300.02 58.872 299.412 62.552C298.772 66.328 298.436 68.232 298.404 68.264C298.276 68.424 297.892 68.504 297.252 68.504C296.58 68.504 296.212 68.408 296.148 68.216C296.084 68.088 296.1 67.688 296.196 67.016C296.676 64.104 296.772 62.152 296.484 61.16C296.196 60.2 295.188 59.576 293.46 59.288C293.172 59.256 292.244 59.24 290.676 59.24C288.852 59.208 287.86 59.288 287.7 59.48C287.636 59.544 286.516 63.976 284.34 72.776L281.028 85.976L281.172 86.072C281.588 86.232 283.172 86.312 285.924 86.312H287.412L287.604 86.456C287.7 86.584 287.748 86.696 287.748 86.792L287.316 88.712C287.22 88.904 286.9 88.984 286.356 88.952C286.164 88.952 285.7 88.952 284.964 88.952C278.276 88.824 273.06 88.84 269.316 89H268.596L268.452 88.856C268.292 88.696 268.276 88.328 268.404 87.752C268.404 87.688 268.42 87.624 268.452 87.56C268.612 86.856 268.756 86.472 268.884 86.408C268.98 86.344 269.54 86.312 270.564 86.312C272.708 86.312 274.1 86.264 274.74 86.168C275.252 86.136 275.604 86.024 275.796 85.832C275.86 85.736 276.98 81.304 279.156 72.536C281.364 63.736 282.468 59.32 282.468 59.288C282.34 59.224 281.348 59.192 279.492 59.192C278.02 59.224 277.124 59.272 276.804 59.336C274.948 59.624 273.588 60.296 272.724 61.352C271.892 62.376 270.996 64.312 270.036 67.16C269.78 67.864 269.652 68.232 269.652 68.264C269.524 68.424 269.14 68.504 268.5 68.504C267.86 68.504 267.476 68.392 267.348 68.168L267.3 68.024L269.124 62.408C270.404 58.664 271.092 56.744 271.188 56.648Z" fill="#202229"/>
<path d="M255.875 46.732L256.165 46.5H257.209H258.195L258.369 46.674C258.485 46.79 258.543 46.906 258.543 47.022C258.543 47.1767 258.388 47.428 258.079 47.776C256.957 48.936 255.913 50.2507 254.947 51.72C252.897 54.8907 251.409 58.5447 250.481 62.682C248.973 69.0233 248.683 75.848 249.611 83.156C249.804 84.9733 250.094 86.6747 250.481 88.26C251.834 94.2533 254.367 99.2413 258.079 103.224C258.388 103.572 258.543 103.823 258.543 103.978C258.543 104.094 258.485 104.21 258.369 104.326L258.195 104.5H257.209H256.165L255.875 104.268C254.908 103.417 254.154 102.702 253.613 102.122C248.199 96.3993 245.145 88.6853 244.449 78.98C244.294 77.356 244.275 75.2487 244.391 72.658C244.429 72.3873 244.449 72.1747 244.449 72.02C245.145 62.3147 248.199 54.6007 253.613 48.878C254.154 48.298 254.908 47.5827 255.875 46.732Z" fill="#202229"/>
<path d="M319.709 46.558C319.786 46.5193 320.153 46.5 320.811 46.5H321.797L322.087 46.732C323.053 47.5827 323.807 48.298 324.349 48.878C329.762 54.6007 332.817 62.3147 333.513 72.02C333.667 73.644 333.687 75.7513 333.571 78.342C333.532 78.6127 333.513 78.8253 333.513 78.98C332.817 88.6853 329.762 96.3993 324.349 102.122C323.807 102.702 323.053 103.417 322.087 104.268L321.797 104.5H320.811C319.999 104.5 319.554 104.384 319.477 104.152C319.438 104.075 319.419 103.978 319.419 103.862C319.457 103.785 319.689 103.495 320.115 102.992C323.711 99.048 326.166 94.1373 327.481 88.26C328.989 81.9573 329.279 75.152 328.351 67.844C328.157 65.988 327.867 64.2673 327.481 62.682C326.166 56.8433 323.711 51.952 320.115 48.008C319.689 47.5053 319.457 47.2153 319.419 47.138C319.419 46.8673 319.515 46.674 319.709 46.558Z" fill="#202229"/>
<path d="M171.068 122.128L171.152 122.044H179.468C185.068 122.044 187.915 122.1 188.008 122.212C188.046 122.305 187.887 123.425 187.532 125.572C187.159 127.775 186.963 128.885 186.944 128.904C186.87 128.997 186.646 129.044 186.272 129.044C185.88 129.044 185.666 128.988 185.628 128.876C185.591 128.801 185.6 128.568 185.656 128.176C185.936 126.477 185.992 125.339 185.824 124.76C185.656 124.2 185.068 123.836 184.06 123.668C183.892 123.649 183.351 123.64 182.436 123.64C181.372 123.621 180.794 123.668 180.7 123.78C180.663 123.817 180.01 126.403 178.74 131.536L176.808 139.236L176.892 139.292C177.135 139.385 178.059 139.432 179.664 139.432H180.532L180.644 139.516C180.7 139.591 180.728 139.656 180.728 139.712L180.476 140.832C180.42 140.944 180.234 140.991 179.916 140.972C179.804 140.972 179.534 140.972 179.104 140.972C175.203 140.897 172.16 140.907 169.976 141H169.556L169.472 140.916C169.379 140.823 169.37 140.608 169.444 140.272C169.444 140.235 169.454 140.197 169.472 140.16C169.566 139.749 169.65 139.525 169.724 139.488C169.78 139.451 170.107 139.432 170.704 139.432C171.955 139.432 172.767 139.404 173.14 139.348C173.439 139.329 173.644 139.264 173.756 139.152C173.794 139.096 174.447 136.511 175.716 131.396C177.004 126.263 177.648 123.687 177.648 123.668C177.574 123.631 176.995 123.612 175.912 123.612C175.054 123.631 174.531 123.659 174.344 123.696C173.262 123.864 172.468 124.256 171.964 124.872C171.479 125.469 170.956 126.599 170.396 128.26C170.247 128.671 170.172 128.885 170.172 128.904C170.098 128.997 169.874 129.044 169.5 129.044C169.127 129.044 168.903 128.979 168.828 128.848L168.8 128.764L169.864 125.488C170.611 123.304 171.012 122.184 171.068 122.128Z" fill="#202229"/>
<path d="M295.562 81.932C295.618 81.8947 297.382 81.876 300.854 81.876C304.382 81.876 306.211 81.8853 306.342 81.904C307.816 82.0533 309.011 82.576 309.926 83.472C310.448 84.0133 310.794 84.6853 310.962 85.488C311.074 85.88 311.092 86.328 311.018 86.832C310.831 88.4187 309.944 89.8187 308.358 91.032C307.406 91.76 306.342 92.2733 305.166 92.572C304.494 92.7587 303.626 92.852 302.562 92.852C302.3 92.852 301.815 92.852 301.106 92.852H298.67L297.886 96.044C297.344 98.1907 297.092 99.2733 297.13 99.292C297.167 99.3293 297.232 99.348 297.326 99.348C297.624 99.404 298.166 99.432 298.95 99.432C299.379 99.432 299.612 99.4507 299.65 99.488C299.762 99.5253 299.818 99.6093 299.818 99.74L299.538 100.832C299.463 100.944 299.276 100.991 298.978 100.972C298.884 100.972 298.67 100.972 298.334 100.972C296.784 100.897 294.834 100.888 292.482 100.944C292.258 100.963 292.08 100.972 291.95 100.972C291.296 100.991 290.932 100.944 290.858 100.832C290.82 100.776 290.839 100.561 290.914 100.188C291.007 99.7773 291.1 99.544 291.194 99.488C291.287 99.4507 291.623 99.432 292.202 99.432C293.247 99.4133 293.835 99.3387 293.966 99.208C294.022 99.1707 294.694 96.576 295.982 91.424C297.27 86.272 297.914 83.6773 297.914 83.64C297.914 83.6213 297.895 83.5933 297.858 83.556C297.783 83.5187 297.279 83.4813 296.346 83.444H295.394L295.282 83.332C295.207 83.2573 295.216 83.0333 295.31 82.66C295.422 82.212 295.506 81.9693 295.562 81.932ZM305.25 83.472H301.274C301.087 83.4907 300.966 83.5467 300.91 83.64L299.93 87.504C299.276 90.0613 298.95 91.3493 298.95 91.368C298.95 91.4053 299.678 91.424 301.134 91.424C302.739 91.4053 303.756 91.3493 304.186 91.256C305.194 91.0507 305.95 90.6307 306.454 89.996C306.864 89.4547 307.21 88.5867 307.49 87.392C307.695 86.5893 307.798 85.9733 307.798 85.544C307.798 85.0587 307.695 84.676 307.49 84.396C307.042 83.8547 306.295 83.5467 305.25 83.472Z" fill="#202229"/>
<path d="M154.606 19.312C154.702 19.248 157.726 19.216 163.678 19.216C169.726 19.216 172.862 19.232 173.086 19.264C175.614 19.52 177.662 20.416 179.23 21.952C180.126 22.88 180.718 24.032 181.006 25.408C181.198 26.08 181.23 26.848 181.102 27.712C180.782 30.432 179.262 32.832 176.542 34.912C174.91 36.16 173.086 37.04 171.07 37.552C169.918 37.872 168.43 38.032 166.606 38.032C166.158 38.032 165.326 38.032 164.11 38.032H159.934L158.59 43.504C157.662 47.184 157.23 49.04 157.294 49.072C157.358 49.136 157.47 49.168 157.63 49.168C158.142 49.264 159.07 49.312 160.414 49.312C161.15 49.312 161.55 49.344 161.614 49.408C161.806 49.472 161.902 49.616 161.902 49.84L161.422 51.712C161.294 51.904 160.974 51.984 160.462 51.952C160.302 51.952 159.934 51.952 159.358 51.952C156.702 51.824 153.358 51.808 149.326 51.904C148.942 51.936 148.638 51.952 148.414 51.952C147.294 51.984 146.67 51.904 146.542 51.712C146.478 51.616 146.51 51.248 146.638 50.608C146.798 49.904 146.958 49.504 147.118 49.408C147.278 49.344 147.854 49.312 148.846 49.312C150.638 49.28 151.646 49.152 151.87 48.928C151.966 48.864 153.118 44.416 155.326 35.584C157.534 26.752 158.638 22.304 158.638 22.24C158.638 22.208 158.606 22.16 158.542 22.096C158.414 22.032 157.55 21.968 155.95 21.904H154.318L154.126 21.712C153.998 21.584 154.014 21.2 154.174 20.56C154.366 19.792 154.51 19.376 154.606 19.312ZM171.214 21.952H164.398C164.078 21.984 163.87 22.08 163.774 22.24L162.094 28.864C160.974 33.248 160.414 35.456 160.414 35.488C160.414 35.552 161.662 35.584 164.158 35.584C166.91 35.552 168.654 35.456 169.39 35.296C171.118 34.944 172.414 34.224 173.278 33.136C173.982 32.208 174.574 30.72 175.054 28.672C175.406 27.296 175.582 26.24 175.582 25.504C175.582 24.672 175.406 24.016 175.054 23.536C174.286 22.608 173.006 22.08 171.214 21.952Z" fill="#202229"/>
<path d="M177.682 43.932C177.738 43.8947 177.897 43.876 178.158 43.876C179.894 43.9507 181.826 43.9693 183.954 43.932L186.082 43.876H186.39L186.474 43.96C186.549 44.0347 186.586 44.1093 186.586 44.184C186.586 44.4827 186.493 44.8467 186.306 45.276C186.269 45.388 185.998 45.444 185.494 45.444C185.401 45.444 185.289 45.444 185.158 45.444C184.057 45.4627 183.441 45.5373 183.31 45.668L183.198 45.752L181.294 53.48C180.006 58.5947 179.362 61.18 179.362 61.236C179.343 61.292 179.427 61.3293 179.614 61.348C179.857 61.3853 180.323 61.4133 181.014 61.432C181.723 61.432 182.115 61.4973 182.19 61.628C182.209 61.684 182.181 61.8987 182.106 62.272C182.013 62.6267 181.929 62.8413 181.854 62.916L181.77 63H181.322C179.175 62.9067 176.739 62.8973 174.014 62.972C173.379 62.9907 173.025 62.9347 172.95 62.804C172.931 62.748 172.959 62.5333 173.034 62.16C173.146 61.7867 173.221 61.572 173.258 61.516L173.37 61.432H174.35C175.339 61.4133 175.927 61.3573 176.114 61.264C176.17 61.2453 176.235 61.1987 176.31 61.124L180.174 45.64C180.174 45.6213 180.155 45.5933 180.118 45.556C179.969 45.5 179.446 45.4627 178.55 45.444C177.822 45.444 177.43 45.388 177.374 45.276C177.337 45.22 177.355 45.0053 177.43 44.632C177.523 44.24 177.607 44.0067 177.682 43.932Z" fill="#202229"/>
<line x1="113.5" y1="76.5" x2="221.5" y2="76.5" stroke="#202229" stroke-width="3" stroke-linecap="round" stroke-linejoin="round"/>
</svg>
