<svg width="178" height="95" viewBox="0 0 178 95" fill="none" xmlns="http://www.w3.org/2000/svg">
<path d="M9.60556 31.312C9.70156 31.248 12.7256 31.216 18.6776 31.216C24.7256 31.216 27.8616 31.232 28.0856 31.264C30.6136 31.52 32.6616 32.416 34.2296 33.952C35.1256 34.88 35.7176 36.032 36.0056 37.408C36.1976 38.08 36.2296 38.848 36.1016 39.712C35.7816 42.432 34.2616 44.832 31.5416 46.912C29.9096 48.16 28.0856 49.04 26.0696 49.552C24.9176 49.872 23.4296 50.032 21.6056 50.032C21.1576 50.032 20.3256 50.032 19.1096 50.032H14.9336L13.5896 55.504C12.6616 59.184 12.2296 61.04 12.2936 61.072C12.3576 61.136 12.4696 61.168 12.6296 61.168C13.1416 61.264 14.0696 61.312 15.4136 61.312C16.1496 61.312 16.5496 61.344 16.6136 61.408C16.8056 61.472 16.9016 61.616 16.9016 61.84L16.4216 63.712C16.2936 63.904 15.9736 63.984 15.4616 63.952C15.3016 63.952 14.9336 63.952 14.3576 63.952C11.7016 63.824 8.35756 63.808 4.32556 63.904C3.94156 63.936 3.63756 63.952 3.41356 63.952C2.29356 63.984 1.66956 63.904 1.54156 63.712C1.47756 63.616 1.50956 63.248 1.63756 62.608C1.79756 61.904 1.95756 61.504 2.11756 61.408C2.27756 61.344 2.85356 61.312 3.84556 61.312C5.63756 61.28 6.64556 61.152 6.86956 60.928C6.96556 60.864 8.11756 56.416 10.3256 47.584C12.5336 38.752 13.6376 34.304 13.6376 34.24C13.6376 34.208 13.6056 34.16 13.5416 34.096C13.4136 34.032 12.5496 33.968 10.9496 33.904H9.31756L9.12556 33.712C8.99756 33.584 9.01356 33.2 9.17356 32.56C9.36556 31.792 9.50956 31.376 9.60556 31.312ZM26.2136 33.952H19.3976C19.0776 33.984 18.8696 34.08 18.7736 34.24L17.0936 40.864C15.9736 45.248 15.4136 47.456 15.4136 47.488C15.4136 47.552 16.6616 47.584 19.1576 47.584C21.9096 47.552 23.6536 47.456 24.3896 47.296C26.1176 46.944 27.4136 46.224 28.2776 45.136C28.9816 44.208 29.5736 42.72 30.0536 40.672C30.4056 39.296 30.5816 38.24 30.5816 37.504C30.5816 36.672 30.4056 36.016 30.0536 35.536C29.2856 34.608 28.0056 34.08 26.2136 33.952Z" fill="#202229"/>
<path d="M103.345 35.24C103.957 35.06 104.731 35.078 105.667 35.294C106.675 35.582 107.467 36.05 108.043 36.698C108.439 37.094 108.781 37.634 109.069 38.318L109.177 38.534L109.609 38.102C111.049 36.734 112.579 35.834 114.199 35.402C116.287 34.862 118.177 34.988 119.869 35.78C120.481 36.068 121.021 36.446 121.489 36.914C121.813 37.274 122.047 37.634 122.191 37.994L122.569 38.804V38.966L123.109 38.426C124.765 36.662 126.637 35.618 128.725 35.294C130.021 35.042 131.209 35.06 132.289 35.348C133.693 35.636 134.755 36.248 135.475 37.184C135.871 37.688 136.195 38.354 136.447 39.182C136.519 39.506 136.555 40.1 136.555 40.964C136.555 41.9 136.537 42.494 136.501 42.746C136.105 44.87 135.133 48.056 133.585 52.304C132.829 54.392 132.469 55.76 132.505 56.408C132.541 56.804 132.739 57.02 133.099 57.056C133.963 57.128 134.755 56.66 135.475 55.652C136.195 54.644 136.771 53.33 137.203 51.71C137.383 51.134 137.563 50.828 137.743 50.792C137.851 50.756 138.229 50.738 138.877 50.738C139.669 50.738 140.101 50.774 140.173 50.846C140.389 50.99 140.389 51.368 140.173 51.98C139.489 54.392 138.409 56.3 136.933 57.704C136.465 58.172 135.889 58.604 135.205 59C133.621 59.792 132.073 59.828 130.561 59.108C129.913 58.784 129.427 58.406 129.103 57.974C128.419 57.146 128.077 56.174 128.077 55.058C128.077 54.374 128.347 53.258 128.887 51.71C130.651 46.958 131.641 43.592 131.857 41.612C132.001 40.748 131.983 39.938 131.803 39.182C131.551 38.462 131.191 38.012 130.723 37.832C130.363 37.652 129.805 37.616 129.049 37.724C126.673 38.084 124.621 39.884 122.893 43.124L122.461 43.88L120.733 50.738C119.581 55.382 118.951 57.794 118.843 57.974C118.375 58.91 117.601 59.45 116.521 59.594C116.233 59.63 115.963 59.612 115.711 59.54C114.811 59.288 114.325 58.73 114.253 57.866C114.253 57.578 114.829 55.094 115.981 50.414C117.205 45.518 117.835 42.962 117.871 42.746C118.051 41.882 118.141 41.072 118.141 40.316C118.105 39.344 117.871 38.642 117.439 38.21C117.331 38.03 117.169 37.904 116.953 37.832C116.809 37.76 116.503 37.724 116.035 37.724C115.423 37.724 114.847 37.814 114.307 37.994C113.299 38.318 112.363 38.912 111.499 39.776C110.635 40.64 109.807 41.792 109.015 43.232L108.637 43.88L106.963 50.738C105.739 55.562 105.019 58.118 104.803 58.406C104.767 58.478 104.677 58.586 104.533 58.73C103.777 59.486 102.895 59.756 101.887 59.54C100.987 59.288 100.501 58.73 100.429 57.866C100.429 57.542 101.113 54.626 102.481 49.118C103.885 43.682 104.623 40.712 104.695 40.208C104.803 39.272 104.767 38.588 104.587 38.156C104.407 37.832 104.155 37.67 103.831 37.67C103.615 37.67 103.417 37.742 103.237 37.886C102.949 38.066 102.643 38.48 102.319 39.128C101.959 39.992 101.509 41.45 100.969 43.502C100.861 43.718 100.789 43.844 100.753 43.88C100.681 43.952 100.249 43.988 99.4566 43.988H98.2686L98.1066 43.826C97.9626 43.682 97.9806 43.25 98.1606 42.53C99.0966 39.146 100.285 36.95 101.725 35.942C102.409 35.51 102.949 35.276 103.345 35.24ZM174.32 35.132C175.544 34.88 176.462 35.438 177.074 36.806C177.182 37.058 177.272 37.31 177.344 37.562C177.416 37.886 177.452 38.48 177.452 39.344C177.452 40.784 177.11 42.89 176.426 45.662C175.418 49.586 174.446 52.502 173.51 54.41C171.818 57.866 169.568 59.594 166.76 59.594C164.024 59.594 162.008 58.766 160.712 57.11L160.604 56.948L160.388 57.164C159.848 57.776 159.398 58.208 159.038 58.46C158.354 58.928 157.688 59.252 157.04 59.432C155.384 59.828 153.638 59.666 151.802 58.946C151.586 58.838 151.388 58.748 151.208 58.676C150.488 58.316 149.912 57.92 149.48 57.488C148.364 56.336 147.806 54.734 147.806 52.682C147.806 50.918 148.562 47.948 150.074 43.772C150.182 43.484 150.308 43.16 150.452 42.8C151.1 40.892 151.46 39.668 151.532 39.128C151.712 38.3 151.622 37.832 151.262 37.724C150.83 37.58 150.326 37.67 149.75 37.994C148.994 38.462 148.4 39.2 147.968 40.208C147.608 40.856 147.212 41.954 146.78 43.502C146.672 43.718 146.6 43.844 146.564 43.88C146.492 43.952 146.06 43.988 145.268 43.988H144.08L143.918 43.826C143.81 43.718 143.756 43.574 143.756 43.394C143.828 42.818 144.134 41.918 144.674 40.694C145.322 39.326 146.132 38.12 147.104 37.076C147.824 36.392 148.544 35.888 149.264 35.564C149.84 35.312 150.542 35.186 151.37 35.186C152.27 35.186 153.044 35.348 153.692 35.672C154.16 35.924 154.52 36.194 154.772 36.482C155.06 36.734 155.33 37.094 155.582 37.562C155.906 38.246 156.05 38.966 156.014 39.722C156.014 40.442 155.78 41.432 155.312 42.692C155.276 42.872 155.204 43.088 155.096 43.34C153.548 47.66 152.702 50.666 152.558 52.358C152.378 54.878 153.098 56.372 154.718 56.84C155.618 57.164 156.392 57.128 157.04 56.732C157.472 56.516 157.922 56.066 158.39 55.382C159.182 54.23 159.56 53.456 159.524 53.06C159.452 52.808 159.506 52.034 159.686 50.738C159.758 50.27 160.316 48.002 161.36 43.934C162.404 39.578 163.052 37.238 163.304 36.914C163.34 36.842 163.43 36.734 163.574 36.59C164.366 35.798 165.266 35.528 166.274 35.78C167.138 36.068 167.606 36.626 167.678 37.454C167.678 37.706 167.174 39.884 166.166 43.988C165.122 48.164 164.564 50.45 164.492 50.846C164.096 52.898 164.15 54.464 164.654 55.544C164.942 56.156 165.338 56.552 165.842 56.732C166.562 57.092 167.3 57.146 168.056 56.894C169.064 56.534 169.946 55.562 170.702 53.978C171.494 52.358 172.286 49.946 173.078 46.742C173.474 45.158 173.636 44.024 173.564 43.34C173.42 42.08 172.934 41.036 172.106 40.208C171.818 39.92 171.62 39.65 171.512 39.398C171.404 39.182 171.35 38.858 171.35 38.426C171.35 37.994 171.386 37.67 171.458 37.454C171.854 36.554 172.448 35.906 173.24 35.51C173.528 35.33 173.888 35.204 174.32 35.132Z" fill="#202229"/>
<path d="M55.7199 45.13L55.8719 45.054H67.9559H80.0779L80.2299 45.13C80.3059 45.1807 80.4072 45.2693 80.5339 45.396C80.6099 45.548 80.6479 45.6873 80.6479 45.814C80.6479 45.9407 80.6099 46.08 80.5339 46.232C80.4072 46.3587 80.3186 46.4347 80.2679 46.46L80.1159 46.536L68.0319 46.574H55.9479L55.7199 46.498C55.4666 46.346 55.3399 46.118 55.3399 45.814C55.3399 45.6367 55.3779 45.4973 55.4539 45.396C55.5046 45.2947 55.5932 45.206 55.7199 45.13ZM55.7199 52.502L55.9479 52.426H68.0319H80.1159L80.2679 52.54C80.3186 52.5653 80.4072 52.6413 80.5339 52.768C80.6099 52.92 80.6479 53.0593 80.6479 53.186C80.6479 53.3127 80.6099 53.452 80.5339 53.604C80.4072 53.7307 80.3059 53.8193 80.2299 53.87L80.0779 53.946H67.9559H55.8719L55.7199 53.87C55.5932 53.794 55.5046 53.7053 55.4539 53.604C55.3779 53.5027 55.3399 53.3633 55.3399 53.186C55.3399 52.882 55.4666 52.654 55.7199 52.502Z" fill="#202229"/>
<path d="M29.682 58.932C29.738 58.8947 29.8967 58.876 30.158 58.876C31.894 58.9507 33.826 58.9693 35.954 58.932L38.082 58.876H38.39L38.474 58.96C38.5487 59.0347 38.586 59.1093 38.586 59.184C38.586 59.4827 38.4927 59.8467 38.306 60.276C38.2687 60.388 37.998 60.444 37.494 60.444C37.4007 60.444 37.2887 60.444 37.158 60.444C36.0567 60.4627 35.4407 60.5373 35.31 60.668L35.198 60.752L33.294 68.48C32.006 73.5947 31.362 76.18 31.362 76.236C31.3433 76.292 31.4273 76.3293 31.614 76.348C31.8567 76.3853 32.3233 76.4133 33.014 76.432C33.7233 76.432 34.1153 76.4973 34.19 76.628C34.2087 76.684 34.1807 76.8987 34.106 77.272C34.0127 77.6267 33.9287 77.8413 33.854 77.916L33.77 78H33.322C31.1753 77.9067 28.7393 77.8973 26.014 77.972C25.3793 77.9907 25.0247 77.9347 24.95 77.804C24.9313 77.748 24.9593 77.5333 25.034 77.16C25.146 76.7867 25.2207 76.572 25.258 76.516L25.37 76.432H26.35C27.3393 76.4133 27.9273 76.3573 28.114 76.264C28.17 76.2453 28.2353 76.1987 28.31 76.124L32.174 60.64C32.174 60.6213 32.1553 60.5933 32.118 60.556C31.9687 60.5 31.446 60.4627 30.55 60.444C29.822 60.444 29.43 60.388 29.374 60.276C29.3367 60.22 29.3553 60.0053 29.43 59.632C29.5233 59.24 29.6073 59.0067 29.682 58.932Z" fill="#202229"/>
</svg>
