<svg width="703" height="136" viewBox="0 0 703 136" fill="none" xmlns="http://www.w3.org/2000/svg">
<path d="M258.725 55.57C259.005 55.41 259.275 55.5 259.535 55.84L259.595 55.96V60.43V64.9H264.065H268.535L268.655 64.96C268.715 65 268.795 65.07 268.895 65.17C268.955 65.29 268.985 65.4 268.985 65.5C268.985 65.6 268.955 65.71 268.895 65.83C268.795 65.93 268.715 66 268.655 66.04L268.535 66.1H264.065H259.595V70.57V75.04L259.535 75.16C259.475 75.26 259.405 75.33 259.325 75.37C259.245 75.43 259.135 75.46 258.995 75.46C258.855 75.46 258.745 75.43 258.665 75.37C258.585 75.33 258.515 75.26 258.455 75.16L258.395 75.04V70.57V66.1H253.925H249.425L249.305 66.04C249.205 65.96 249.135 65.89 249.095 65.83C249.035 65.75 249.005 65.64 249.005 65.5C249.005 65.36 249.035 65.25 249.095 65.17C249.135 65.11 249.205 65.04 249.305 64.96L249.425 64.9H253.925H258.395V60.4L258.425 55.9L258.515 55.78L258.725 55.57Z" fill="#202229"/>
<path d="M189.766 20.725C190.42 20.655 191.096 20.6783 191.796 20.795C193.406 21.005 194.748 21.635 195.821 22.685C196.428 23.245 196.918 23.91 197.291 24.68C197.688 25.5667 197.921 26.5467 197.991 27.62C198.015 28.9733 197.641 30.2567 196.871 31.47C196.171 32.4967 194.935 33.745 193.161 35.215C192.321 35.9383 191.143 37.0233 189.626 38.47L187.596 40.395L189.976 40.43C193.383 40.43 195.203 40.3717 195.436 40.255C195.576 40.185 195.728 39.7767 195.891 39.03L196.241 37.07C196.241 37.0467 196.533 37.035 197.116 37.035H197.991V37.14C197.968 37.1867 197.805 38.3067 197.501 40.5C197.198 42.6933 197.035 43.825 197.011 43.895V44H190.501H184.026V43.16C184.026 42.5767 184.05 42.25 184.096 42.18L187.071 38.82C189.615 35.9733 191.166 34.1883 191.726 33.465C192.613 32.2283 193.231 31.1083 193.581 30.105C194.188 28.2383 194.071 26.5233 193.231 24.96C193.021 24.5867 192.776 24.2483 192.496 23.945C191.726 23.1517 190.77 22.72 189.626 22.65C188.693 22.6033 187.888 22.9183 187.211 23.595L186.581 24.4C186.581 24.4467 186.675 24.47 186.861 24.47C187.305 24.61 187.655 24.8083 187.911 25.065C188.075 25.1817 188.215 25.3567 188.331 25.59C188.495 25.9867 188.576 26.395 188.576 26.815C188.506 27.935 187.935 28.6233 186.861 28.88C186.768 28.9033 186.675 28.9267 186.581 28.95C186.395 28.9733 186.208 28.9733 186.021 28.95C185.041 28.81 184.411 28.3083 184.131 27.445C184.085 27.2583 184.061 26.9667 184.061 26.57C184.061 26.1267 184.085 25.8117 184.131 25.625C184.341 24.6917 184.738 23.84 185.321 23.07C185.625 22.6967 186.033 22.3233 186.546 21.95C187.06 21.5767 187.655 21.2733 188.331 21.04C188.751 20.9233 189.23 20.8183 189.766 20.725ZM204.666 29.888C205.05 29.8453 205.488 29.856 205.978 29.92C207.002 30.1547 207.728 30.6667 208.154 31.456L208.282 31.712L208.57 31.456C209.445 30.6667 210.405 30.1547 211.45 29.92C212.069 29.8347 212.645 29.8453 213.178 29.952C214.074 30.144 214.821 30.5387 215.418 31.136C215.952 31.6693 216.336 32.32 216.57 33.088C216.933 34.1547 216.986 35.3173 216.73 36.576C216.304 38.9013 215.205 40.832 213.434 42.368C213.114 42.6453 212.794 42.8907 212.474 43.104C211.813 43.5307 211.194 43.84 210.618 44.032C210.021 44.224 209.434 44.32 208.858 44.32C208.432 44.32 208.176 44.3093 208.09 44.288C207.322 44.1173 206.714 43.776 206.266 43.264C206.138 43.136 206.074 43.0827 206.074 43.104L204.794 48.224C204.794 48.288 204.826 48.32 204.89 48.32C205.082 48.384 205.594 48.416 206.426 48.416C206.832 48.416 207.056 48.4373 207.098 48.48C207.226 48.5227 207.29 48.6187 207.29 48.768L206.97 50.016C206.885 50.144 206.682 50.1973 206.362 50.176C206.277 50.176 206.117 50.176 205.882 50.176C203.173 50.0907 201.178 50.1013 199.898 50.208H199.642L199.546 50.112C199.461 50.0267 199.418 49.952 199.418 49.888L199.738 48.64V48.608C199.888 48.48 200.186 48.416 200.634 48.416C201.253 48.3947 201.616 48.3307 201.722 48.224C201.786 48.16 202.437 45.664 203.674 40.736C204.912 35.7867 205.552 33.1947 205.594 32.96C205.744 31.936 205.541 31.4027 204.986 31.36C204.922 31.36 204.858 31.36 204.794 31.36C204.154 31.488 203.589 32.5333 203.098 34.496C203.013 34.752 202.97 34.8907 202.97 34.912C202.736 35.04 202.48 35.104 202.202 35.104H201.594L201.498 35.008C201.413 34.9227 201.413 34.6987 201.498 34.336C201.904 32.8427 202.405 31.7227 203.002 30.976C203.472 30.4 204.026 30.0373 204.666 29.888ZM212.602 31.456C212.304 31.3493 211.952 31.3387 211.546 31.424C210.565 31.5947 209.605 32.2667 208.666 33.44L208.378 33.792L207.546 37.152C206.992 39.392 206.714 40.5227 206.714 40.544C206.714 40.7573 206.853 41.1413 207.13 41.696C207.365 42.1013 207.685 42.4107 208.09 42.624C209.05 43.1147 210.053 42.8693 211.098 41.888C211.802 41.248 212.389 40.1387 212.858 38.56C213.221 37.1947 213.477 36.1173 213.626 35.328C213.904 34.048 213.925 33.1093 213.69 32.512C213.477 31.9787 213.114 31.6267 212.602 31.456ZM227.192 29.888H228.504C230.061 30.1227 231.032 30.7733 231.416 31.84C231.629 32.48 231.576 33.1307 231.256 33.792C231.107 34.0693 230.968 34.272 230.84 34.4C230.264 34.9333 229.645 35.1467 228.984 35.04C228.664 34.9973 228.387 34.88 228.152 34.688C227.939 34.4747 227.811 34.2187 227.768 33.92C227.661 33.28 227.875 32.672 228.408 32.096C228.557 31.9467 228.717 31.8293 228.888 31.744C228.952 31.7013 228.995 31.6693 229.016 31.648C229.016 31.584 228.728 31.4987 228.152 31.392C226.744 31.2 225.475 31.68 224.344 32.832C223.597 33.6427 223 34.9013 222.552 36.608C222.531 36.7573 222.499 36.9067 222.456 37.056C222.029 38.7627 221.859 39.9573 221.944 40.64C222.093 41.7707 222.701 42.4747 223.768 42.752C224.216 42.88 224.877 42.88 225.752 42.752C227.096 42.56 228.237 42.1013 229.176 41.376C229.581 41.12 229.923 40.8107 230.2 40.448C230.435 40.1707 230.627 40.0853 230.776 40.192C230.84 40.2347 230.957 40.3413 231.128 40.512C231.427 40.832 231.565 41.0347 231.544 41.12C231.459 41.3547 231.085 41.7493 230.424 42.304C230.317 42.3893 230.221 42.464 230.136 42.528C228.621 43.68 226.797 44.288 224.664 44.352C223.256 44.3733 222.061 44.0533 221.08 43.392C220.589 43.0933 220.152 42.6667 219.768 42.112C219.363 41.5147 219.085 40.8533 218.936 40.128C218.531 38.144 219.011 36.1387 220.376 34.112C220.525 33.8773 220.685 33.6533 220.856 33.44C221.219 32.9707 221.731 32.4587 222.392 31.904C223.907 30.688 225.507 30.016 227.192 29.888Z" fill="#202229"/>
<path d="M190.398 80.13C190.794 80.0367 191.366 80.06 192.113 80.2C192.766 80.3167 193.478 80.655 194.248 81.215C196.231 82.7083 197.386 85.9517 197.713 90.945C197.829 92.695 197.806 94.7367 197.643 97.07C197.596 98.3067 197.514 99.2633 197.398 99.94V100.08L197.608 99.905C201.504 96.545 204.421 93.4183 206.358 90.525C207.244 89.1717 207.804 88.0633 208.038 87.2C208.154 86.78 208.154 86.3483 208.038 85.905C207.804 85.275 207.408 84.8083 206.848 84.505C206.451 84.3183 206.019 84.2017 205.553 84.155C205.366 84.155 205.226 84.1317 205.133 84.085C204.853 83.8983 204.748 83.5017 204.818 82.895C204.888 81.8917 205.238 81.075 205.868 80.445C206.008 80.3283 206.136 80.235 206.253 80.165C206.369 80.1183 206.568 80.095 206.848 80.095C207.548 80.1183 208.189 80.34 208.773 80.76C209.426 81.2033 209.893 81.8567 210.173 82.72C210.616 83.98 210.593 85.45 210.103 87.13C209.076 90.98 206.113 95.3317 201.213 100.185C198.926 102.425 196.768 104.28 194.738 105.75C194.458 105.937 194.248 106.03 194.108 106.03C193.991 106.03 193.886 105.983 193.793 105.89C193.513 105.61 193.443 105.05 193.583 104.21C193.886 102.483 194.096 100.558 194.213 98.435C194.446 95.2383 194.376 92.3217 194.003 89.685C193.583 86.675 192.708 84.6217 191.378 83.525C190.748 83.0117 189.943 82.72 188.963 82.65C188.776 82.65 188.601 82.6033 188.438 82.51C188.134 82.3467 188.076 82.0433 188.263 81.6C188.449 81.2733 188.694 80.9933 188.998 80.76C189.464 80.41 189.931 80.2 190.398 80.13ZM219.807 88.25C219.947 88.18 220.087 88.145 220.227 88.145C220.391 88.145 220.507 88.18 220.577 88.25L220.717 88.355V95.04C220.717 99.4967 220.741 101.737 220.787 101.76C220.904 101.923 221.767 102.017 223.377 102.04C224.381 102.04 224.929 102.122 225.022 102.285C225.092 102.448 225.104 102.868 225.057 103.545C225.057 103.662 225.046 103.732 225.022 103.755C224.952 103.895 224.742 103.965 224.392 103.965C224.229 103.965 223.914 103.965 223.447 103.965C221.441 103.872 218.769 103.86 215.432 103.93C215.106 103.953 214.837 103.965 214.627 103.965C213.694 103.988 213.181 103.93 213.087 103.79C212.971 103.65 212.947 103.218 213.017 102.495C213.041 102.355 213.064 102.273 213.087 102.25C213.134 102.11 213.356 102.04 213.752 102.04C213.916 102.04 214.242 102.04 214.732 102.04C216.296 102.017 217.159 101.923 217.322 101.76C217.369 101.737 217.392 99.975 217.392 96.475V91.26H217.287C216.144 91.47 215.059 91.5867 214.032 91.61H213.087L212.982 91.505L212.842 91.365V90.63V89.895L212.947 89.79L213.052 89.65H213.962C216.552 89.58 218.501 89.1133 219.807 88.25Z" fill="#202229"/>
<line x1="178" y1="66" x2="236" y2="66" stroke="#202229" stroke-width="2" stroke-linecap="round" stroke-linejoin="round"/>
<path d="M299.22 31.14L299.31 31.02H299.67C299.89 31.02 300.03 31.05 300.09 31.11L300.21 31.2V40.14V49.08L300.3 49.14C300.32 49.16 300.39 49.19 300.51 49.23C300.75 49.29 301.55 49.32 302.91 49.32H303.9V50.16V51H303.54L300.96 50.94C299.46 50.92 297.96 50.92 296.46 50.94C294.7 50.98 293.83 51 293.85 51H293.49V50.16V49.32H294.48C295.88 49.32 296.7 49.29 296.94 49.23C297.06 49.19 297.13 49.16 297.15 49.14L297.24 49.08V41.55C297.24 36.53 297.23 34.02 297.21 34.02C296.17 34.42 295.01 34.62 293.73 34.62H293.34V33.78V32.94H293.73C295.49 32.94 296.99 32.58 298.23 31.86C298.73 31.54 299.06 31.3 299.22 31.14Z" fill="#202229"/>
<path d="M297.42 79.05C297.98 78.99 298.56 79.01 299.16 79.11C300.54 79.29 301.69 79.83 302.61 80.73C303.13 81.21 303.55 81.78 303.87 82.44C304.21 83.2 304.41 84.04 304.47 84.96C304.49 86.12 304.17 87.22 303.51 88.26C302.91 89.14 301.85 90.21 300.33 91.47C299.61 92.09 298.6 93.02 297.3 94.26L295.56 95.91L297.6 95.94C300.52 95.94 302.08 95.89 302.28 95.79C302.4 95.73 302.53 95.38 302.67 94.74L302.97 93.06C302.97 93.04 303.22 93.03 303.72 93.03H304.47V93.12C304.45 93.16 304.31 94.12 304.05 96C303.79 97.88 303.65 98.85 303.63 98.91V99H298.05H292.5V98.28C292.5 97.78 292.52 97.5 292.56 97.44L295.11 94.56C297.29 92.12 298.62 90.59 299.1 89.97C299.86 88.91 300.39 87.95 300.69 87.09C301.21 85.49 301.11 84.02 300.39 82.68C300.21 82.36 300 82.07 299.76 81.81C299.1 81.13 298.28 80.76 297.3 80.7C296.5 80.66 295.81 80.93 295.23 81.51L294.69 82.2C294.69 82.24 294.77 82.26 294.93 82.26C295.31 82.38 295.61 82.55 295.83 82.77C295.97 82.87 296.09 83.02 296.19 83.22C296.33 83.56 296.4 83.91 296.4 84.27C296.34 85.23 295.85 85.82 294.93 86.04C294.85 86.06 294.77 86.08 294.69 86.1C294.53 86.12 294.37 86.12 294.21 86.1C293.37 85.98 292.83 85.55 292.59 84.81C292.55 84.65 292.53 84.4 292.53 84.06C292.53 83.68 292.55 83.41 292.59 83.25C292.77 82.45 293.11 81.72 293.61 81.06C293.87 80.74 294.22 80.42 294.66 80.1C295.1 79.78 295.61 79.52 296.19 79.32C296.55 79.22 296.96 79.13 297.42 79.05Z" fill="#202229"/>
<line x1="287" y1="66" x2="310" y2="66" stroke="#202229" stroke-width="2" stroke-linecap="round" stroke-linejoin="round"/>
<path d="M533.179 33.36C534.739 33.24 535.509 33.18 535.489 33.18C535.669 33.18 535.789 33.25 535.849 33.39C535.889 33.49 535.549 34.95 534.829 37.77L533.749 42.03L533.839 41.97C534.259 41.65 534.639 41.41 534.979 41.25C535.599 40.95 536.289 40.78 537.049 40.74C538.149 40.7 539.029 40.95 539.689 41.49C540.129 41.83 540.439 42.33 540.619 42.99C540.659 43.17 540.679 43.5 540.679 43.98C540.679 44.5 540.669 44.83 540.649 44.97C540.429 46.11 539.889 47.88 539.029 50.28C538.709 51.14 538.519 51.73 538.459 52.05C538.399 52.55 538.459 52.83 538.639 52.89C538.879 52.97 539.159 52.92 539.479 52.74C540.099 52.36 540.619 51.43 541.039 49.95C541.139 49.63 541.239 49.46 541.339 49.44C541.399 49.42 541.609 49.41 541.969 49.41C542.409 49.41 542.649 49.43 542.689 49.47C542.809 49.55 542.809 49.76 542.689 50.1C542.469 50.88 542.139 51.61 541.699 52.29C540.899 53.49 539.989 54.16 538.969 54.3C538.609 54.38 538.239 54.36 537.859 54.24C537.279 54.12 536.839 53.85 536.539 53.43C536.159 52.97 535.969 52.43 535.969 51.81C535.969 51.43 536.119 50.81 536.419 49.95C537.399 47.31 537.949 45.44 538.069 44.34C538.149 43.86 538.139 43.41 538.039 42.99C537.899 42.59 537.699 42.34 537.439 42.24C537.239 42.14 536.929 42.12 536.509 42.18C535.189 42.38 534.049 43.38 533.089 45.18L532.879 45.57L531.919 49.38C531.279 51.94 530.919 53.29 530.839 53.43C530.499 53.97 530.029 54.27 529.429 54.33C528.849 54.33 528.489 54.09 528.349 53.61C528.309 53.51 528.289 53.42 528.289 53.34C528.289 53.2 528.999 50.28 530.419 44.58C531.899 38.66 532.599 35.61 532.519 35.43C532.379 35.29 531.949 35.21 531.229 35.19C530.749 35.19 530.469 35.12 530.389 34.98L530.359 34.89L530.509 34.29C530.589 33.91 530.669 33.68 530.749 33.6C530.809 33.54 530.869 33.51 530.929 33.51L533.179 33.36Z" fill="#202229"/>
<path d="M590.002 33.36C591.562 33.24 592.332 33.18 592.312 33.18C592.492 33.18 592.612 33.25 592.672 33.39C592.692 33.47 591.972 36.45 590.512 42.33L588.232 51.45C588.192 51.91 588.192 52.28 588.232 52.56C588.272 52.66 588.332 52.74 588.412 52.8C588.472 52.86 588.562 52.89 588.682 52.89C588.822 52.89 588.932 52.87 589.012 52.83C589.392 52.55 589.782 51.64 590.182 50.1C590.282 49.72 590.362 49.51 590.422 49.47C590.462 49.43 590.702 49.41 591.142 49.41C591.582 49.41 591.832 49.43 591.892 49.47C591.932 49.51 591.952 49.59 591.952 49.71C591.952 49.83 591.902 50.07 591.802 50.43C591.042 53.01 589.942 54.31 588.502 54.33C588.362 54.33 588.222 54.32 588.082 54.3C586.842 54.14 586.052 53.49 585.712 52.35C585.592 51.91 585.572 51.44 585.652 50.94L587.542 43.35C588.822 38.23 589.422 35.59 589.342 35.43C589.202 35.29 588.772 35.21 588.052 35.19C587.572 35.19 587.292 35.12 587.212 34.98L587.182 34.89L587.332 34.29C587.412 33.91 587.492 33.68 587.572 33.6C587.632 33.54 587.692 33.51 587.752 33.51L590.002 33.36Z" fill="#202229"/>
<path d="M551.34 39.623C551.622 39.623 551.855 39.7188 552.037 39.9102C552.219 40.0924 552.311 40.3294 552.311 40.6211C552.311 41.0221 552.169 41.3776 551.887 41.6875C551.613 41.9883 551.303 42.1387 550.957 42.1387C550.684 42.1387 550.456 42.043 550.273 41.8516C550.091 41.6602 550 41.4095 550 41.0996C550 40.6895 550.132 40.3431 550.396 40.0605C550.661 39.7689 550.975 39.623 551.34 39.623ZM545.953 48.6738L545.352 48.209C546.263 47.2064 547.092 46.4954 547.84 46.0762C548.596 45.6478 549.239 45.4336 549.768 45.4336C550.059 45.4336 550.283 45.4974 550.438 45.625C550.592 45.7526 550.67 45.9258 550.67 46.1445C550.67 46.4089 550.374 47.5299 549.781 49.5078C548.815 52.7435 548.332 54.694 548.332 55.3594C548.332 55.487 548.364 55.5964 548.428 55.6875C548.492 55.7695 548.56 55.8105 548.633 55.8105C548.924 55.8105 549.672 55.2454 550.875 54.1152L551.408 54.6348C550.16 55.8105 549.248 56.5625 548.674 56.8906C548.1 57.2188 547.63 57.3828 547.266 57.3828C546.947 57.3828 546.691 57.2826 546.5 57.082C546.318 56.8815 546.227 56.6035 546.227 56.248C546.227 55.1087 546.91 52.3242 548.277 47.8945C548.341 47.6849 548.373 47.498 548.373 47.334C548.373 47.1517 548.291 47.0605 548.127 47.0605C547.945 47.0605 547.735 47.1335 547.498 47.2793C547.27 47.4251 546.755 47.89 545.953 48.6738Z" fill="#202229"/>
<path d="M601.34 39.623C601.622 39.623 601.855 39.7188 602.037 39.9102C602.219 40.0924 602.311 40.3294 602.311 40.6211C602.311 41.0221 602.169 41.3776 601.887 41.6875C601.613 41.9883 601.303 42.1387 600.957 42.1387C600.684 42.1387 600.456 42.043 600.273 41.8516C600.091 41.6602 600 41.4095 600 41.0996C600 40.6895 600.132 40.3431 600.396 40.0605C600.661 39.7689 600.975 39.623 601.34 39.623ZM595.953 48.6738L595.352 48.209C596.263 47.2064 597.092 46.4954 597.84 46.0762C598.596 45.6478 599.239 45.4336 599.768 45.4336C600.059 45.4336 600.283 45.4974 600.438 45.625C600.592 45.7526 600.67 45.9258 600.67 46.1445C600.67 46.4089 600.374 47.5299 599.781 49.5078C598.815 52.7435 598.332 54.694 598.332 55.3594C598.332 55.487 598.364 55.5964 598.428 55.6875C598.492 55.7695 598.56 55.8105 598.633 55.8105C598.924 55.8105 599.672 55.2454 600.875 54.1152L601.408 54.6348C600.16 55.8105 599.248 56.5625 598.674 56.8906C598.1 57.2188 597.63 57.3828 597.266 57.3828C596.947 57.3828 596.691 57.2826 596.5 57.082C596.318 56.8815 596.227 56.6035 596.227 56.248C596.227 55.1087 596.91 52.3242 598.277 47.8945C598.341 47.6849 598.373 47.498 598.373 47.334C598.373 47.1517 598.291 47.0605 598.127 47.0605C597.945 47.0605 597.735 47.1335 597.498 47.2793C597.27 47.4251 596.755 47.89 595.953 48.6738Z" fill="#202229"/>
<line x1="562.9" y1="48.1" x2="575.1" y2="48.1" stroke="#202229" stroke-width="1.8" stroke-linecap="round" stroke-linejoin="round"/>
<path d="M448.929 48.398L449.114 48.25H449.78H450.409L450.52 48.361C450.594 48.435 450.631 48.509 450.631 48.583C450.631 48.6817 450.532 48.842 450.335 49.064C449.619 49.804 448.953 50.6427 448.337 51.58C447.029 53.6027 446.08 55.9337 445.488 58.573C444.526 62.6183 444.341 66.972 444.933 71.634C445.056 72.7933 445.241 73.8787 445.488 74.89C446.351 78.7133 447.967 81.8953 450.335 84.436C450.532 84.658 450.631 84.8183 450.631 84.917C450.631 84.991 450.594 85.065 450.52 85.139L450.409 85.25H449.78H449.114L448.929 85.102C448.312 84.5593 447.831 84.103 447.486 83.733C444.032 80.0823 442.084 75.1613 441.64 68.97C441.541 67.934 441.529 66.5897 441.603 64.937C441.627 64.7643 441.64 64.6287 441.64 64.53C442.084 58.3387 444.032 53.4177 447.486 49.767C447.831 49.397 448.312 48.9407 448.929 48.398Z" fill="#202229"/>
<path d="M675.284 48.287C675.333 48.2623 675.568 48.25 675.987 48.25H676.616L676.801 48.398C677.418 48.9407 677.899 49.397 678.244 49.767C681.697 53.4177 683.646 58.3387 684.09 64.53C684.189 65.566 684.201 66.9103 684.127 68.563C684.102 68.7357 684.09 68.8713 684.09 68.97C683.646 75.1613 681.697 80.0823 678.244 83.733C677.899 84.103 677.418 84.5593 676.801 85.102L676.616 85.25H675.987C675.469 85.25 675.185 85.176 675.136 85.028C675.111 84.9787 675.099 84.917 675.099 84.843C675.124 84.7937 675.272 84.6087 675.543 84.288C677.837 81.772 679.403 78.6393 680.242 74.89C681.204 70.8693 681.389 66.528 680.797 61.866C680.674 60.682 680.489 59.5843 680.242 58.573C679.403 54.8483 677.837 51.728 675.543 49.212C675.272 48.8913 675.124 48.7063 675.099 48.657C675.099 48.4843 675.161 48.361 675.284 48.287ZM690.775 48.287C690.824 48.2623 691.059 48.25 691.478 48.25H692.107L692.292 48.398C692.909 48.9407 693.39 49.397 693.735 49.767C697.188 53.4177 699.137 58.3387 699.581 64.53C699.68 65.566 699.692 66.9103 699.618 68.563C699.593 68.7357 699.581 68.8713 699.581 68.97C699.137 75.1613 697.188 80.0823 693.735 83.733C693.39 84.103 692.909 84.5593 692.292 85.102L692.107 85.25H691.478C690.96 85.25 690.676 85.176 690.627 85.028C690.602 84.9787 690.59 84.917 690.59 84.843C690.615 84.7937 690.763 84.6087 691.034 84.288C693.328 81.772 694.894 78.6393 695.733 74.89C696.695 70.8693 696.88 66.528 696.288 61.866C696.165 60.682 695.98 59.5843 695.733 58.573C694.894 54.8483 693.328 51.728 691.034 49.212C690.763 48.8913 690.615 48.7063 690.59 48.657C690.59 48.4843 690.652 48.361 690.775 48.287Z" fill="#202229"/>
<line x1="454" y1="67" x2="671" y2="67" stroke="#202229" stroke-width="2" stroke-linecap="round" stroke-linejoin="round"/>
<path d="M479.277 81.62L479.457 81.5H479.967H480.477L480.567 81.59C480.627 81.65 480.657 81.72 480.657 81.8C480.657 81.86 480.557 81.98 480.357 82.16C479.817 82.68 479.347 83.15 478.947 83.57C476.267 86.55 474.247 90.51 472.887 95.45C472.207 97.87 471.767 100.14 471.567 102.26C471.467 103.44 471.457 104.46 471.537 105.32C471.677 107.46 472.207 109.31 473.127 110.87C473.267 111.11 473.317 111.27 473.277 111.35C473.197 111.45 472.957 111.5 472.557 111.5H472.077L471.927 111.38C471.607 111.04 471.217 110.46 470.757 109.64C470.077 108.38 469.637 106.95 469.437 105.35C469.077 102.73 469.337 99.69 470.217 96.23C471.497 91.39 473.517 87.44 476.277 84.38C477.197 83.34 478.157 82.45 479.157 81.71C479.197 81.67 479.237 81.64 479.277 81.62ZM484.982 83.6L485.072 83.51H488.162C490.282 83.51 491.382 83.57 491.462 83.69C491.482 83.71 491.722 86.39 492.182 91.73C492.622 97.09 492.842 99.75 492.842 99.71L497.432 91.85C500.512 86.57 502.072 83.9 502.112 83.84C502.192 83.72 502.282 83.64 502.382 83.6L502.532 83.51H505.562H508.562L508.682 83.6C508.742 83.68 508.772 83.75 508.772 83.81L508.502 85.01C508.242 85.13 507.862 85.19 507.362 85.19C506.502 85.21 505.982 85.25 505.802 85.31L505.652 85.4L505.622 85.43C505.562 85.49 504.842 88.29 503.462 93.83C502.082 99.39 501.402 102.17 501.422 102.17C501.522 102.27 502.122 102.32 503.222 102.32C503.702 102.32 503.972 102.39 504.032 102.53C504.072 102.59 504.042 102.82 503.942 103.22C503.862 103.6 503.782 103.83 503.702 103.91L503.612 104H503.162C501.142 103.9 498.852 103.89 496.292 103.97C495.692 103.99 495.352 103.93 495.272 103.79C495.232 103.73 495.262 103.5 495.362 103.1C495.462 102.72 495.532 102.49 495.572 102.41L495.692 102.32H496.622C497.562 102.3 498.092 102.26 498.212 102.2C498.312 102.14 498.392 102.01 498.452 101.81C498.592 101.43 499.262 98.83 500.462 94.01C501.782 88.65 502.442 85.99 502.442 86.03C502.422 86.03 500.702 88.97 497.282 94.85C493.822 100.77 492.082 103.74 492.062 103.76L491.852 103.94C491.772 103.98 491.542 104 491.162 104C490.682 104 490.422 103.94 490.382 103.82C490.342 103.72 490.082 100.78 489.602 95L488.882 86.24L486.992 93.8C485.732 98.78 485.102 101.34 485.102 101.48C485.102 101.6 485.112 101.67 485.132 101.69C485.292 102.11 485.932 102.32 487.052 102.32C487.332 102.32 487.492 102.39 487.532 102.53C487.572 102.59 487.542 102.82 487.442 103.22C487.362 103.6 487.282 103.83 487.202 103.91L487.112 104H486.722C484.902 103.9 482.932 103.89 480.812 103.97C480.312 103.99 480.022 103.93 479.942 103.79C479.902 103.73 479.932 103.5 480.032 103.1C480.132 102.7 480.212 102.47 480.272 102.41C480.332 102.35 480.462 102.32 480.662 102.32C482.082 102.32 482.952 101.99 483.272 101.33L487.262 85.4C487.262 85.34 487.242 85.31 487.202 85.31C487.082 85.27 486.612 85.23 485.792 85.19C485.092 85.19 484.702 85.12 484.622 84.98C484.602 84.92 484.632 84.69 484.712 84.29C484.812 83.91 484.902 83.68 484.982 83.6ZM514.486 84.38C515.206 84.2 515.726 84.38 516.046 84.92C516.146 85.1 516.206 85.3 516.226 85.52C516.226 85.82 516.156 86.11 516.016 86.39C515.556 87.03 514.976 87.4 514.276 87.5C514.056 87.5 513.826 87.44 513.586 87.32C513.386 87.22 513.226 87.04 513.106 86.78C513.046 86.7 513.006 86.54 512.986 86.3C512.986 85.98 513.046 85.7 513.166 85.46C513.446 84.9 513.886 84.54 514.486 84.38ZM511.906 90.8C512.046 90.76 512.266 90.74 512.566 90.74C513.026 90.76 513.426 90.86 513.766 91.04C514.026 91.18 514.226 91.33 514.366 91.49C514.526 91.63 514.676 91.83 514.816 92.09C514.996 92.47 515.076 92.87 515.056 93.29C515.056 93.63 515.036 93.87 514.996 94.01C514.976 94.05 514.526 95.3 513.646 97.76C512.806 100 512.356 101.24 512.296 101.48C512.096 102.14 512.066 102.58 512.206 102.8C512.306 102.92 512.516 102.94 512.836 102.86C513.616 102.68 514.246 101.71 514.726 99.95C514.826 99.63 514.926 99.46 515.026 99.44C515.086 99.42 515.296 99.41 515.656 99.41C516.096 99.41 516.336 99.43 516.376 99.47C516.496 99.55 516.496 99.76 516.376 100.1C516.156 100.88 515.826 101.61 515.386 102.29C514.586 103.49 513.676 104.16 512.656 104.3C512.296 104.38 511.926 104.36 511.546 104.24C511.146 104.12 510.816 103.97 510.556 103.79C510.116 103.43 509.826 102.92 509.686 102.26C509.606 101.88 509.626 101.48 509.746 101.06C509.786 100.9 510.226 99.67 511.066 97.37C511.786 95.45 512.246 94.19 512.446 93.59C512.646 92.97 512.676 92.54 512.536 92.3C512.476 92.14 512.266 92.11 511.906 92.21C511.306 92.35 510.776 92.98 510.316 94.1C510.056 95 509.926 95.43 509.926 95.39C509.866 95.51 509.826 95.58 509.806 95.6C509.766 95.64 509.526 95.66 509.086 95.66H508.426L508.336 95.57C508.276 95.51 508.246 95.43 508.246 95.33C508.286 95.01 508.456 94.51 508.756 93.83C508.996 93.31 509.246 92.88 509.506 92.54C509.766 92.18 510.096 91.82 510.496 91.46C510.936 91.12 511.406 90.9 511.906 90.8ZM521.345 90.8C521.685 90.7 522.115 90.71 522.635 90.83C523.115 90.95 523.525 91.17 523.865 91.49C524.165 91.79 524.365 92.08 524.465 92.36L524.585 92.6L524.825 92.39C525.685 91.53 526.665 91.01 527.765 90.83C528.485 90.69 529.145 90.7 529.745 90.86C530.525 91.02 531.115 91.36 531.515 91.88C531.735 92.16 531.915 92.53 532.055 92.99C532.095 93.17 532.115 93.5 532.115 93.98C532.115 94.5 532.105 94.83 532.085 94.97C531.865 96.11 531.325 97.88 530.465 100.28C530.145 101.14 529.955 101.73 529.895 102.05C529.835 102.55 529.895 102.83 530.075 102.89C530.315 102.97 530.595 102.92 530.915 102.74C531.535 102.36 532.055 101.43 532.475 99.95C532.575 99.63 532.675 99.46 532.775 99.44C532.835 99.42 533.045 99.41 533.405 99.41C533.845 99.41 534.085 99.43 534.125 99.47C534.245 99.55 534.245 99.76 534.125 100.1C533.905 100.88 533.575 101.61 533.135 102.29C532.335 103.49 531.425 104.16 530.405 104.3C530.045 104.38 529.675 104.36 529.295 104.24C528.715 104.12 528.275 103.85 527.975 103.43C527.595 102.97 527.405 102.43 527.405 101.81C527.405 101.43 527.555 100.81 527.855 99.95C528.835 97.31 529.385 95.44 529.505 94.34C529.585 93.86 529.575 93.41 529.475 92.99C529.335 92.59 529.135 92.34 528.875 92.24C528.675 92.14 528.365 92.12 527.945 92.18C526.625 92.38 525.485 93.38 524.525 95.18L524.285 95.6L523.325 99.41C522.685 101.99 522.335 103.33 522.275 103.43C522.015 103.95 521.585 104.25 520.985 104.33C520.825 104.35 520.675 104.34 520.535 104.3C520.035 104.16 519.765 103.85 519.725 103.37C519.725 103.19 520.105 101.57 520.865 98.51C521.645 95.49 522.055 93.84 522.095 93.56C522.155 93.04 522.135 92.66 522.035 92.42C521.955 92.28 521.825 92.19 521.645 92.15C521.525 92.15 521.425 92.18 521.345 92.24C521.045 92.42 520.765 92.91 520.505 93.71C520.405 93.99 520.245 94.55 520.025 95.39C519.965 95.51 519.925 95.58 519.905 95.6C519.865 95.64 519.625 95.66 519.185 95.66H518.525L518.435 95.57C518.375 95.51 518.345 95.43 518.345 95.33L518.525 94.64C519.025 92.9 519.665 91.75 520.445 91.19C520.765 90.99 521.065 90.86 521.345 90.8ZM548.121 81.62L548.301 81.5H548.811H549.321L549.411 81.59C549.471 81.65 549.501 81.72 549.501 81.8C549.501 81.86 549.401 81.98 549.201 82.16C548.661 82.68 548.191 83.15 547.791 83.57C545.111 86.55 543.091 90.51 541.731 95.45C541.051 97.87 540.611 100.14 540.411 102.26C540.311 103.44 540.301 104.46 540.381 105.32C540.521 107.46 541.051 109.31 541.971 110.87C542.111 111.11 542.161 111.27 542.121 111.35C542.041 111.45 541.801 111.5 541.401 111.5H540.921L540.771 111.38C540.451 111.04 540.061 110.46 539.601 109.64C538.921 108.38 538.481 106.95 538.281 105.35C537.921 102.73 538.181 99.69 539.061 96.23C540.341 91.39 542.361 87.44 545.121 84.38C546.041 83.34 547.001 82.45 548.001 81.71C548.041 81.67 548.081 81.64 548.121 81.62ZM558.326 84.05L559.106 84.02H559.136C559.816 84.04 560.456 84.19 561.056 84.47C561.936 84.91 562.606 85.58 563.066 86.48C563.466 87.26 563.666 88.15 563.666 89.15C563.666 89.67 563.616 90.17 563.516 90.65C563.316 91.65 562.866 92.59 562.166 93.47C561.946 93.77 561.476 94.25 560.756 94.91C559.876 95.61 558.716 96.4 557.276 97.28C556.796 97.54 556.366 97.8 555.986 98.06C554.826 98.74 553.776 99.65 552.836 100.79C552.856 100.95 552.896 101.04 552.956 101.06C553.336 101.06 554.156 101.18 555.416 101.42C557.096 101.74 558.196 101.86 558.716 101.78C559.616 101.64 560.356 101.06 560.936 100.04C561.076 99.78 561.196 99.52 561.296 99.26C561.376 99 561.466 98.86 561.566 98.84C561.626 98.82 561.836 98.81 562.196 98.81H562.856L562.946 98.9C563.006 98.96 563.036 99.03 563.036 99.11C562.996 99.33 562.856 99.75 562.616 100.37C561.776 102.49 560.596 103.84 559.076 104.42C558.896 104.48 558.726 104.53 558.566 104.57C558.406 104.61 558.146 104.63 557.786 104.63C557.426 104.63 557.156 104.61 556.976 104.57C556.416 104.43 555.746 104.1 554.966 103.58C553.946 102.92 553.136 102.55 552.536 102.47C552.136 102.41 551.816 102.54 551.576 102.86C551.436 103.06 551.266 103.48 551.066 104.12C550.966 104.44 550.866 104.61 550.766 104.63C550.686 104.65 550.466 104.66 550.106 104.66H549.476L549.386 104.57C549.306 104.47 549.316 104.26 549.416 103.94C550.136 101.42 551.656 99.29 553.976 97.55C554.396 97.23 554.826 96.94 555.266 96.68C557.546 95.32 559.096 93.8 559.916 92.12C560.156 91.62 560.396 90.81 560.636 89.69C560.776 89.01 560.846 88.4 560.846 87.86C560.846 87.3 560.766 86.85 560.606 86.51C560.346 85.99 559.926 85.65 559.346 85.49C559.046 85.41 558.656 85.41 558.176 85.49C557.756 85.59 557.436 85.7 557.216 85.82C556.336 86.24 555.566 86.97 554.906 88.01C554.626 88.41 554.316 89 553.976 89.78C553.356 91.3 553.246 92.2 553.646 92.48C553.766 92.56 553.976 92.54 554.276 92.42C554.936 92.2 555.476 91.55 555.896 90.47C555.916 90.41 555.936 90.36 555.956 90.32C556.256 89.54 556.286 88.92 556.046 88.46C555.926 88.26 555.896 88.11 555.956 88.01C556.176 87.79 556.466 87.56 556.826 87.32C556.946 87.24 557.056 87.27 557.156 87.41C557.276 87.55 557.386 87.78 557.486 88.1C557.726 88.78 557.666 89.61 557.306 90.59C556.686 92.21 555.786 93.25 554.606 93.71C554.506 93.75 554.396 93.79 554.276 93.83C553.896 93.93 553.536 93.95 553.196 93.89C552.416 93.71 551.956 93.18 551.816 92.3C551.756 91.9 551.776 91.49 551.876 91.07C552.096 90.03 552.526 88.99 553.166 87.95C554.306 85.99 555.776 84.75 557.576 84.23C557.836 84.15 558.086 84.09 558.326 84.05ZM578.323 100.13C578.963 99.97 579.493 100.1 579.913 100.52C580.133 100.72 580.273 101 580.333 101.36C580.613 102.42 580.373 103.78 579.613 105.44C578.913 107 577.863 108.37 576.463 109.55C576.203 109.79 576.013 109.87 575.893 109.79C575.833 109.75 575.733 109.63 575.593 109.43C575.373 109.11 575.283 108.92 575.323 108.86C575.343 108.82 575.463 108.69 575.683 108.47C577.103 107.23 578.083 105.82 578.623 104.24L578.773 103.85L578.593 103.91C578.253 104.03 577.903 104.05 577.543 103.97C577.243 103.91 577.003 103.8 576.823 103.64C576.463 103.3 576.313 102.84 576.373 102.26C576.513 101.34 576.983 100.69 577.783 100.31C577.963 100.23 578.143 100.17 578.323 100.13ZM596.852 84.05L597.122 84.02H597.152C597.372 84.02 597.512 84.09 597.572 84.23C597.592 84.31 596.872 87.3 595.412 93.2C593.912 99.12 593.162 102.09 593.162 102.11C593.142 102.17 593.282 102.22 593.582 102.26C593.882 102.28 594.372 102.3 595.052 102.32C595.832 102.32 596.252 102.39 596.312 102.53C596.352 102.59 596.322 102.82 596.222 103.22C596.102 103.64 596.022 103.87 595.982 103.91L595.892 104H595.412C593.212 103.9 590.642 103.89 587.702 103.97C587.022 103.99 586.642 103.93 586.562 103.79C586.542 103.73 586.572 103.5 586.652 103.1C586.772 102.7 586.852 102.47 586.892 102.41L587.012 102.32H588.152C589.372 102.3 590.082 102.22 590.282 102.08C590.362 102.04 590.952 99.78 592.052 95.3L593.732 88.58L593.342 88.79C592.462 89.23 591.592 89.48 590.732 89.54C590.352 89.58 590.112 89.52 590.012 89.36L589.982 89.27L590.102 88.73C590.222 88.25 590.332 87.98 590.432 87.92C590.452 87.92 590.622 87.9 590.942 87.86C591.682 87.8 592.452 87.58 593.252 87.2C594.552 86.54 595.672 85.58 596.612 84.32C596.672 84.24 596.752 84.15 596.852 84.05ZM613.224 84.05H614.274C615.114 84.17 615.714 84.48 616.074 84.98C616.254 85.22 616.384 85.49 616.464 85.79C616.524 86.03 616.554 86.19 616.554 86.27C616.634 86.91 616.544 87.48 616.284 87.98C615.964 88.66 615.424 89.04 614.664 89.12C614.024 89.18 613.584 88.95 613.344 88.43C613.284 88.33 613.244 88.17 613.224 87.95C613.224 87.61 613.294 87.3 613.434 87.02C613.654 86.54 614.034 86.22 614.574 86.06L614.664 86L614.544 85.88C614.064 85.4 613.314 85.36 612.294 85.76C611.934 85.88 611.594 86.05 611.274 86.27C609.994 87.11 608.994 88.52 608.274 90.5C608.254 90.56 608.234 90.62 608.214 90.68C607.874 91.7 607.704 92.26 607.704 92.36C607.704 92.4 607.784 92.34 607.944 92.18C608.644 91.54 609.434 91.11 610.314 90.89C610.754 90.81 611.284 90.81 611.904 90.89C612.864 91.09 613.614 91.69 614.154 92.69C614.194 92.75 614.234 92.82 614.274 92.9C614.674 93.66 614.884 94.45 614.904 95.27C614.924 95.99 614.814 96.83 614.574 97.79C614.094 99.63 613.204 101.18 611.904 102.44C611.864 102.48 611.824 102.52 611.784 102.56C611.064 103.26 610.384 103.76 609.744 104.06C609.064 104.38 608.414 104.57 607.794 104.63C607.174 104.67 606.714 104.66 606.414 104.6C605.654 104.42 605.014 104.06 604.494 103.52C603.874 102.88 603.464 101.9 603.264 100.58C603.184 99.96 603.174 99.11 603.234 98.03C603.254 97.93 603.264 97.85 603.264 97.79C603.464 96.33 603.744 94.96 604.104 93.68C604.944 90.7 606.434 88.25 608.574 86.33C608.854 86.07 609.144 85.83 609.444 85.61C610.744 84.67 612.004 84.15 613.224 84.05ZM610.914 92.27H610.104C609.584 92.33 609.074 92.59 608.574 93.05C607.594 93.99 606.824 95.66 606.264 98.06C605.904 99.68 605.724 100.69 605.724 101.09C605.724 102.03 606.114 102.66 606.894 102.98C606.994 103.02 607.194 103.04 607.494 103.04C607.914 103.04 608.284 102.98 608.604 102.86C609.124 102.66 609.574 102.3 609.954 101.78C610.314 101.28 610.804 99.82 611.424 97.4C611.884 95.52 612.124 94.35 612.144 93.89C612.144 93.65 612.124 93.46 612.084 93.32C611.904 92.74 611.514 92.39 610.914 92.27ZM623.837 81.53C623.877 81.51 624.067 81.5 624.407 81.5H624.917L625.067 81.62C625.387 81.96 625.777 82.54 626.237 83.36C626.897 84.6 627.337 86.02 627.557 87.62C627.917 90.28 627.657 93.32 626.777 96.74C625.497 101.6 623.477 105.56 620.717 108.62C619.797 109.66 618.837 110.55 617.837 111.29C617.797 111.33 617.757 111.36 617.717 111.38L617.537 111.5H617.027H616.517L616.427 111.41C616.367 111.35 616.337 111.28 616.337 111.2C616.337 111.14 616.437 111.02 616.637 110.84C617.237 110.28 617.707 109.8 618.047 109.4C620.727 106.44 622.747 102.48 624.107 97.52C624.767 95.14 625.207 92.88 625.427 90.74C625.527 89.58 625.537 88.55 625.457 87.65C625.317 85.53 624.787 83.69 623.867 82.13C623.747 81.93 623.687 81.82 623.687 81.8C623.687 81.68 623.737 81.59 623.837 81.53ZM637.012 81.53C637.052 81.51 637.242 81.5 637.582 81.5H638.092L638.242 81.62C638.562 81.96 638.952 82.54 639.412 83.36C640.072 84.6 640.512 86.02 640.732 87.62C641.092 90.28 640.832 93.32 639.952 96.74C638.672 101.6 636.652 105.56 633.892 108.62C632.972 109.66 632.012 110.55 631.012 111.29C630.972 111.33 630.932 111.36 630.892 111.38L630.712 111.5H630.202H629.692L629.602 111.41C629.542 111.35 629.512 111.28 629.512 111.2C629.512 111.14 629.612 111.02 629.812 110.84C630.412 110.28 630.882 109.8 631.222 109.4C633.902 106.44 635.922 102.48 637.282 97.52C637.942 95.14 638.382 92.88 638.602 90.74C638.702 89.58 638.712 88.55 638.632 87.65C638.492 85.53 637.962 83.69 637.042 82.13C636.922 81.93 636.862 81.82 636.862 81.8C636.862 81.68 636.912 81.59 637.012 81.53ZM649.017 83.36C650.577 83.24 651.347 83.18 651.327 83.18C651.507 83.18 651.627 83.25 651.687 83.39C651.707 83.47 650.987 86.45 649.527 92.33L647.247 101.45C647.207 101.91 647.207 102.28 647.247 102.56C647.287 102.66 647.347 102.74 647.427 102.8C647.487 102.86 647.577 102.89 647.697 102.89C647.837 102.89 647.947 102.87 648.027 102.83C648.407 102.55 648.797 101.64 649.197 100.1C649.297 99.72 649.377 99.51 649.437 99.47C649.477 99.43 649.717 99.41 650.157 99.41C650.597 99.41 650.847 99.43 650.907 99.47C650.947 99.51 650.967 99.59 650.967 99.71C650.967 99.83 650.917 100.07 650.817 100.43C650.057 103.01 648.957 104.31 647.517 104.33C647.377 104.33 647.237 104.32 647.097 104.3C645.857 104.14 645.067 103.49 644.727 102.35C644.607 101.91 644.587 101.44 644.667 100.94L646.557 93.35C647.837 88.23 648.437 85.59 648.357 85.43C648.217 85.29 647.787 85.21 647.067 85.19C646.587 85.19 646.307 85.12 646.227 84.98L646.197 84.89L646.347 84.29C646.427 83.91 646.507 83.68 646.587 83.6C646.647 83.54 646.707 83.51 646.767 83.51L649.017 83.36Z" fill="#202229"/>
<path d="M572.866 73.342C573.514 73.18 573.982 73.342 574.27 73.828C574.36 73.99 574.414 74.17 574.432 74.368C574.432 74.638 574.369 74.899 574.243 75.151C573.829 75.727 573.307 76.06 572.677 76.15C572.479 76.15 572.272 76.096 572.056 75.988C571.876 75.898 571.732 75.736 571.624 75.502C571.57 75.43 571.534 75.286 571.516 75.07C571.516 74.782 571.57 74.53 571.678 74.314C571.93 73.81 572.326 73.486 572.866 73.342ZM570.544 79.12C570.67 79.084 570.868 79.066 571.138 79.066C571.552 79.084 571.912 79.174 572.218 79.336C572.452 79.462 572.632 79.597 572.758 79.741C572.902 79.867 573.037 80.047 573.163 80.281C573.325 80.623 573.397 80.983 573.379 81.361C573.379 81.667 573.361 81.883 573.325 82.009C573.307 82.045 572.902 83.17 572.11 85.384C571.354 87.4 570.949 88.516 570.895 88.732C570.715 89.326 570.688 89.722 570.814 89.92C570.904 90.028 571.093 90.046 571.381 89.974C572.083 89.812 572.65 88.939 573.082 87.355C573.172 87.067 573.262 86.914 573.352 86.896C573.406 86.878 573.595 86.869 573.919 86.869C574.315 86.869 574.531 86.887 574.567 86.923C574.675 86.995 574.675 87.184 574.567 87.49C574.369 88.192 574.072 88.849 573.676 89.461C572.956 90.541 572.137 91.144 571.219 91.27C570.895 91.342 570.562 91.324 570.22 91.216C569.86 91.108 569.563 90.973 569.329 90.811C568.933 90.487 568.672 90.028 568.546 89.434C568.474 89.092 568.492 88.732 568.6 88.354C568.636 88.21 569.032 87.103 569.788 85.033C570.436 83.305 570.85 82.171 571.03 81.631C571.21 81.073 571.237 80.686 571.111 80.47C571.057 80.326 570.868 80.299 570.544 80.389C570.004 80.515 569.527 81.082 569.113 82.09C568.879 82.9 568.762 83.287 568.762 83.251C568.708 83.359 568.672 83.422 568.654 83.44C568.618 83.476 568.402 83.494 568.006 83.494H567.412L567.331 83.413C567.277 83.359 567.25 83.287 567.25 83.197C567.286 82.909 567.439 82.459 567.709 81.847C567.925 81.379 568.15 80.992 568.384 80.686C568.618 80.362 568.915 80.038 569.275 79.714C569.671 79.408 570.094 79.21 570.544 79.12Z" fill="#202229"/>
<path d="M659.866 89.342C660.514 89.18 660.982 89.342 661.27 89.828C661.36 89.99 661.414 90.17 661.432 90.368C661.432 90.638 661.369 90.899 661.243 91.151C660.829 91.727 660.307 92.06 659.677 92.15C659.479 92.15 659.272 92.096 659.056 91.988C658.876 91.898 658.732 91.736 658.624 91.502C658.57 91.43 658.534 91.286 658.516 91.07C658.516 90.782 658.57 90.53 658.678 90.314C658.93 89.81 659.326 89.486 659.866 89.342ZM657.544 95.12C657.67 95.084 657.868 95.066 658.138 95.066C658.552 95.084 658.912 95.174 659.218 95.336C659.452 95.462 659.632 95.597 659.758 95.741C659.902 95.867 660.037 96.047 660.163 96.281C660.325 96.623 660.397 96.983 660.379 97.361C660.379 97.667 660.361 97.883 660.325 98.009C660.307 98.045 659.902 99.17 659.11 101.384C658.354 103.4 657.949 104.516 657.895 104.732C657.715 105.326 657.688 105.722 657.814 105.92C657.904 106.028 658.093 106.046 658.381 105.974C659.083 105.812 659.65 104.939 660.082 103.355C660.172 103.067 660.262 102.914 660.352 102.896C660.406 102.878 660.595 102.869 660.919 102.869C661.315 102.869 661.531 102.887 661.567 102.923C661.675 102.995 661.675 103.184 661.567 103.49C661.369 104.192 661.072 104.849 660.676 105.461C659.956 106.541 659.137 107.144 658.219 107.27C657.895 107.342 657.562 107.324 657.22 107.216C656.86 107.108 656.563 106.973 656.329 106.811C655.933 106.487 655.672 106.028 655.546 105.434C655.474 105.092 655.492 104.732 655.6 104.354C655.636 104.21 656.032 103.103 656.788 101.033C657.436 99.305 657.85 98.171 658.03 97.631C658.21 97.073 658.237 96.686 658.111 96.47C658.057 96.326 657.868 96.299 657.544 96.389C657.004 96.515 656.527 97.082 656.113 98.09C655.879 98.9 655.762 99.287 655.762 99.251C655.708 99.359 655.672 99.422 655.654 99.44C655.618 99.476 655.402 99.494 655.006 99.494H654.412L654.331 99.413C654.277 99.359 654.25 99.287 654.25 99.197C654.286 98.909 654.439 98.459 654.709 97.847C654.925 97.379 655.15 96.992 655.384 96.686C655.618 96.362 655.915 96.038 656.275 95.714C656.671 95.408 657.094 95.21 657.544 95.12Z" fill="#202229"/>
<path d="M391.135 44.06C391.195 44.02 397.245 44 409.285 44H427.345L429.055 47.96C430.295 50.88 430.895 52.29 430.855 52.19L430.975 52.43H430.225H429.475L429.325 52.13C428.945 51.29 428.375 50.49 427.615 49.73C426.715 48.83 425.675 48.08 424.495 47.48C423.775 47.12 422.905 46.78 421.885 46.46C420.365 46.02 418.475 45.72 416.215 45.56C415.195 45.5 411.735 45.46 405.835 45.44H397.255C397.255 45.48 399.615 48.71 404.335 55.13C409.035 61.63 411.395 64.89 411.415 64.91C411.435 64.93 411.445 64.98 411.445 65.06C411.405 65.16 408.765 68.13 403.525 73.97C398.265 79.85 395.595 82.83 395.515 82.91L395.395 83.06H404.635C411.795 83.04 415.965 82.98 417.145 82.88C417.225 82.86 417.315 82.85 417.415 82.85C420.635 82.59 423.205 81.92 425.125 80.84C425.845 80.42 426.365 80.07 426.685 79.79C427.985 78.75 428.875 77.6 429.355 76.34L429.475 76.1C429.475 76.08 429.725 76.07 430.225 76.07H430.975L429.145 81.02L427.345 85.97L409.315 86C397.275 86 391.235 85.99 391.195 85.97C391.055 85.91 390.985 85.81 390.985 85.67C390.985 85.63 391.005 85.57 391.045 85.49C391.225 85.31 393.925 82.29 399.145 76.43C404.525 70.43 407.205 67.41 407.185 67.37C407.085 67.27 404.375 63.57 399.055 56.27L391.015 45.23L390.985 44.78C390.985 44.36 391.035 44.12 391.135 44.06Z" fill="#202229"/>
<path d="M406.79 13.08C406.87 13.02 407.02 13.04 407.24 13.14C407.92 13.42 408.63 13.63 409.37 13.77C411.25 14.13 413.1 14.01 414.92 13.41C415.06 13.37 415.31 13.28 415.67 13.14C415.93 13.02 416.11 13.01 416.21 13.11L416.3 13.2V13.71V14.25L416.12 14.46C415.68 14.94 415.14 15.39 414.5 15.81C413.28 16.57 411.95 17 410.51 17.1C409.61 17.14 408.92 17.1 408.44 16.98L408.32 16.95V19.32V21.66L408.5 21.51C408.96 21.13 409.45 20.85 409.97 20.67C411.33 20.21 412.7 20.32 414.08 21C415.78 21.88 416.86 23.37 417.32 25.47C417.36 25.63 417.39 25.79 417.41 25.95C417.49 26.55 417.49 27.22 417.41 27.96C417.13 29.42 416.52 30.64 415.58 31.62C415.06 32.14 414.45 32.58 413.75 32.94C412.11 33.74 410.56 33.89 409.1 33.39C407.54 32.89 406.46 31.87 405.86 30.33C405.72 30.01 405.62 29.67 405.56 29.31C405.48 28.73 405.47 28.29 405.53 27.99C405.63 27.63 405.79 27.34 406.01 27.12C406.55 26.58 407.21 26.43 407.99 26.67C408.47 26.83 408.81 27.12 409.01 27.54C409.13 27.8 409.19 28.09 409.19 28.41C409.19 28.75 409.13 29.05 409.01 29.31C408.81 29.75 408.43 30.05 407.87 30.21C407.71 30.25 407.61 30.27 407.57 30.27C407.53 30.27 407.56 30.35 407.66 30.51C408 30.99 408.46 31.38 409.04 31.68C409.52 31.94 410.08 32.07 410.72 32.07C411.82 32.07 412.67 31.67 413.27 30.87C413.67 30.35 413.91 29.63 413.99 28.71C414.05 28.17 414.06 27.06 414.02 25.38C414.02 25.14 414.01 24.97 413.99 24.87C413.91 23.99 413.76 23.37 413.54 23.01C413 22.11 412.2 21.72 411.14 21.84C409.84 22 408.87 22.68 408.23 23.88C408.11 24.06 407.97 24.16 407.81 24.18C407.73 24.18 407.6 24.18 407.42 24.18C406.98 24.18 406.74 24.12 406.7 24C406.66 23.92 406.64 22.12 406.64 18.6C406.64 15.04 406.65 13.24 406.67 13.2C406.71 13.12 406.75 13.08 406.79 13.08Z" fill="#202229"/>
<path d="M394.666 95.38C395.386 95.2 395.906 95.38 396.226 95.92C396.326 96.1 396.386 96.3 396.406 96.52C396.406 96.82 396.336 97.11 396.196 97.39C395.736 98.03 395.156 98.4 394.456 98.5C394.236 98.5 394.006 98.44 393.766 98.32C393.566 98.22 393.406 98.04 393.286 97.78C393.226 97.7 393.186 97.54 393.166 97.3C393.166 96.98 393.226 96.7 393.346 96.46C393.626 95.9 394.066 95.54 394.666 95.38ZM392.086 101.8C392.226 101.76 392.446 101.74 392.746 101.74C393.206 101.76 393.606 101.86 393.946 102.04C394.206 102.18 394.406 102.33 394.546 102.49C394.706 102.63 394.856 102.83 394.996 103.09C395.176 103.47 395.256 103.87 395.236 104.29C395.236 104.63 395.216 104.87 395.176 105.01C395.156 105.05 394.706 106.3 393.826 108.76C392.986 111 392.536 112.24 392.476 112.48C392.276 113.14 392.246 113.58 392.386 113.8C392.486 113.92 392.696 113.94 393.016 113.86C393.796 113.68 394.426 112.71 394.906 110.95C395.006 110.63 395.106 110.46 395.206 110.44C395.266 110.42 395.476 110.41 395.836 110.41C396.276 110.41 396.516 110.43 396.556 110.47C396.676 110.55 396.676 110.76 396.556 111.1C396.336 111.88 396.006 112.61 395.566 113.29C394.766 114.49 393.856 115.16 392.836 115.3C392.476 115.38 392.106 115.36 391.726 115.24C391.326 115.12 390.996 114.97 390.736 114.79C390.296 114.43 390.006 113.92 389.866 113.26C389.786 112.88 389.806 112.48 389.926 112.06C389.966 111.9 390.406 110.67 391.246 108.37C391.966 106.45 392.426 105.19 392.626 104.59C392.826 103.97 392.856 103.54 392.716 103.3C392.656 103.14 392.446 103.11 392.086 103.21C391.486 103.35 390.956 103.98 390.496 105.1C390.236 106 390.106 106.43 390.106 106.39C390.046 106.51 390.006 106.58 389.986 106.6C389.946 106.64 389.706 106.66 389.266 106.66H388.606L388.516 106.57C388.456 106.51 388.426 106.43 388.426 106.33C388.466 106.01 388.636 105.51 388.936 104.83C389.176 104.31 389.426 103.88 389.686 103.54C389.946 103.18 390.276 102.82 390.676 102.46C391.116 102.12 391.586 101.9 392.086 101.8ZM398.405 104.05L398.525 103.99H408.065H417.635L417.755 104.05C417.815 104.09 417.895 104.16 417.995 104.26C418.055 104.38 418.085 104.49 418.085 104.59C418.085 104.69 418.055 104.8 417.995 104.92C417.895 105.02 417.825 105.08 417.785 105.1L417.665 105.16L408.125 105.19H398.585L398.405 105.13C398.205 105.01 398.105 104.83 398.105 104.59C398.105 104.45 398.135 104.34 398.195 104.26C398.235 104.18 398.305 104.11 398.405 104.05ZM398.405 109.87L398.585 109.81H408.125H417.665L417.785 109.9C417.825 109.92 417.895 109.98 417.995 110.08C418.055 110.2 418.085 110.31 418.085 110.41C418.085 110.51 418.055 110.62 417.995 110.74C417.895 110.84 417.815 110.91 417.755 110.95L417.635 111.01H408.065H398.525L398.405 110.95C398.305 110.89 398.235 110.82 398.195 110.74C398.135 110.66 398.105 110.55 398.105 110.41C398.105 110.17 398.205 109.99 398.405 109.87ZM428.894 95.14L428.984 95.02H429.344C429.564 95.02 429.704 95.05 429.764 95.11L429.884 95.2V104.14V113.08L429.974 113.14C429.994 113.16 430.064 113.19 430.184 113.23C430.424 113.29 431.224 113.32 432.584 113.32H433.574V114.16V115H433.214L430.634 114.94C429.134 114.92 427.634 114.92 426.134 114.94C424.374 114.98 423.504 115 423.524 115H423.164V114.16V113.32H424.154C425.554 113.32 426.374 113.29 426.614 113.23C426.734 113.19 426.804 113.16 426.824 113.14L426.914 113.08V105.55C426.914 100.53 426.904 98.02 426.884 98.02C425.844 98.42 424.684 98.62 423.404 98.62H423.014V97.78V96.94H423.404C425.164 96.94 426.664 96.58 427.904 95.86C428.404 95.54 428.734 95.3 428.894 95.14Z" fill="#202229"/>
<path d="M336.61 50.62L336.76 50.5H337.3H337.81L337.9 50.59C337.96 50.65 337.99 50.71 337.99 50.77C337.99 50.85 337.91 50.98 337.75 51.16C337.17 51.76 336.63 52.44 336.13 53.2C335.07 54.84 334.3 56.73 333.82 58.87C333.04 62.15 332.89 65.68 333.37 69.46C333.47 70.4 333.62 71.28 333.82 72.1C334.52 75.2 335.83 77.78 337.75 79.84C337.91 80.02 337.99 80.15 337.99 80.23C337.99 80.29 337.96 80.35 337.9 80.41L337.81 80.5H337.3H336.76L336.61 80.38C336.11 79.94 335.72 79.57 335.44 79.27C332.64 76.31 331.06 72.32 330.7 67.3C330.62 66.46 330.61 65.37 330.67 64.03C330.69 63.89 330.7 63.78 330.7 63.7C331.06 58.68 332.64 54.69 335.44 51.73C335.72 51.43 336.11 51.06 336.61 50.62ZM348.78 53.14L348.87 53.02H349.23C349.45 53.02 349.59 53.05 349.65 53.11L349.77 53.2V62.14V71.08L349.86 71.14C349.88 71.16 349.95 71.19 350.07 71.23C350.31 71.29 351.11 71.32 352.47 71.32H353.46V72.16V73H353.1L350.52 72.94C349.02 72.92 347.52 72.92 346.02 72.94C344.26 72.98 343.39 73 343.41 73H343.05V72.16V71.32H344.04C345.44 71.32 346.26 71.29 346.5 71.23C346.62 71.19 346.69 71.16 346.71 71.14L346.8 71.08V63.55C346.8 58.53 346.79 56.02 346.77 56.02C345.73 56.42 344.57 56.62 343.29 56.62H342.9V55.78V54.94H343.29C345.05 54.94 346.55 54.58 347.79 53.86C348.29 53.54 348.62 53.3 348.78 53.14Z" fill="#202229"/>
<line x1="367.9" y1="65.1" x2="380.1" y2="65.1" stroke="#202229" stroke-width="1.8" stroke-linecap="round" stroke-linejoin="round"/>
<path d="M7.562 50.084C7.61267 50.0587 9.842 50.046 14.25 50.046C18.8607 50.0713 21.3813 50.122 21.812 50.198C21.8627 50.2233 21.9767 50.2487 22.154 50.274C24.4847 50.7047 26.1693 51.7053 27.208 53.276C27.7907 54.1373 28.0693 55.0747 28.044 56.088C28.0187 56.7973 27.8287 57.5193 27.474 58.254C27.1193 58.9633 26.6253 59.622 25.992 60.23C24.7507 61.4713 23.0407 62.472 20.862 63.232C20.8367 63.232 20.8747 63.27 20.976 63.346C21.0267 63.3967 21.0773 63.4347 21.128 63.46C22.0147 64.068 22.6353 64.8787 22.99 65.892C23.218 66.6013 23.2813 67.5893 23.18 68.856C23.1547 69.1347 23.1167 69.4893 23.066 69.92C22.9393 71.2373 22.876 72.2 22.876 72.808C22.9013 73.7453 23.0787 74.3787 23.408 74.708C23.636 74.9107 23.978 75.012 24.434 75.012C24.7127 75.012 24.9153 74.9867 25.042 74.936C25.346 74.8093 25.65 74.5687 25.954 74.214C26.2833 73.7327 26.5367 73.2387 26.714 72.732C26.8407 72.3267 26.9927 72.0987 27.17 72.048C27.2713 72.0227 27.4613 72.01 27.74 72.01C28.2213 72.01 28.5127 72.0733 28.614 72.2C28.7913 72.4027 28.6647 72.9347 28.234 73.796C27.474 75.392 26.4353 76.3673 25.118 76.722C24.9153 76.7727 24.5353 76.798 23.978 76.798C23.3193 76.798 22.8887 76.7853 22.686 76.76C20.2287 76.4307 18.7467 75.4173 18.24 73.72C18.088 73.2133 18.0627 72.6433 18.164 72.01C18.2907 71.3767 18.468 70.604 18.696 69.692C18.9493 68.6787 19.1267 67.9187 19.228 67.412C19.3547 66.728 19.2533 66.0567 18.924 65.398C18.7973 65.17 18.6327 64.9547 18.43 64.752C17.9993 64.3467 17.4673 64.0807 16.834 63.954C16.7327 63.9287 15.8713 63.916 14.25 63.916H11.894L11.856 64.068C11.856 64.0427 11.4507 65.6513 10.64 68.894C9.85467 72.0607 9.47467 73.6567 9.5 73.682C9.55067 73.7327 9.63933 73.758 9.766 73.758C10.07 73.834 10.83 73.872 12.046 73.872C12.6793 73.872 13.0467 73.9607 13.148 74.138C13.1733 74.2393 13.1353 74.5307 13.034 75.012C12.9073 75.4933 12.7933 75.7847 12.692 75.886L12.578 76H12.008C9.24667 75.8733 6.08 75.8607 2.508 75.962C1.672 75.9873 1.20333 75.9113 1.102 75.734C1.07667 75.658 1.11467 75.3667 1.216 74.86C1.368 74.3533 1.46933 74.062 1.52 73.986L1.672 73.872H2.964C4.38267 73.8467 5.18067 73.7453 5.358 73.568C5.434 73.5173 6.346 69.996 8.094 63.004C9.842 56.012 10.716 52.4907 10.716 52.44C10.716 52.4147 10.6907 52.3767 10.64 52.326C10.5387 52.2753 9.85467 52.2247 8.588 52.174H7.296L7.144 52.022C7.068 51.946 7.03 51.87 7.03 51.794L7.448 50.236C7.448 50.2107 7.486 50.16 7.562 50.084ZM20.444 52.25C20.292 52.2247 19.4053 52.1993 17.784 52.174L15.276 52.212C15.0227 52.2373 14.858 52.3133 14.782 52.44L12.35 62.13H14.896C16.7453 62.1047 17.7587 62.0793 17.936 62.054C20.2413 61.7247 21.774 60.7873 22.534 59.242C22.9393 58.406 23.2687 57.3167 23.522 55.974C23.6233 55.3153 23.6233 54.758 23.522 54.302C23.218 53.1873 22.192 52.5033 20.444 52.25ZM38.41 50.958C38.9167 50.8313 39.398 50.8693 39.854 51.072C40.538 51.4013 40.842 51.984 40.766 52.82C40.7407 52.9467 40.7153 53.0607 40.69 53.162C40.4113 54.1247 39.778 54.7707 38.79 55.1C38.7393 55.1 38.6887 55.1127 38.638 55.138C37.9033 55.3407 37.2827 55.1887 36.776 54.682C36.1933 54.074 36.13 53.3393 36.586 52.478C36.9407 51.6673 37.5487 51.1607 38.41 50.958ZM35.028 59.28C35.3827 59.204 35.8387 59.1913 36.396 59.242C37.8653 59.5207 38.79 60.3187 39.17 61.636C39.2967 62.168 39.2967 62.7253 39.17 63.308L37.46 67.944C36.32 70.9333 35.7373 72.4913 35.712 72.618C35.408 73.606 35.3953 74.2393 35.674 74.518C35.75 74.5687 35.8893 74.594 36.092 74.594C36.3707 74.594 36.548 74.5813 36.624 74.556C37.7133 74.176 38.5493 73.0487 39.132 71.174C39.1827 71.0727 39.2207 70.9587 39.246 70.832C39.3727 70.452 39.4993 70.2493 39.626 70.224C39.702 70.1987 39.93 70.186 40.31 70.186C40.7913 70.186 41.0573 70.2113 41.108 70.262C41.2347 70.3633 41.26 70.5787 41.184 70.908C40.7027 72.58 39.9427 73.9353 38.904 74.974C38.1947 75.6327 37.4727 76.076 36.738 76.304C36.4847 76.3547 36.1427 76.38 35.712 76.38C35.256 76.38 34.9267 76.3547 34.724 76.304C33.9133 76.1013 33.3053 75.734 32.9 75.202C32.596 74.8473 32.3933 74.442 32.292 73.986C32.1653 73.4287 32.1653 72.8587 32.292 72.276L34.04 67.602C35.2053 64.486 35.826 62.776 35.902 62.472C36.0033 62.0413 36.0033 61.6613 35.902 61.332C35.7753 61.028 35.4967 60.9267 35.066 61.028C34.306 61.18 33.622 61.7627 33.014 62.776C32.634 63.4093 32.33 64.182 32.102 65.094C32.026 65.246 31.9753 65.3347 31.95 65.36C31.8993 65.4107 31.6333 65.436 31.152 65.436H30.43L30.316 65.322C30.1893 65.2207 30.202 64.9547 30.354 64.524C30.9873 62.396 32.0133 60.8633 33.432 59.926C33.5587 59.85 33.698 59.774 33.85 59.698C34.306 59.4447 34.6987 59.3053 35.028 59.28ZM54.0556 59.242C54.6383 59.1913 55.3096 59.204 56.0696 59.28C57.3109 59.5333 58.1976 60.002 58.7296 60.686C58.9829 60.9647 59.1729 61.332 59.2996 61.788C59.4263 62.244 59.4263 62.7253 59.2996 63.232C59.0716 64.1947 58.4889 64.79 57.5516 65.018C57.2476 65.094 56.9436 65.094 56.6396 65.018C56.2089 64.942 55.8923 64.714 55.6896 64.334C55.6136 64.2073 55.5629 64.0173 55.5376 63.764C55.5376 63.3587 55.6263 62.9787 55.8036 62.624C55.9556 62.2693 56.2343 61.9653 56.6396 61.712L56.8676 61.56L56.6776 61.446C55.8669 60.99 54.9296 60.8633 53.8656 61.066C53.7136 61.0913 53.5743 61.1293 53.4476 61.18C52.8396 61.3573 52.3709 61.712 52.0416 62.244C51.3576 63.2573 51.3323 64.068 51.9656 64.676C52.0163 64.7267 52.0796 64.7773 52.1556 64.828C52.4089 65.0053 52.9789 65.1953 53.8656 65.398C54.6763 65.55 55.1703 65.664 55.3476 65.74C56.7663 66.1707 57.7163 66.994 58.1976 68.21C58.4003 68.6407 58.5016 69.1727 58.5016 69.806C58.5016 70.2873 58.4889 70.604 58.4636 70.756C58.2356 71.7947 57.8303 72.7067 57.2476 73.492C55.8036 75.5187 53.5616 76.494 50.5216 76.418C48.2923 76.342 46.7596 75.658 45.9236 74.366C45.8476 74.2647 45.7843 74.1507 45.7336 74.024C45.5563 73.6693 45.4676 73.2387 45.4676 72.732C45.4423 72.2253 45.5436 71.7313 45.7716 71.25C45.9743 70.9207 46.1389 70.68 46.2656 70.528C47.0763 69.7427 47.9503 69.5273 48.8876 69.882C48.9383 69.9073 48.9889 69.9327 49.0396 69.958C49.5463 70.186 49.8376 70.5787 49.9136 71.136C50.0403 71.972 49.7489 72.7067 49.0396 73.34C48.8876 73.492 48.7103 73.6187 48.5076 73.72C48.3303 73.8213 48.2289 73.8847 48.2036 73.91C48.2796 74.0367 48.6089 74.1887 49.1916 74.366C49.6983 74.518 50.3316 74.594 51.0916 74.594C51.8516 74.594 52.4596 74.518 52.9156 74.366C53.7516 74.1127 54.3849 73.6313 54.8156 72.922C55.3983 72.086 55.5249 71.3513 55.1956 70.718C54.9423 70.186 54.5116 69.8187 53.9036 69.616C53.7263 69.54 53.2576 69.426 52.4976 69.274C51.6109 69.0967 50.9269 68.9067 50.4456 68.704C49.4323 68.1467 48.7736 67.3233 48.4696 66.234C48.4189 66.0313 48.3936 65.7147 48.3936 65.284C48.3683 64.828 48.4569 64.258 48.6596 63.574C48.9383 62.738 49.3563 61.978 49.9136 61.294C50.8763 60.154 52.2569 59.47 54.0556 59.242ZM69.9681 49.856C71.9948 49.704 72.9828 49.628 72.9321 49.628C73.1601 49.628 73.3121 49.7167 73.3881 49.894C73.4134 49.9953 72.7928 52.6047 71.5261 57.722L69.5881 65.398L69.7781 65.284C70.4874 64.8533 71.5134 64.0047 72.8561 62.738C73.6921 61.9273 74.3634 61.3067 74.8701 60.876C76.2634 59.7107 77.5934 59.1533 78.8601 59.204C79.2654 59.2293 79.5948 59.318 79.8481 59.47C80.3801 59.7487 80.7474 60.2553 80.9501 60.99C81.1021 61.598 81.1274 62.2947 81.0261 63.08C80.7981 64.296 80.2534 65.1193 79.3921 65.55C78.6828 65.8793 78.0114 65.9047 77.3781 65.626C76.6434 65.2713 76.3648 64.6253 76.5421 63.688C76.6434 63.1813 76.8841 62.7127 77.2641 62.282C77.7708 61.826 78.3154 61.56 78.8981 61.484C79.0501 61.484 79.1261 61.4713 79.1261 61.446C79.1261 61.37 79.0374 61.2433 78.8601 61.066C78.5814 60.8633 78.0241 60.914 77.1881 61.218C76.8081 61.3447 76.3648 61.5853 75.8581 61.94C75.2248 62.3453 74.2874 63.156 73.0461 64.372C72.2608 65.132 71.6654 65.6893 71.2601 66.044C71.1334 66.1453 71.1081 66.2087 71.1841 66.234C71.2601 66.234 71.4248 66.2593 71.6781 66.31C72.5648 66.538 73.2234 66.766 73.6541 66.994C74.6928 67.4753 75.4148 68.134 75.8201 68.97C75.9974 69.3247 76.0861 69.7933 76.0861 70.376C76.0861 70.7813 76.0481 71.1613 75.9721 71.516C75.8201 72.1493 75.7441 72.732 75.7441 73.264C75.7441 73.8467 75.8328 74.2267 76.0101 74.404C76.2128 74.6067 76.5421 74.6573 76.9981 74.556C77.2768 74.48 77.5301 74.3153 77.7581 74.062C78.2901 73.53 78.7968 72.3393 79.2781 70.49C79.3288 70.3127 79.5188 70.2113 79.8481 70.186C79.9241 70.186 80.0508 70.186 80.2281 70.186C80.7094 70.186 80.9754 70.2113 81.0261 70.262C81.1781 70.3633 81.1781 70.6673 81.0261 71.174C80.6461 72.542 80.1014 73.6947 79.3921 74.632C78.7588 75.5187 78.0114 76.076 77.1501 76.304C76.9728 76.3547 76.6688 76.38 76.2381 76.38C75.7821 76.38 75.4528 76.3547 75.2501 76.304C74.7181 76.152 74.2874 75.962 73.9581 75.734C73.0461 75.126 72.5141 74.2013 72.3621 72.96C72.3114 72.4533 72.3494 71.9593 72.4761 71.478C72.6028 70.8193 72.6028 70.3 72.4761 69.92C72.1214 68.932 71.1208 68.2607 69.4741 67.906L69.0181 67.83L68.1061 71.402C67.4728 73.8593 67.1308 75.1387 67.0801 75.24C66.8268 75.772 66.3961 76.1393 65.7881 76.342C65.3828 76.4433 64.9774 76.4307 64.5721 76.304C64.2681 76.1773 64.0274 75.9493 63.8501 75.62C63.7234 75.4173 63.6981 75.1513 63.7741 74.822C63.8501 74.3153 64.7241 70.7053 66.3961 63.992C68.2708 56.544 69.1574 52.706 69.0561 52.478C68.8788 52.3007 68.3341 52.1993 67.4221 52.174C66.8141 52.174 66.4721 52.0853 66.3961 51.908C66.3454 51.832 66.3834 51.5407 66.5101 51.034C66.6368 50.502 66.7381 50.2107 66.8141 50.16C66.8901 50.084 66.9661 50.046 67.0421 50.046L69.9681 49.856Z" fill="black"/>
<path d="M103.508 62.13L103.66 62.054H115.744H127.866L128.018 62.13C128.094 62.1807 128.195 62.2693 128.322 62.396C128.398 62.548 128.436 62.6873 128.436 62.814C128.436 62.9407 128.398 63.08 128.322 63.232C128.195 63.3587 128.107 63.4347 128.056 63.46L127.904 63.536L115.82 63.574H103.736L103.508 63.498C103.255 63.346 103.128 63.118 103.128 62.814C103.128 62.6367 103.166 62.4973 103.242 62.396C103.293 62.2947 103.381 62.206 103.508 62.13ZM103.508 69.502L103.736 69.426H115.82H127.904L128.056 69.54C128.107 69.5653 128.195 69.6413 128.322 69.768C128.398 69.92 128.436 70.0593 128.436 70.186C128.436 70.3127 128.398 70.452 128.322 70.604C128.195 70.7307 128.094 70.8193 128.018 70.87L127.866 70.946H115.744H103.66L103.508 70.87C103.381 70.794 103.293 70.7053 103.242 70.604C103.166 70.5027 103.128 70.3633 103.128 70.186C103.128 69.882 103.255 69.654 103.508 69.502Z" fill="black"/>
</svg>
