<svg width="460" height="132" viewBox="0 0 460 132" fill="none" xmlns="http://www.w3.org/2000/svg">
<path d="M76.7252 55.57C77.0052 55.41 77.2752 55.5 77.5352 55.84L77.5952 55.96V60.43V64.9H82.0652H86.5352L86.6552 64.96C86.7152 65 86.7952 65.07 86.8952 65.17C86.9552 65.29 86.9852 65.4 86.9852 65.5C86.9852 65.6 86.9552 65.71 86.8952 65.83C86.7952 65.93 86.7152 66 86.6552 66.04L86.5352 66.1H82.0652H77.5952V70.57V75.04L77.5352 75.16C77.4752 75.26 77.4052 75.33 77.3252 75.37C77.2452 75.43 77.1352 75.46 76.9952 75.46C76.8552 75.46 76.7452 75.43 76.6652 75.37C76.5852 75.33 76.5152 75.26 76.4552 75.16L76.3952 75.04V70.57V66.1H71.9252H67.4252L67.3052 66.04C67.2052 65.96 67.1352 65.89 67.0952 65.83C67.0352 65.75 67.0052 65.64 67.0052 65.5C67.0052 65.36 67.0352 65.25 67.0952 65.17C67.1352 65.11 67.2052 65.04 67.3052 64.96L67.4252 64.9H71.9252H76.3952V60.4L76.4252 55.9L76.5152 55.78L76.7252 55.57Z" fill="#202229"/>
<path d="M7.87 31.35V30.51H8.14C8.12 30.51 8.79 30.53 10.15 30.57C11.33 30.59 12.62 30.59 14.02 30.57L16.42 30.51H16.75V31.35V32.19H16C14.92 32.23 14.35 32.31 14.29 32.43L19.42 46.68L21.85 39.96C23.45 35.54 24.25 33.27 24.25 33.15C24.25 33.03 24.19 32.9 24.07 32.76C23.75 32.44 23.19 32.25 22.39 32.19H22.09V31.35V30.51H22.36L24.34 30.57C26.46 30.61 28.01 30.59 28.99 30.51H29.2V31.35V32.19H28.93C28.57 32.19 28.15 32.23 27.67 32.31C26.89 32.47 26.38 32.74 26.14 33.12C26.12 33.14 25 36.2 22.78 42.3C20.64 48.34 19.54 51.39 19.48 51.45C19.46 51.51 19.4 51.56 19.3 51.6C19.22 51.64 18.97 51.66 18.55 51.66C18.11 51.66 17.85 51.64 17.77 51.6C17.67 51.56 17.61 51.51 17.59 51.45C17.55 51.41 16.4 48.24 14.14 41.94C11.88 35.64 10.73 32.47 10.69 32.43C10.61 32.31 10.32 32.24 9.82 32.22C9.64 32.2 9.23 32.19 8.59 32.19H7.87V31.35ZM38.92 31.14L39.01 31.02H39.37C39.59 31.02 39.73 31.05 39.79 31.11L39.91 31.2V40.14V49.08L40 49.14C40.02 49.16 40.09 49.19 40.21 49.23C40.45 49.29 41.25 49.32 42.61 49.32H43.6V50.16V51H43.24L40.66 50.94C39.16 50.92 37.66 50.92 36.16 50.94C34.4 50.98 33.53 51 33.55 51H33.19V50.16V49.32H34.18C35.58 49.32 36.4 49.29 36.64 49.23C36.76 49.19 36.83 49.16 36.85 49.14L36.94 49.08V41.55C36.94 36.53 36.93 34.02 36.91 34.02C35.87 34.42 34.71 34.62 33.43 34.62H33.04V33.78V32.94H33.43C35.19 32.94 36.69 32.58 37.93 31.86C38.43 31.54 38.76 31.3 38.92 31.14Z" fill="#202229"/>
<path d="M9.45945 80.05C10.0195 79.99 10.5995 80.01 11.1995 80.11C12.5795 80.29 13.7295 80.83 14.6495 81.73C15.1695 82.21 15.5895 82.78 15.9095 83.44C16.2495 84.2 16.4495 85.04 16.5095 85.96C16.5295 87.12 16.2095 88.22 15.5495 89.26C14.9495 90.14 13.8895 91.21 12.3695 92.47C11.6495 93.09 10.6395 94.02 9.33945 95.26L7.59945 96.91L9.63945 96.94C12.5595 96.94 14.1195 96.89 14.3195 96.79C14.4395 96.73 14.5695 96.38 14.7095 95.74L15.0095 94.06C15.0095 94.04 15.2595 94.03 15.7595 94.03H16.5095V94.12C16.4895 94.16 16.3495 95.12 16.0895 97C15.8295 98.88 15.6895 99.85 15.6695 99.91V100H10.0895H4.53945V99.28C4.53945 98.78 4.55945 98.5 4.59945 98.44L7.14945 95.56C9.32945 93.12 10.6595 91.59 11.1395 90.97C11.8995 89.91 12.4295 88.95 12.7295 88.09C13.2495 86.49 13.1495 85.02 12.4295 83.68C12.2495 83.36 12.0395 83.07 11.7995 82.81C11.1395 82.13 10.3195 81.76 9.33945 81.7C8.53945 81.66 7.84945 81.93 7.26945 82.51L6.72945 83.2C6.72945 83.24 6.80945 83.26 6.96945 83.26C7.34945 83.38 7.64945 83.55 7.86945 83.77C8.00945 83.87 8.12945 84.02 8.22945 84.22C8.36945 84.56 8.43945 84.91 8.43945 85.27C8.37945 86.23 7.88945 86.82 6.96945 87.04C6.88945 87.06 6.80945 87.08 6.72945 87.1C6.56945 87.12 6.40945 87.12 6.24945 87.1C5.40945 86.98 4.86945 86.55 4.62945 85.81C4.58945 85.65 4.56945 85.4 4.56945 85.06C4.56945 84.68 4.58945 84.41 4.62945 84.25C4.80945 83.45 5.14945 82.72 5.64945 82.06C5.90945 81.74 6.25945 81.42 6.69945 81.1C7.13945 80.78 7.64945 80.52 8.22945 80.32C8.58945 80.22 8.99945 80.13 9.45945 80.05ZM24.0395 86.8C24.3795 86.7 24.8095 86.71 25.3295 86.83C25.8095 86.95 26.2195 87.17 26.5595 87.49C26.8795 87.81 27.0695 88.08 27.1295 88.3L27.1595 88.39L27.3395 88.21C27.9995 87.61 28.7195 87.18 29.4995 86.92C30.4195 86.62 31.3395 86.69 32.2595 87.13C33.0395 87.51 33.6395 88.13 34.0595 88.99C34.4195 89.73 34.5995 90.57 34.5995 91.51C34.5995 91.99 34.5895 92.31 34.5695 92.47C34.3295 94.31 33.6295 95.96 32.4695 97.42C32.0495 97.96 31.6095 98.41 31.1495 98.77C30.2695 99.51 29.2995 100 28.2395 100.24C27.6595 100.36 27.1295 100.36 26.6495 100.24C26.0895 100.08 25.6395 99.83 25.2995 99.49L25.0895 99.28L23.9195 103.99C23.9195 104.03 23.9495 104.05 24.0095 104.05C24.1895 104.11 24.6695 104.14 25.4495 104.14C25.8295 104.14 26.0395 104.16 26.0795 104.2C26.1995 104.24 26.2595 104.33 26.2595 104.47L25.9595 105.64C25.8795 105.76 25.6895 105.81 25.3895 105.79C25.3095 105.79 25.1595 105.79 24.9395 105.79C22.3995 105.71 20.5595 105.72 19.4195 105.82H19.1795L19.0895 105.73C19.0095 105.65 18.9695 105.58 18.9695 105.52L19.2995 104.29C19.2995 104.25 19.3395 104.21 19.4195 104.17L20.1095 104.14H20.1395C20.6995 104.12 21.0295 104.06 21.1295 103.96C21.1895 103.9 21.8095 101.54 22.9895 96.88C24.1495 92.22 24.7495 89.77 24.7895 89.53C24.8495 89.03 24.8295 88.66 24.7295 88.42C24.6495 88.28 24.5195 88.19 24.3395 88.15C24.2195 88.15 24.1195 88.18 24.0395 88.24C23.7395 88.42 23.4595 88.91 23.1995 89.71C23.0995 89.99 22.9395 90.55 22.7195 91.39C22.6595 91.51 22.6195 91.58 22.5995 91.6C22.5595 91.64 22.3195 91.66 21.8795 91.66H21.2195L21.1295 91.57C21.0695 91.51 21.0395 91.43 21.0395 91.33L21.2195 90.64C21.7195 88.9 22.3595 87.75 23.1395 87.19C23.4595 86.99 23.7595 86.86 24.0395 86.8ZM30.8795 88.24C30.6995 88.16 30.4095 88.14 30.0095 88.18C29.4295 88.34 28.8395 88.73 28.2395 89.35C27.8195 89.77 27.4995 90.17 27.2795 90.55C27.2595 90.63 26.9895 91.66 26.4695 93.64L25.7495 96.58L25.7795 96.85C25.9995 97.93 26.4295 98.59 27.0695 98.83C27.8095 99.11 28.5795 98.84 29.3795 98.02C29.6995 97.68 29.9695 97.28 30.1895 96.82C30.4695 96.28 30.8195 95.2 31.2395 93.58C31.6595 91.88 31.8695 90.71 31.8695 90.07C31.8695 89.65 31.8195 89.32 31.7195 89.08C31.5795 88.68 31.2995 88.4 30.8795 88.24ZM45.5417 86.77C46.0217 86.71 46.4917 86.73 46.9517 86.83C48.1517 87.07 48.8917 87.7 49.1717 88.72C49.2917 89.1 49.2917 89.5 49.1717 89.92C49.0317 90.54 48.7017 90.99 48.1817 91.27C47.4417 91.65 46.8217 91.62 46.3217 91.18C46.1217 91 46.0017 90.76 45.9617 90.46C45.8617 89.92 46.0617 89.39 46.5617 88.87C46.6617 88.75 46.7717 88.66 46.8917 88.6L47.0717 88.51L46.9517 88.42C46.4917 88.14 45.8717 88.08 45.0917 88.24C44.3117 88.48 43.6217 88.94 43.0217 89.62C42.4417 90.32 41.9417 91.49 41.5217 93.13C41.4817 93.27 41.4417 93.41 41.4017 93.55C41.0817 94.87 40.9217 95.85 40.9217 96.49C40.9217 96.91 40.9417 97.19 40.9817 97.33C41.1617 98.13 41.6417 98.63 42.4217 98.83C43.0217 98.99 43.8217 98.92 44.8217 98.62C45.8217 98.28 46.7317 97.7 47.5517 96.88C47.9117 96.52 48.1617 96.36 48.3017 96.4L48.7217 96.82C49.0017 97.14 49.1117 97.37 49.0517 97.51C48.9517 97.69 48.6117 98.05 48.0317 98.59C46.8717 99.49 45.5117 100.05 43.9517 100.27C43.2517 100.35 42.6917 100.36 42.2717 100.3C40.5117 100.08 39.2817 99.21 38.5817 97.69C38.4617 97.43 38.3617 97.15 38.2817 96.85C37.8817 95.33 38.0717 93.7 38.8517 91.96C39.3317 90.92 39.9717 90 40.7717 89.2C41.5317 88.44 42.3217 87.87 43.1417 87.49C43.9417 87.09 44.7417 86.85 45.5417 86.77Z" fill="#202229"/>
<line x1="1" y1="66" x2="51" y2="66" stroke="#202229" stroke-width="2" stroke-linecap="round" stroke-linejoin="round"/>
<path d="M115.22 31.14L115.31 31.02H115.67C115.89 31.02 116.03 31.05 116.09 31.11L116.21 31.2V40.14V49.08L116.3 49.14C116.32 49.16 116.39 49.19 116.51 49.23C116.75 49.29 117.55 49.32 118.91 49.32H119.9V50.16V51H119.54L116.96 50.94C115.46 50.92 113.96 50.92 112.46 50.94C110.7 50.98 109.83 51 109.85 51H109.49V50.16V49.32H110.48C111.88 49.32 112.7 49.29 112.94 49.23C113.06 49.19 113.13 49.16 113.15 49.14L113.24 49.08V41.55C113.24 36.53 113.23 34.02 113.21 34.02C112.17 34.42 111.01 34.62 109.73 34.62H109.34V33.78V32.94H109.73C111.49 32.94 112.99 32.58 114.23 31.86C114.73 31.54 115.06 31.3 115.22 31.14Z" fill="#202229"/>
<path d="M113.42 79.05C113.98 78.99 114.56 79.01 115.16 79.11C116.54 79.29 117.69 79.83 118.61 80.73C119.13 81.21 119.55 81.78 119.87 82.44C120.21 83.2 120.41 84.04 120.47 84.96C120.49 86.12 120.17 87.22 119.51 88.26C118.91 89.14 117.85 90.21 116.33 91.47C115.61 92.09 114.6 93.02 113.3 94.26L111.56 95.91L113.6 95.94C116.52 95.94 118.08 95.89 118.28 95.79C118.4 95.73 118.53 95.38 118.67 94.74L118.97 93.06C118.97 93.04 119.22 93.03 119.72 93.03H120.47V93.12C120.45 93.16 120.31 94.12 120.05 96C119.79 97.88 119.65 98.85 119.63 98.91V99H114.05H108.5V98.28C108.5 97.78 108.52 97.5 108.56 97.44L111.11 94.56C113.29 92.12 114.62 90.59 115.1 89.97C115.86 88.91 116.39 87.95 116.69 87.09C117.21 85.49 117.11 84.02 116.39 82.68C116.21 82.36 116 82.07 115.76 81.81C115.1 81.13 114.28 80.76 113.3 80.7C112.5 80.66 111.81 80.93 111.23 81.51L110.69 82.2C110.69 82.24 110.77 82.26 110.93 82.26C111.31 82.38 111.61 82.55 111.83 82.77C111.97 82.87 112.09 83.02 112.19 83.22C112.33 83.56 112.4 83.91 112.4 84.27C112.34 85.23 111.85 85.82 110.93 86.04C110.85 86.06 110.77 86.08 110.69 86.1C110.53 86.12 110.37 86.12 110.21 86.1C109.37 85.98 108.83 85.55 108.59 84.81C108.55 84.65 108.53 84.4 108.53 84.06C108.53 83.68 108.55 83.41 108.59 83.25C108.77 82.45 109.11 81.72 109.61 81.06C109.87 80.74 110.22 80.42 110.66 80.1C111.1 79.78 111.61 79.52 112.19 79.32C112.55 79.22 112.96 79.13 113.42 79.05Z" fill="#202229"/>
<line x1="103" y1="66" x2="126" y2="66" stroke="#202229" stroke-width="2" stroke-linecap="round" stroke-linejoin="round"/>
<path d="M300.179 33.36C301.739 33.24 302.509 33.18 302.489 33.18C302.669 33.18 302.789 33.25 302.849 33.39C302.889 33.49 302.549 34.95 301.829 37.77L300.749 42.03L300.839 41.97C301.259 41.65 301.639 41.41 301.979 41.25C302.599 40.95 303.289 40.78 304.049 40.74C305.149 40.7 306.029 40.95 306.689 41.49C307.129 41.83 307.439 42.33 307.619 42.99C307.659 43.17 307.679 43.5 307.679 43.98C307.679 44.5 307.669 44.83 307.649 44.97C307.429 46.11 306.889 47.88 306.029 50.28C305.709 51.14 305.519 51.73 305.459 52.05C305.399 52.55 305.459 52.83 305.639 52.89C305.879 52.97 306.159 52.92 306.479 52.74C307.099 52.36 307.619 51.43 308.039 49.95C308.139 49.63 308.239 49.46 308.339 49.44C308.399 49.42 308.609 49.41 308.969 49.41C309.409 49.41 309.649 49.43 309.689 49.47C309.809 49.55 309.809 49.76 309.689 50.1C309.469 50.88 309.139 51.61 308.699 52.29C307.899 53.49 306.989 54.16 305.969 54.3C305.609 54.38 305.239 54.36 304.859 54.24C304.279 54.12 303.839 53.85 303.539 53.43C303.159 52.97 302.969 52.43 302.969 51.81C302.969 51.43 303.119 50.81 303.419 49.95C304.399 47.31 304.949 45.44 305.069 44.34C305.149 43.86 305.139 43.41 305.039 42.99C304.899 42.59 304.699 42.34 304.439 42.24C304.239 42.14 303.929 42.12 303.509 42.18C302.189 42.38 301.049 43.38 300.089 45.18L299.879 45.57L298.919 49.38C298.279 51.94 297.919 53.29 297.839 53.43C297.499 53.97 297.029 54.27 296.429 54.33C295.849 54.33 295.489 54.09 295.349 53.61C295.309 53.51 295.289 53.42 295.289 53.34C295.289 53.2 295.999 50.28 297.419 44.58C298.899 38.66 299.599 35.61 299.519 35.43C299.379 35.29 298.949 35.21 298.229 35.19C297.749 35.19 297.469 35.12 297.389 34.98L297.359 34.89L297.509 34.29C297.589 33.91 297.669 33.68 297.749 33.6C297.809 33.54 297.869 33.51 297.929 33.51L300.179 33.36Z" fill="#202229"/>
<path d="M357.002 33.36C358.562 33.24 359.332 33.18 359.312 33.18C359.492 33.18 359.612 33.25 359.672 33.39C359.692 33.47 358.972 36.45 357.512 42.33L355.232 51.45C355.192 51.91 355.192 52.28 355.232 52.56C355.272 52.66 355.332 52.74 355.412 52.8C355.472 52.86 355.562 52.89 355.682 52.89C355.822 52.89 355.932 52.87 356.012 52.83C356.392 52.55 356.782 51.64 357.182 50.1C357.282 49.72 357.362 49.51 357.422 49.47C357.462 49.43 357.702 49.41 358.142 49.41C358.582 49.41 358.832 49.43 358.892 49.47C358.932 49.51 358.952 49.59 358.952 49.71C358.952 49.83 358.902 50.07 358.802 50.43C358.042 53.01 356.942 54.31 355.502 54.33C355.362 54.33 355.222 54.32 355.082 54.3C353.842 54.14 353.052 53.49 352.712 52.35C352.592 51.91 352.572 51.44 352.652 50.94L354.542 43.35C355.822 38.23 356.422 35.59 356.342 35.43C356.202 35.29 355.772 35.21 355.052 35.19C354.572 35.19 354.292 35.12 354.212 34.98L354.182 34.89L354.332 34.29C354.412 33.91 354.492 33.68 354.572 33.6C354.632 33.54 354.692 33.51 354.752 33.51L357.002 33.36Z" fill="#202229"/>
<path d="M318.34 39.623C318.622 39.623 318.855 39.7188 319.037 39.9102C319.219 40.0924 319.311 40.3294 319.311 40.6211C319.311 41.0221 319.169 41.3776 318.887 41.6875C318.613 41.9883 318.303 42.1387 317.957 42.1387C317.684 42.1387 317.456 42.043 317.273 41.8516C317.091 41.6602 317 41.4095 317 41.0996C317 40.6895 317.132 40.3431 317.396 40.0605C317.661 39.7689 317.975 39.623 318.34 39.623ZM312.953 48.6738L312.352 48.209C313.263 47.2064 314.092 46.4954 314.84 46.0762C315.596 45.6478 316.239 45.4336 316.768 45.4336C317.059 45.4336 317.283 45.4974 317.438 45.625C317.592 45.7526 317.67 45.9258 317.67 46.1445C317.67 46.4089 317.374 47.5299 316.781 49.5078C315.815 52.7435 315.332 54.694 315.332 55.3594C315.332 55.487 315.364 55.5964 315.428 55.6875C315.492 55.7695 315.56 55.8105 315.633 55.8105C315.924 55.8105 316.672 55.2454 317.875 54.1152L318.408 54.6348C317.16 55.8105 316.248 56.5625 315.674 56.8906C315.1 57.2188 314.63 57.3828 314.266 57.3828C313.947 57.3828 313.691 57.2826 313.5 57.082C313.318 56.8815 313.227 56.6035 313.227 56.248C313.227 55.1087 313.91 52.3242 315.277 47.8945C315.341 47.6849 315.373 47.498 315.373 47.334C315.373 47.1517 315.291 47.0605 315.127 47.0605C314.945 47.0605 314.735 47.1335 314.498 47.2793C314.27 47.4251 313.755 47.89 312.953 48.6738Z" fill="#202229"/>
<path d="M368.34 39.623C368.622 39.623 368.855 39.7188 369.037 39.9102C369.219 40.0924 369.311 40.3294 369.311 40.6211C369.311 41.0221 369.169 41.3776 368.887 41.6875C368.613 41.9883 368.303 42.1387 367.957 42.1387C367.684 42.1387 367.456 42.043 367.273 41.8516C367.091 41.6602 367 41.4095 367 41.0996C367 40.6895 367.132 40.3431 367.396 40.0605C367.661 39.7689 367.975 39.623 368.34 39.623ZM362.953 48.6738L362.352 48.209C363.263 47.2064 364.092 46.4954 364.84 46.0762C365.596 45.6478 366.239 45.4336 366.768 45.4336C367.059 45.4336 367.283 45.4974 367.438 45.625C367.592 45.7526 367.67 45.9258 367.67 46.1445C367.67 46.4089 367.374 47.5299 366.781 49.5078C365.815 52.7435 365.332 54.694 365.332 55.3594C365.332 55.487 365.364 55.5964 365.428 55.6875C365.492 55.7695 365.56 55.8105 365.633 55.8105C365.924 55.8105 366.672 55.2454 367.875 54.1152L368.408 54.6348C367.16 55.8105 366.248 56.5625 365.674 56.8906C365.1 57.2188 364.63 57.3828 364.266 57.3828C363.947 57.3828 363.691 57.2826 363.5 57.082C363.318 56.8815 363.227 56.6035 363.227 56.248C363.227 55.1087 363.91 52.3242 365.277 47.8945C365.341 47.6849 365.373 47.498 365.373 47.334C365.373 47.1517 365.291 47.0605 365.127 47.0605C364.945 47.0605 364.735 47.1335 364.498 47.2793C364.27 47.4251 363.755 47.89 362.953 48.6738Z" fill="#202229"/>
<line x1="329.9" y1="48.1" x2="342.1" y2="48.1" stroke="#202229" stroke-width="1.8" stroke-linecap="round" stroke-linejoin="round"/>
<path d="M215.929 48.398L216.114 48.25H216.78H217.409L217.52 48.361C217.594 48.435 217.631 48.509 217.631 48.583C217.631 48.6817 217.532 48.842 217.335 49.064C216.619 49.804 215.953 50.6427 215.337 51.58C214.029 53.6027 213.08 55.9337 212.488 58.573C211.526 62.6183 211.341 66.972 211.933 71.634C212.056 72.7933 212.241 73.8787 212.488 74.89C213.351 78.7133 214.967 81.8953 217.335 84.436C217.532 84.658 217.631 84.8183 217.631 84.917C217.631 84.991 217.594 85.065 217.52 85.139L217.409 85.25H216.78H216.114L215.929 85.102C215.312 84.5593 214.831 84.103 214.486 83.733C211.032 80.0823 209.084 75.1613 208.64 68.97C208.541 67.934 208.529 66.5897 208.603 64.937C208.627 64.7643 208.64 64.6287 208.64 64.53C209.084 58.3387 211.032 53.4177 214.486 49.767C214.831 49.397 215.312 48.9407 215.929 48.398Z" fill="#202229"/>
<path d="M447.53 48.287C447.579 48.2623 447.813 48.25 448.233 48.25H448.862L449.047 48.398C449.663 48.9407 450.144 49.397 450.49 49.767C453.943 53.4177 455.892 58.3387 456.336 64.53C456.434 65.566 456.447 66.9103 456.373 68.563C456.348 68.7357 456.336 68.8713 456.336 68.97C455.892 75.1613 453.943 80.0823 450.49 83.733C450.144 84.103 449.663 84.5593 449.047 85.102L448.862 85.25H448.233C447.715 85.25 447.431 85.176 447.382 85.028C447.357 84.9787 447.345 84.917 447.345 84.843C447.369 84.7937 447.517 84.6087 447.789 84.288C450.083 81.772 451.649 78.6393 452.488 74.89C453.45 70.8693 453.635 66.528 453.043 61.866C452.919 60.682 452.734 59.5843 452.488 58.573C451.649 54.8483 450.083 51.728 447.789 49.212C447.517 48.8913 447.369 48.7063 447.345 48.657C447.345 48.4843 447.406 48.361 447.53 48.287Z" fill="#202229"/>
<line x1="221" y1="67" x2="438" y2="67" stroke="#202229" stroke-width="2" stroke-linecap="round" stroke-linejoin="round"/>
<path d="M246.277 81.62L246.457 81.5H246.967H247.477L247.567 81.59C247.627 81.65 247.657 81.72 247.657 81.8C247.657 81.86 247.557 81.98 247.357 82.16C246.817 82.68 246.347 83.15 245.947 83.57C243.267 86.55 241.247 90.51 239.887 95.45C239.207 97.87 238.767 100.14 238.567 102.26C238.467 103.44 238.457 104.46 238.537 105.32C238.677 107.46 239.207 109.31 240.127 110.87C240.267 111.11 240.317 111.27 240.277 111.35C240.197 111.45 239.957 111.5 239.557 111.5H239.077L238.927 111.38C238.607 111.04 238.217 110.46 237.757 109.64C237.077 108.38 236.637 106.95 236.437 105.35C236.077 102.73 236.337 99.69 237.217 96.23C238.497 91.39 240.517 87.44 243.277 84.38C244.197 83.34 245.157 82.45 246.157 81.71C246.197 81.67 246.237 81.64 246.277 81.62ZM251.982 83.6L252.072 83.51H255.162C257.282 83.51 258.382 83.57 258.462 83.69C258.482 83.71 258.722 86.39 259.182 91.73C259.622 97.09 259.842 99.75 259.842 99.71L264.432 91.85C267.512 86.57 269.072 83.9 269.112 83.84C269.192 83.72 269.282 83.64 269.382 83.6L269.532 83.51H272.562H275.562L275.682 83.6C275.742 83.68 275.772 83.75 275.772 83.81L275.502 85.01C275.242 85.13 274.862 85.19 274.362 85.19C273.502 85.21 272.982 85.25 272.802 85.31L272.652 85.4L272.622 85.43C272.562 85.49 271.842 88.29 270.462 93.83C269.082 99.39 268.402 102.17 268.422 102.17C268.522 102.27 269.122 102.32 270.222 102.32C270.702 102.32 270.972 102.39 271.032 102.53C271.072 102.59 271.042 102.82 270.942 103.22C270.862 103.6 270.782 103.83 270.702 103.91L270.612 104H270.162C268.142 103.9 265.852 103.89 263.292 103.97C262.692 103.99 262.352 103.93 262.272 103.79C262.232 103.73 262.262 103.5 262.362 103.1C262.462 102.72 262.532 102.49 262.572 102.41L262.692 102.32H263.622C264.562 102.3 265.092 102.26 265.212 102.2C265.312 102.14 265.392 102.01 265.452 101.81C265.592 101.43 266.262 98.83 267.462 94.01C268.782 88.65 269.442 85.99 269.442 86.03C269.422 86.03 267.702 88.97 264.282 94.85C260.822 100.77 259.082 103.74 259.062 103.76L258.852 103.94C258.772 103.98 258.542 104 258.162 104C257.682 104 257.422 103.94 257.382 103.82C257.342 103.72 257.082 100.78 256.602 95L255.882 86.24L253.992 93.8C252.732 98.78 252.102 101.34 252.102 101.48C252.102 101.6 252.112 101.67 252.132 101.69C252.292 102.11 252.932 102.32 254.052 102.32C254.332 102.32 254.492 102.39 254.532 102.53C254.572 102.59 254.542 102.82 254.442 103.22C254.362 103.6 254.282 103.83 254.202 103.91L254.112 104H253.722C251.902 103.9 249.932 103.89 247.812 103.97C247.312 103.99 247.022 103.93 246.942 103.79C246.902 103.73 246.932 103.5 247.032 103.1C247.132 102.7 247.212 102.47 247.272 102.41C247.332 102.35 247.462 102.32 247.662 102.32C249.082 102.32 249.952 101.99 250.272 101.33L254.262 85.4C254.262 85.34 254.242 85.31 254.202 85.31C254.082 85.27 253.612 85.23 252.792 85.19C252.092 85.19 251.702 85.12 251.622 84.98C251.602 84.92 251.632 84.69 251.712 84.29C251.812 83.91 251.902 83.68 251.982 83.6ZM281.486 84.38C282.206 84.2 282.726 84.38 283.046 84.92C283.146 85.1 283.206 85.3 283.226 85.52C283.226 85.82 283.156 86.11 283.016 86.39C282.556 87.03 281.976 87.4 281.276 87.5C281.056 87.5 280.826 87.44 280.586 87.32C280.386 87.22 280.226 87.04 280.106 86.78C280.046 86.7 280.006 86.54 279.986 86.3C279.986 85.98 280.046 85.7 280.166 85.46C280.446 84.9 280.886 84.54 281.486 84.38ZM278.906 90.8C279.046 90.76 279.266 90.74 279.566 90.74C280.026 90.76 280.426 90.86 280.766 91.04C281.026 91.18 281.226 91.33 281.366 91.49C281.526 91.63 281.676 91.83 281.816 92.09C281.996 92.47 282.076 92.87 282.056 93.29C282.056 93.63 282.036 93.87 281.996 94.01C281.976 94.05 281.526 95.3 280.646 97.76C279.806 100 279.356 101.24 279.296 101.48C279.096 102.14 279.066 102.58 279.206 102.8C279.306 102.92 279.516 102.94 279.836 102.86C280.616 102.68 281.246 101.71 281.726 99.95C281.826 99.63 281.926 99.46 282.026 99.44C282.086 99.42 282.296 99.41 282.656 99.41C283.096 99.41 283.336 99.43 283.376 99.47C283.496 99.55 283.496 99.76 283.376 100.1C283.156 100.88 282.826 101.61 282.386 102.29C281.586 103.49 280.676 104.16 279.656 104.3C279.296 104.38 278.926 104.36 278.546 104.24C278.146 104.12 277.816 103.97 277.556 103.79C277.116 103.43 276.826 102.92 276.686 102.26C276.606 101.88 276.626 101.48 276.746 101.06C276.786 100.9 277.226 99.67 278.066 97.37C278.786 95.45 279.246 94.19 279.446 93.59C279.646 92.97 279.676 92.54 279.536 92.3C279.476 92.14 279.266 92.11 278.906 92.21C278.306 92.35 277.776 92.98 277.316 94.1C277.056 95 276.926 95.43 276.926 95.39C276.866 95.51 276.826 95.58 276.806 95.6C276.766 95.64 276.526 95.66 276.086 95.66H275.426L275.336 95.57C275.276 95.51 275.246 95.43 275.246 95.33C275.286 95.01 275.456 94.51 275.756 93.83C275.996 93.31 276.246 92.88 276.506 92.54C276.766 92.18 277.096 91.82 277.496 91.46C277.936 91.12 278.406 90.9 278.906 90.8ZM288.345 90.8C288.685 90.7 289.115 90.71 289.635 90.83C290.115 90.95 290.525 91.17 290.865 91.49C291.165 91.79 291.365 92.08 291.465 92.36L291.585 92.6L291.825 92.39C292.685 91.53 293.665 91.01 294.765 90.83C295.485 90.69 296.145 90.7 296.745 90.86C297.525 91.02 298.115 91.36 298.515 91.88C298.735 92.16 298.915 92.53 299.055 92.99C299.095 93.17 299.115 93.5 299.115 93.98C299.115 94.5 299.105 94.83 299.085 94.97C298.865 96.11 298.325 97.88 297.465 100.28C297.145 101.14 296.955 101.73 296.895 102.05C296.835 102.55 296.895 102.83 297.075 102.89C297.315 102.97 297.595 102.92 297.915 102.74C298.535 102.36 299.055 101.43 299.475 99.95C299.575 99.63 299.675 99.46 299.775 99.44C299.835 99.42 300.045 99.41 300.405 99.41C300.845 99.41 301.085 99.43 301.125 99.47C301.245 99.55 301.245 99.76 301.125 100.1C300.905 100.88 300.575 101.61 300.135 102.29C299.335 103.49 298.425 104.16 297.405 104.3C297.045 104.38 296.675 104.36 296.295 104.24C295.715 104.12 295.275 103.85 294.975 103.43C294.595 102.97 294.405 102.43 294.405 101.81C294.405 101.43 294.555 100.81 294.855 99.95C295.835 97.31 296.385 95.44 296.505 94.34C296.585 93.86 296.575 93.41 296.475 92.99C296.335 92.59 296.135 92.34 295.875 92.24C295.675 92.14 295.365 92.12 294.945 92.18C293.625 92.38 292.485 93.38 291.525 95.18L291.285 95.6L290.325 99.41C289.685 101.99 289.335 103.33 289.275 103.43C289.015 103.95 288.585 104.25 287.985 104.33C287.825 104.35 287.675 104.34 287.535 104.3C287.035 104.16 286.765 103.85 286.725 103.37C286.725 103.19 287.105 101.57 287.865 98.51C288.645 95.49 289.055 93.84 289.095 93.56C289.155 93.04 289.135 92.66 289.035 92.42C288.955 92.28 288.825 92.19 288.645 92.15C288.525 92.15 288.425 92.18 288.345 92.24C288.045 92.42 287.765 92.91 287.505 93.71C287.405 93.99 287.245 94.55 287.025 95.39C286.965 95.51 286.925 95.58 286.905 95.6C286.865 95.64 286.625 95.66 286.185 95.66H285.525L285.435 95.57C285.375 95.51 285.345 95.43 285.345 95.33L285.525 94.64C286.025 92.9 286.665 91.75 287.445 91.19C287.765 90.99 288.065 90.86 288.345 90.8ZM315.121 81.62L315.301 81.5H315.811H316.321L316.411 81.59C316.471 81.65 316.501 81.72 316.501 81.8C316.501 81.86 316.401 81.98 316.201 82.16C315.661 82.68 315.191 83.15 314.791 83.57C312.111 86.55 310.091 90.51 308.731 95.45C308.051 97.87 307.611 100.14 307.411 102.26C307.311 103.44 307.301 104.46 307.381 105.32C307.521 107.46 308.051 109.31 308.971 110.87C309.111 111.11 309.161 111.27 309.121 111.35C309.041 111.45 308.801 111.5 308.401 111.5H307.921L307.771 111.38C307.451 111.04 307.061 110.46 306.601 109.64C305.921 108.38 305.481 106.95 305.281 105.35C304.921 102.73 305.181 99.69 306.061 96.23C307.341 91.39 309.361 87.44 312.121 84.38C313.041 83.34 314.001 82.45 315.001 81.71C315.041 81.67 315.081 81.64 315.121 81.62ZM325.326 84.05L326.106 84.02H326.136C326.816 84.04 327.456 84.19 328.056 84.47C328.936 84.91 329.606 85.58 330.066 86.48C330.466 87.26 330.666 88.15 330.666 89.15C330.666 89.67 330.616 90.17 330.516 90.65C330.316 91.65 329.866 92.59 329.166 93.47C328.946 93.77 328.476 94.25 327.756 94.91C326.876 95.61 325.716 96.4 324.276 97.28C323.796 97.54 323.366 97.8 322.986 98.06C321.826 98.74 320.776 99.65 319.836 100.79C319.856 100.95 319.896 101.04 319.956 101.06C320.336 101.06 321.156 101.18 322.416 101.42C324.096 101.74 325.196 101.86 325.716 101.78C326.616 101.64 327.356 101.06 327.936 100.04C328.076 99.78 328.196 99.52 328.296 99.26C328.376 99 328.466 98.86 328.566 98.84C328.626 98.82 328.836 98.81 329.196 98.81H329.856L329.946 98.9C330.006 98.96 330.036 99.03 330.036 99.11C329.996 99.33 329.856 99.75 329.616 100.37C328.776 102.49 327.596 103.84 326.076 104.42C325.896 104.48 325.726 104.53 325.566 104.57C325.406 104.61 325.146 104.63 324.786 104.63C324.426 104.63 324.156 104.61 323.976 104.57C323.416 104.43 322.746 104.1 321.966 103.58C320.946 102.92 320.136 102.55 319.536 102.47C319.136 102.41 318.816 102.54 318.576 102.86C318.436 103.06 318.266 103.48 318.066 104.12C317.966 104.44 317.866 104.61 317.766 104.63C317.686 104.65 317.466 104.66 317.106 104.66H316.476L316.386 104.57C316.306 104.47 316.316 104.26 316.416 103.94C317.136 101.42 318.656 99.29 320.976 97.55C321.396 97.23 321.826 96.94 322.266 96.68C324.546 95.32 326.096 93.8 326.916 92.12C327.156 91.62 327.396 90.81 327.636 89.69C327.776 89.01 327.846 88.4 327.846 87.86C327.846 87.3 327.766 86.85 327.606 86.51C327.346 85.99 326.926 85.65 326.346 85.49C326.046 85.41 325.656 85.41 325.176 85.49C324.756 85.59 324.436 85.7 324.216 85.82C323.336 86.24 322.566 86.97 321.906 88.01C321.626 88.41 321.316 89 320.976 89.78C320.356 91.3 320.246 92.2 320.646 92.48C320.766 92.56 320.976 92.54 321.276 92.42C321.936 92.2 322.476 91.55 322.896 90.47C322.916 90.41 322.936 90.36 322.956 90.32C323.256 89.54 323.286 88.92 323.046 88.46C322.926 88.26 322.896 88.11 322.956 88.01C323.176 87.79 323.466 87.56 323.826 87.32C323.946 87.24 324.056 87.27 324.156 87.41C324.276 87.55 324.386 87.78 324.486 88.1C324.726 88.78 324.666 89.61 324.306 90.59C323.686 92.21 322.786 93.25 321.606 93.71C321.506 93.75 321.396 93.79 321.276 93.83C320.896 93.93 320.536 93.95 320.196 93.89C319.416 93.71 318.956 93.18 318.816 92.3C318.756 91.9 318.776 91.49 318.876 91.07C319.096 90.03 319.526 88.99 320.166 87.95C321.306 85.99 322.776 84.75 324.576 84.23C324.836 84.15 325.086 84.09 325.326 84.05ZM345.323 100.13C345.963 99.97 346.493 100.1 346.913 100.52C347.133 100.72 347.273 101 347.333 101.36C347.613 102.42 347.373 103.78 346.613 105.44C345.913 107 344.863 108.37 343.463 109.55C343.203 109.79 343.013 109.87 342.893 109.79C342.833 109.75 342.733 109.63 342.593 109.43C342.373 109.11 342.283 108.92 342.323 108.86C342.343 108.82 342.463 108.69 342.683 108.47C344.103 107.23 345.083 105.82 345.623 104.24L345.773 103.85L345.593 103.91C345.253 104.03 344.903 104.05 344.543 103.97C344.243 103.91 344.003 103.8 343.823 103.64C343.463 103.3 343.313 102.84 343.373 102.26C343.513 101.34 343.983 100.69 344.783 100.31C344.963 100.23 345.143 100.17 345.323 100.13ZM363.852 84.05L364.122 84.02H364.152C364.372 84.02 364.512 84.09 364.572 84.23C364.592 84.31 363.872 87.3 362.412 93.2C360.912 99.12 360.162 102.09 360.162 102.11C360.142 102.17 360.282 102.22 360.582 102.26C360.882 102.28 361.372 102.3 362.052 102.32C362.832 102.32 363.252 102.39 363.312 102.53C363.352 102.59 363.322 102.82 363.222 103.22C363.102 103.64 363.022 103.87 362.982 103.91L362.892 104H362.412C360.212 103.9 357.642 103.89 354.702 103.97C354.022 103.99 353.642 103.93 353.562 103.79C353.542 103.73 353.572 103.5 353.652 103.1C353.772 102.7 353.852 102.47 353.892 102.41L354.012 102.32H355.152C356.372 102.3 357.082 102.22 357.282 102.08C357.362 102.04 357.952 99.78 359.052 95.3L360.732 88.58L360.342 88.79C359.462 89.23 358.592 89.48 357.732 89.54C357.352 89.58 357.112 89.52 357.012 89.36L356.982 89.27L357.102 88.73C357.222 88.25 357.332 87.98 357.432 87.92C357.452 87.92 357.622 87.9 357.942 87.86C358.682 87.8 359.452 87.58 360.252 87.2C361.552 86.54 362.672 85.58 363.612 84.32C363.672 84.24 363.752 84.15 363.852 84.05ZM380.224 84.05H381.274C382.114 84.17 382.714 84.48 383.074 84.98C383.254 85.22 383.384 85.49 383.464 85.79C383.524 86.03 383.554 86.19 383.554 86.27C383.634 86.91 383.544 87.48 383.284 87.98C382.964 88.66 382.424 89.04 381.664 89.12C381.024 89.18 380.584 88.95 380.344 88.43C380.284 88.33 380.244 88.17 380.224 87.95C380.224 87.61 380.294 87.3 380.434 87.02C380.654 86.54 381.034 86.22 381.574 86.06L381.664 86L381.544 85.88C381.064 85.4 380.314 85.36 379.294 85.76C378.934 85.88 378.594 86.05 378.274 86.27C376.994 87.11 375.994 88.52 375.274 90.5C375.254 90.56 375.234 90.62 375.214 90.68C374.874 91.7 374.704 92.26 374.704 92.36C374.704 92.4 374.784 92.34 374.944 92.18C375.644 91.54 376.434 91.11 377.314 90.89C377.754 90.81 378.284 90.81 378.904 90.89C379.864 91.09 380.614 91.69 381.154 92.69C381.194 92.75 381.234 92.82 381.274 92.9C381.674 93.66 381.884 94.45 381.904 95.27C381.924 95.99 381.814 96.83 381.574 97.79C381.094 99.63 380.204 101.18 378.904 102.44C378.864 102.48 378.824 102.52 378.784 102.56C378.064 103.26 377.384 103.76 376.744 104.06C376.064 104.38 375.414 104.57 374.794 104.63C374.174 104.67 373.714 104.66 373.414 104.6C372.654 104.42 372.014 104.06 371.494 103.52C370.874 102.88 370.464 101.9 370.264 100.58C370.184 99.96 370.174 99.11 370.234 98.03C370.254 97.93 370.264 97.85 370.264 97.79C370.464 96.33 370.744 94.96 371.104 93.68C371.944 90.7 373.434 88.25 375.574 86.33C375.854 86.07 376.144 85.83 376.444 85.61C377.744 84.67 379.004 84.15 380.224 84.05ZM377.914 92.27H377.104C376.584 92.33 376.074 92.59 375.574 93.05C374.594 93.99 373.824 95.66 373.264 98.06C372.904 99.68 372.724 100.69 372.724 101.09C372.724 102.03 373.114 102.66 373.894 102.98C373.994 103.02 374.194 103.04 374.494 103.04C374.914 103.04 375.284 102.98 375.604 102.86C376.124 102.66 376.574 102.3 376.954 101.78C377.314 101.28 377.804 99.82 378.424 97.4C378.884 95.52 379.124 94.35 379.144 93.89C379.144 93.65 379.124 93.46 379.084 93.32C378.904 92.74 378.514 92.39 377.914 92.27ZM390.837 81.53C390.877 81.51 391.067 81.5 391.407 81.5H391.917L392.067 81.62C392.387 81.96 392.777 82.54 393.237 83.36C393.897 84.6 394.337 86.02 394.557 87.62C394.917 90.28 394.657 93.32 393.777 96.74C392.497 101.6 390.477 105.56 387.717 108.62C386.797 109.66 385.837 110.55 384.837 111.29C384.797 111.33 384.757 111.36 384.717 111.38L384.537 111.5H384.027H383.517L383.427 111.41C383.367 111.35 383.337 111.28 383.337 111.2C383.337 111.14 383.437 111.02 383.637 110.84C384.237 110.28 384.707 109.8 385.047 109.4C387.727 106.44 389.747 102.48 391.107 97.52C391.767 95.14 392.207 92.88 392.427 90.74C392.527 89.58 392.537 88.55 392.457 87.65C392.317 85.53 391.787 83.69 390.867 82.13C390.747 81.93 390.687 81.82 390.687 81.8C390.687 81.68 390.737 81.59 390.837 81.53ZM404.012 81.53C404.052 81.51 404.242 81.5 404.582 81.5H405.092L405.242 81.62C405.562 81.96 405.952 82.54 406.412 83.36C407.072 84.6 407.512 86.02 407.732 87.62C408.092 90.28 407.832 93.32 406.952 96.74C405.672 101.6 403.652 105.56 400.892 108.62C399.972 109.66 399.012 110.55 398.012 111.29C397.972 111.33 397.932 111.36 397.892 111.38L397.712 111.5H397.202H396.692L396.602 111.41C396.542 111.35 396.512 111.28 396.512 111.2C396.512 111.14 396.612 111.02 396.812 110.84C397.412 110.28 397.882 109.8 398.222 109.4C400.902 106.44 402.922 102.48 404.282 97.52C404.942 95.14 405.382 92.88 405.602 90.74C405.702 89.58 405.712 88.55 405.632 87.65C405.492 85.53 404.962 83.69 404.042 82.13C403.922 81.93 403.862 81.82 403.862 81.8C403.862 81.68 403.912 81.59 404.012 81.53ZM416.017 83.36C417.577 83.24 418.347 83.18 418.327 83.18C418.507 83.18 418.627 83.25 418.687 83.39C418.707 83.47 417.987 86.45 416.527 92.33L414.247 101.45C414.207 101.91 414.207 102.28 414.247 102.56C414.287 102.66 414.347 102.74 414.427 102.8C414.487 102.86 414.577 102.89 414.697 102.89C414.837 102.89 414.947 102.87 415.027 102.83C415.407 102.55 415.797 101.64 416.197 100.1C416.297 99.72 416.377 99.51 416.437 99.47C416.477 99.43 416.717 99.41 417.157 99.41C417.597 99.41 417.847 99.43 417.907 99.47C417.947 99.51 417.967 99.59 417.967 99.71C417.967 99.83 417.917 100.07 417.817 100.43C417.057 103.01 415.957 104.31 414.517 104.33C414.377 104.33 414.237 104.32 414.097 104.3C412.857 104.14 412.067 103.49 411.727 102.35C411.607 101.91 411.587 101.44 411.667 100.94L413.557 93.35C414.837 88.23 415.437 85.59 415.357 85.43C415.217 85.29 414.787 85.21 414.067 85.19C413.587 85.19 413.307 85.12 413.227 84.98L413.197 84.89L413.347 84.29C413.427 83.91 413.507 83.68 413.587 83.6C413.647 83.54 413.707 83.51 413.767 83.51L416.017 83.36Z" fill="#202229"/>
<path d="M339.866 73.342C340.514 73.18 340.982 73.342 341.27 73.828C341.36 73.99 341.414 74.17 341.432 74.368C341.432 74.638 341.369 74.899 341.243 75.151C340.829 75.727 340.307 76.06 339.677 76.15C339.479 76.15 339.272 76.096 339.056 75.988C338.876 75.898 338.732 75.736 338.624 75.502C338.57 75.43 338.534 75.286 338.516 75.07C338.516 74.782 338.57 74.53 338.678 74.314C338.93 73.81 339.326 73.486 339.866 73.342ZM337.544 79.12C337.67 79.084 337.868 79.066 338.138 79.066C338.552 79.084 338.912 79.174 339.218 79.336C339.452 79.462 339.632 79.597 339.758 79.741C339.902 79.867 340.037 80.047 340.163 80.281C340.325 80.623 340.397 80.983 340.379 81.361C340.379 81.667 340.361 81.883 340.325 82.009C340.307 82.045 339.902 83.17 339.11 85.384C338.354 87.4 337.949 88.516 337.895 88.732C337.715 89.326 337.688 89.722 337.814 89.92C337.904 90.028 338.093 90.046 338.381 89.974C339.083 89.812 339.65 88.939 340.082 87.355C340.172 87.067 340.262 86.914 340.352 86.896C340.406 86.878 340.595 86.869 340.919 86.869C341.315 86.869 341.531 86.887 341.567 86.923C341.675 86.995 341.675 87.184 341.567 87.49C341.369 88.192 341.072 88.849 340.676 89.461C339.956 90.541 339.137 91.144 338.219 91.27C337.895 91.342 337.562 91.324 337.22 91.216C336.86 91.108 336.563 90.973 336.329 90.811C335.933 90.487 335.672 90.028 335.546 89.434C335.474 89.092 335.492 88.732 335.6 88.354C335.636 88.21 336.032 87.103 336.788 85.033C337.436 83.305 337.85 82.171 338.03 81.631C338.21 81.073 338.237 80.686 338.111 80.47C338.057 80.326 337.868 80.299 337.544 80.389C337.004 80.515 336.527 81.082 336.113 82.09C335.879 82.9 335.762 83.287 335.762 83.251C335.708 83.359 335.672 83.422 335.654 83.44C335.618 83.476 335.402 83.494 335.006 83.494H334.412L334.331 83.413C334.277 83.359 334.25 83.287 334.25 83.197C334.286 82.909 334.439 82.459 334.709 81.847C334.925 81.379 335.15 80.992 335.384 80.686C335.618 80.362 335.915 80.038 336.275 79.714C336.671 79.408 337.094 79.21 337.544 79.12Z" fill="#202229"/>
<path d="M426.866 89.342C427.514 89.18 427.982 89.342 428.27 89.828C428.36 89.99 428.414 90.17 428.432 90.368C428.432 90.638 428.369 90.899 428.243 91.151C427.829 91.727 427.307 92.06 426.677 92.15C426.479 92.15 426.272 92.096 426.056 91.988C425.876 91.898 425.732 91.736 425.624 91.502C425.57 91.43 425.534 91.286 425.516 91.07C425.516 90.782 425.57 90.53 425.678 90.314C425.93 89.81 426.326 89.486 426.866 89.342ZM424.544 95.12C424.67 95.084 424.868 95.066 425.138 95.066C425.552 95.084 425.912 95.174 426.218 95.336C426.452 95.462 426.632 95.597 426.758 95.741C426.902 95.867 427.037 96.047 427.163 96.281C427.325 96.623 427.397 96.983 427.379 97.361C427.379 97.667 427.361 97.883 427.325 98.009C427.307 98.045 426.902 99.17 426.11 101.384C425.354 103.4 424.949 104.516 424.895 104.732C424.715 105.326 424.688 105.722 424.814 105.92C424.904 106.028 425.093 106.046 425.381 105.974C426.083 105.812 426.65 104.939 427.082 103.355C427.172 103.067 427.262 102.914 427.352 102.896C427.406 102.878 427.595 102.869 427.919 102.869C428.315 102.869 428.531 102.887 428.567 102.923C428.675 102.995 428.675 103.184 428.567 103.49C428.369 104.192 428.072 104.849 427.676 105.461C426.956 106.541 426.137 107.144 425.219 107.27C424.895 107.342 424.562 107.324 424.22 107.216C423.86 107.108 423.563 106.973 423.329 106.811C422.933 106.487 422.672 106.028 422.546 105.434C422.474 105.092 422.492 104.732 422.6 104.354C422.636 104.21 423.032 103.103 423.788 101.033C424.436 99.305 424.85 98.171 425.03 97.631C425.21 97.073 425.237 96.686 425.111 96.47C425.057 96.326 424.868 96.299 424.544 96.389C424.004 96.515 423.527 97.082 423.113 98.09C422.879 98.9 422.762 99.287 422.762 99.251C422.708 99.359 422.672 99.422 422.654 99.44C422.618 99.476 422.402 99.494 422.006 99.494H421.412L421.331 99.413C421.277 99.359 421.25 99.287 421.25 99.197C421.286 98.909 421.439 98.459 421.709 97.847C421.925 97.379 422.15 96.992 422.384 96.686C422.618 96.362 422.915 96.038 423.275 95.714C423.671 95.408 424.094 95.21 424.544 95.12Z" fill="#202229"/>
<path d="M142.135 44.06C142.195 44.02 148.245 44 160.285 44H178.345L180.055 47.96C181.295 50.88 181.895 52.29 181.855 52.19L181.975 52.43H181.225H180.475L180.325 52.13C179.945 51.29 179.375 50.49 178.615 49.73C177.715 48.83 176.675 48.08 175.495 47.48C174.775 47.12 173.905 46.78 172.885 46.46C171.365 46.02 169.475 45.72 167.215 45.56C166.195 45.5 162.735 45.46 156.835 45.44H148.255C148.255 45.48 150.615 48.71 155.335 55.13C160.035 61.63 162.395 64.89 162.415 64.91C162.435 64.93 162.445 64.98 162.445 65.06C162.405 65.16 159.765 68.13 154.525 73.97C149.265 79.85 146.595 82.83 146.515 82.91L146.395 83.06H155.635C162.795 83.04 166.965 82.98 168.145 82.88C168.225 82.86 168.315 82.85 168.415 82.85C171.635 82.59 174.205 81.92 176.125 80.84C176.845 80.42 177.365 80.07 177.685 79.79C178.985 78.75 179.875 77.6 180.355 76.34L180.475 76.1C180.475 76.08 180.725 76.07 181.225 76.07H181.975L180.145 81.02L178.345 85.97L160.315 86C148.275 86 142.235 85.99 142.195 85.97C142.055 85.91 141.985 85.81 141.985 85.67C141.985 85.63 142.005 85.57 142.045 85.49C142.225 85.31 144.925 82.29 150.145 76.43C155.525 70.43 158.205 67.41 158.185 67.37C158.085 67.27 155.375 63.57 150.055 56.27L142.015 45.23L141.985 44.78C141.985 44.36 142.035 44.12 142.135 44.06Z" fill="#202229"/>
<path d="M157.79 13.08C157.87 13.02 158.02 13.04 158.24 13.14C158.92 13.42 159.63 13.63 160.37 13.77C162.25 14.13 164.1 14.01 165.92 13.41C166.06 13.37 166.31 13.28 166.67 13.14C166.93 13.02 167.11 13.01 167.21 13.11L167.3 13.2V13.71V14.25L167.12 14.46C166.68 14.94 166.14 15.39 165.5 15.81C164.28 16.57 162.95 17 161.51 17.1C160.61 17.14 159.92 17.1 159.44 16.98L159.32 16.95V19.32V21.66L159.5 21.51C159.96 21.13 160.45 20.85 160.97 20.67C162.33 20.21 163.7 20.32 165.08 21C166.78 21.88 167.86 23.37 168.32 25.47C168.36 25.63 168.39 25.79 168.41 25.95C168.49 26.55 168.49 27.22 168.41 27.96C168.13 29.42 167.52 30.64 166.58 31.62C166.06 32.14 165.45 32.58 164.75 32.94C163.11 33.74 161.56 33.89 160.1 33.39C158.54 32.89 157.46 31.87 156.86 30.33C156.72 30.01 156.62 29.67 156.56 29.31C156.48 28.73 156.47 28.29 156.53 27.99C156.63 27.63 156.79 27.34 157.01 27.12C157.55 26.58 158.21 26.43 158.99 26.67C159.47 26.83 159.81 27.12 160.01 27.54C160.13 27.8 160.19 28.09 160.19 28.41C160.19 28.75 160.13 29.05 160.01 29.31C159.81 29.75 159.43 30.05 158.87 30.21C158.71 30.25 158.61 30.27 158.57 30.27C158.53 30.27 158.56 30.35 158.66 30.51C159 30.99 159.46 31.38 160.04 31.68C160.52 31.94 161.08 32.07 161.72 32.07C162.82 32.07 163.67 31.67 164.27 30.87C164.67 30.35 164.91 29.63 164.99 28.71C165.05 28.17 165.06 27.06 165.02 25.38C165.02 25.14 165.01 24.97 164.99 24.87C164.91 23.99 164.76 23.37 164.54 23.01C164 22.11 163.2 21.72 162.14 21.84C160.84 22 159.87 22.68 159.23 23.88C159.11 24.06 158.97 24.16 158.81 24.18C158.73 24.18 158.6 24.18 158.42 24.18C157.98 24.18 157.74 24.12 157.7 24C157.66 23.92 157.64 22.12 157.64 18.6C157.64 15.04 157.65 13.24 157.67 13.2C157.71 13.12 157.75 13.08 157.79 13.08Z" fill="#202229"/>
<path d="M145.666 95.38C146.386 95.2 146.906 95.38 147.226 95.92C147.326 96.1 147.386 96.3 147.406 96.52C147.406 96.82 147.336 97.11 147.196 97.39C146.736 98.03 146.156 98.4 145.456 98.5C145.236 98.5 145.006 98.44 144.766 98.32C144.566 98.22 144.406 98.04 144.286 97.78C144.226 97.7 144.186 97.54 144.166 97.3C144.166 96.98 144.226 96.7 144.346 96.46C144.626 95.9 145.066 95.54 145.666 95.38ZM143.086 101.8C143.226 101.76 143.446 101.74 143.746 101.74C144.206 101.76 144.606 101.86 144.946 102.04C145.206 102.18 145.406 102.33 145.546 102.49C145.706 102.63 145.856 102.83 145.996 103.09C146.176 103.47 146.256 103.87 146.236 104.29C146.236 104.63 146.216 104.87 146.176 105.01C146.156 105.05 145.706 106.3 144.826 108.76C143.986 111 143.536 112.24 143.476 112.48C143.276 113.14 143.246 113.58 143.386 113.8C143.486 113.92 143.696 113.94 144.016 113.86C144.796 113.68 145.426 112.71 145.906 110.95C146.006 110.63 146.106 110.46 146.206 110.44C146.266 110.42 146.476 110.41 146.836 110.41C147.276 110.41 147.516 110.43 147.556 110.47C147.676 110.55 147.676 110.76 147.556 111.1C147.336 111.88 147.006 112.61 146.566 113.29C145.766 114.49 144.856 115.16 143.836 115.3C143.476 115.38 143.106 115.36 142.726 115.24C142.326 115.12 141.996 114.97 141.736 114.79C141.296 114.43 141.006 113.92 140.866 113.26C140.786 112.88 140.806 112.48 140.926 112.06C140.966 111.9 141.406 110.67 142.246 108.37C142.966 106.45 143.426 105.19 143.626 104.59C143.826 103.97 143.856 103.54 143.716 103.3C143.656 103.14 143.446 103.11 143.086 103.21C142.486 103.35 141.956 103.98 141.496 105.1C141.236 106 141.106 106.43 141.106 106.39C141.046 106.51 141.006 106.58 140.986 106.6C140.946 106.64 140.706 106.66 140.266 106.66H139.606L139.516 106.57C139.456 106.51 139.426 106.43 139.426 106.33C139.466 106.01 139.636 105.51 139.936 104.83C140.176 104.31 140.426 103.88 140.686 103.54C140.946 103.18 141.276 102.82 141.676 102.46C142.116 102.12 142.586 101.9 143.086 101.8ZM149.405 104.05L149.525 103.99H159.065H168.635L168.755 104.05C168.815 104.09 168.895 104.16 168.995 104.26C169.055 104.38 169.085 104.49 169.085 104.59C169.085 104.69 169.055 104.8 168.995 104.92C168.895 105.02 168.825 105.08 168.785 105.1L168.665 105.16L159.125 105.19H149.585L149.405 105.13C149.205 105.01 149.105 104.83 149.105 104.59C149.105 104.45 149.135 104.34 149.195 104.26C149.235 104.18 149.305 104.11 149.405 104.05ZM149.405 109.87L149.585 109.81H159.125H168.665L168.785 109.9C168.825 109.92 168.895 109.98 168.995 110.08C169.055 110.2 169.085 110.31 169.085 110.41C169.085 110.51 169.055 110.62 168.995 110.74C168.895 110.84 168.815 110.91 168.755 110.95L168.635 111.01H159.065H149.525L149.405 110.95C149.305 110.89 149.235 110.82 149.195 110.74C149.135 110.66 149.105 110.55 149.105 110.41C149.105 110.17 149.205 109.99 149.405 109.87ZM179.894 95.14L179.984 95.02H180.344C180.564 95.02 180.704 95.05 180.764 95.11L180.884 95.2V104.14V113.08L180.974 113.14C180.994 113.16 181.064 113.19 181.184 113.23C181.424 113.29 182.224 113.32 183.584 113.32H184.574V114.16V115H184.214L181.634 114.94C180.134 114.92 178.634 114.92 177.134 114.94C175.374 114.98 174.504 115 174.524 115H174.164V114.16V113.32H175.154C176.554 113.32 177.374 113.29 177.614 113.23C177.734 113.19 177.804 113.16 177.824 113.14L177.914 113.08V105.55C177.914 100.53 177.904 98.02 177.884 98.02C176.844 98.42 175.684 98.62 174.404 98.62H174.014V97.78V96.94H174.404C176.164 96.94 177.664 96.58 178.904 95.86C179.404 95.54 179.734 95.3 179.894 95.14Z" fill="#202229"/>
</svg>
