<svg width="323" height="214" viewBox="0 0 323 214" fill="none" xmlns="http://www.w3.org/2000/svg">
<path fill-rule="evenodd" clip-rule="evenodd" d="M65.3362 0L61.9157 13.5479L55.2672 11.4366L61.1992 4.22452L53.5444 10.9159L47.3262 8.97869L65.3362 0Z" fill="#35234F"/>
<path fill-rule="evenodd" clip-rule="evenodd" d="M57.2458 13.1437L55.0566 16.2246V12.4956L57.2458 13.1437Z" fill="#35234F"/>
<g opacity="0.6">
<path opacity="0.6" fill-rule="evenodd" clip-rule="evenodd" d="M49.1475 24.8857L50.0836 23.4854L50.9189 24.0347L49.9774 25.4423L49.1475 24.8857Z" fill="white"/>
<path opacity="0.6" fill-rule="evenodd" clip-rule="evenodd" d="M51.6573 22.9129L50.8184 22.3689L51.7329 20.9541L52.5754 21.4909L51.6573 22.9129Z" fill="white"/>
<path opacity="0.6" fill-rule="evenodd" clip-rule="evenodd" d="M53.3337 18.4062L54.187 18.9251L53.2923 20.365L52.4443 19.8354L53.3337 18.4062Z" fill="white"/>
<path opacity="0.6" fill-rule="evenodd" clip-rule="evenodd" d="M43.9053 32.2898L44.9044 30.9343L45.7128 31.5214L44.7082 32.8841L43.9053 32.2898Z" fill="white"/>
<path opacity="0.6" fill-rule="evenodd" clip-rule="evenodd" d="M46.5014 30.4335L45.6895 29.8518L46.667 28.4819L47.4844 29.0547L46.5014 30.4335Z" fill="white"/>
<path opacity="0.6" fill-rule="evenodd" clip-rule="evenodd" d="M48.3847 26.0078L49.211 26.5698L48.2496 27.963L47.4287 27.3956L48.3847 26.0078Z" fill="white"/>
<path opacity="0.6" fill-rule="evenodd" clip-rule="evenodd" d="M39.3629 38.116L40.137 38.7461L39.0532 40.0514L38.2881 39.4104L39.3629 38.116Z" fill="white"/>
<path opacity="0.6" fill-rule="evenodd" clip-rule="evenodd" d="M40.2031 37.0783L41.2509 35.7605L42.0376 36.3745L40.9826 37.7013L40.2031 37.0783Z" fill="white"/>
<path opacity="0.6" fill-rule="evenodd" clip-rule="evenodd" d="M42.0674 34.7138L43.0918 33.3762L43.8893 33.9777L42.8595 35.3224L42.0674 34.7138Z" fill="white"/>
<path opacity="0.6" fill-rule="evenodd" clip-rule="evenodd" d="M32.1816 46.1034L33.3608 44.9041L34.0809 45.5953L32.8874 46.8071L32.1816 46.1034Z" fill="white"/>
<path opacity="0.6" fill-rule="evenodd" clip-rule="evenodd" d="M34.2793 43.9382L35.4207 42.7012L36.1624 43.3691L35.0102 44.6186L34.2793 43.9382Z" fill="white"/>
<path opacity="0.6" fill-rule="evenodd" clip-rule="evenodd" d="M37.4101 40.4446L38.168 41.0927L37.0536 42.3728L36.3047 41.7139L37.4101 40.4446Z" fill="white"/>
<path opacity="0.6" fill-rule="evenodd" clip-rule="evenodd" d="M27.3067 51.7895C26.8566 52.1414 26.4011 52.4861 25.9349 52.8182L25.3516 52.0085C25.807 51.6853 26.2517 51.3478 26.691 51.0049L27.3067 51.7895Z" fill="white"/>
<path opacity="0.6" fill-rule="evenodd" clip-rule="evenodd" d="M29.6666 49.8324C29.5766 49.9114 29.4848 49.985 29.3948 50.064C29.5892 50.3495 29.7854 50.6349 29.9798 50.9222L29.1499 51.477C28.9789 51.222 28.8043 50.9689 28.6314 50.7157C28.5432 50.7894 28.4568 50.8666 28.3668 50.9402L27.7295 50.1717C28.1598 49.8163 28.5846 49.4518 29.0059 49.0837L29.6666 49.8324Z" fill="white"/>
<path opacity="0.6" fill-rule="evenodd" clip-rule="evenodd" d="M29.9893 48.2006C30.3997 47.82 30.812 47.4412 31.2135 47.0498L31.9066 47.768C31.4997 48.1647 31.082 48.5489 30.6662 48.9349L29.9893 48.2006Z" fill="white"/>
<path opacity="0.6" fill-rule="evenodd" clip-rule="evenodd" d="M18.9532 55.4861L19.2773 56.4287C19.0018 56.5274 18.7246 56.619 18.4384 56.6926C18.1539 56.7698 17.8731 56.8578 17.5814 56.9098L17.3672 55.9367C17.6372 55.89 17.9001 55.8075 18.1647 55.7338C18.4312 55.6656 18.694 55.5812 18.9532 55.4861Z" fill="white"/>
<path opacity="0.6" fill-rule="evenodd" clip-rule="evenodd" d="M22.1439 55.1829C21.6363 55.4594 21.107 55.6963 20.5759 55.9315L20.1816 55.0159C20.6875 54.7915 21.1934 54.5653 21.6813 54.2996L22.1439 55.1829Z" fill="white"/>
<path opacity="0.6" fill-rule="evenodd" clip-rule="evenodd" d="M24.7967 53.6066C24.3142 53.919 23.8353 54.2349 23.3348 54.5204L22.8271 53.6622C23.3096 53.3875 23.7759 53.0787 24.2422 52.7771L24.7967 53.6066Z" fill="white"/>
<path opacity="0.6" fill-rule="evenodd" clip-rule="evenodd" d="M10.4848 54.9368L9.95909 55.7842C9.45141 55.4628 8.95993 55.1128 8.52246 54.7106L9.18316 53.9619C9.58283 54.3318 10.0293 54.6477 10.4848 54.9368Z" fill="white"/>
<path opacity="0.6" fill-rule="evenodd" clip-rule="evenodd" d="M13.1687 56.0178L12.9617 56.9927C12.3694 56.8706 11.7897 56.6839 11.2334 56.4469L11.6277 55.5312C12.1227 55.7431 12.6394 55.9101 13.1687 56.0178Z" fill="white"/>
<path opacity="0.6" fill-rule="evenodd" clip-rule="evenodd" d="M16.0625 56.1523L16.167 57.1434C15.5747 57.2008 14.9734 57.2242 14.3721 57.1847L14.4333 56.19C14.9752 56.2242 15.5207 56.2044 16.0625 56.1523Z" fill="white"/>
<path opacity="0.6" fill-rule="evenodd" clip-rule="evenodd" d="M4.62491 48.2832L3.77878 48.8146C3.47093 48.3317 3.18108 47.8344 2.89844 47.3353L3.77158 46.8523C4.04702 47.3335 4.32606 47.8146 4.62491 48.2832Z" fill="white"/>
<path opacity="0.6" fill-rule="evenodd" clip-rule="evenodd" d="M6.33483 50.7392L5.5391 51.3424C5.18625 50.8918 4.8604 50.4196 4.52734 49.9546L5.35187 49.3909C5.67592 49.8433 5.99097 50.3011 6.33483 50.7392Z" fill="white"/>
<path opacity="0.6" fill-rule="evenodd" clip-rule="evenodd" d="M8.23942 53.0407L7.49771 53.7086C7.11245 53.2741 6.73799 52.8504 6.37793 52.4034L7.15205 51.7732C7.49951 52.2059 7.87217 52.6278 8.23942 53.0407Z" fill="white"/>
<path opacity="0.6" fill-rule="evenodd" clip-rule="evenodd" d="M1.22212 40.0619L0.239166 40.2397C0.132949 39.6651 0.055537 39.0834 0.0195312 38.4964L1.01689 38.4299C1.05109 38.9757 1.12311 39.5215 1.22212 40.0619Z" fill="white"/>
<path opacity="0.6" fill-rule="evenodd" clip-rule="evenodd" d="M1.99092 42.9259L1.04757 43.2544C0.854936 42.7086 0.683909 42.1557 0.538086 41.5919L1.50484 41.3406C1.64346 41.8756 1.80729 42.4052 1.99092 42.9259Z" fill="white"/>
<path opacity="0.6" fill-rule="evenodd" clip-rule="evenodd" d="M3.14904 45.66L2.25249 46.1017C1.99505 45.5864 1.75922 45.0603 1.53418 44.5289L2.45773 44.1465C2.67556 44.6582 2.9006 45.1645 3.14904 45.66Z" fill="white"/>
<path opacity="0.6" fill-rule="evenodd" clip-rule="evenodd" d="M2.74316 31.2899C3.26885 30.9327 3.85754 30.6723 4.47144 30.5054L4.73068 31.4677C4.2248 31.6041 3.74052 31.8178 3.30845 32.1122L2.74316 31.2899Z" fill="white"/>
<path opacity="0.6" fill-rule="evenodd" clip-rule="evenodd" d="M0.662109 33.9112C0.903348 33.3457 1.2202 32.7945 1.62526 32.3008L2.38858 32.9453C2.05913 33.3493 1.79449 33.8089 1.58386 34.2972L0.662109 33.9112Z" fill="white"/>
<path opacity="0.6" fill-rule="evenodd" clip-rule="evenodd" d="M0.999158 37.1105L0 37.0674C0.0234037 36.4731 0.0936148 35.877 0.228636 35.2864L1.20439 35.5036C1.08377 36.0261 1.02076 36.5665 0.999158 37.1105Z" fill="white"/>
<path opacity="0.6" fill-rule="evenodd" clip-rule="evenodd" d="M11.5615 32.9344L12.0404 32.0601C12.5481 32.3401 13.0504 32.6328 13.531 32.9506L12.9873 33.7872C12.5247 33.4802 12.0458 33.2019 11.5615 32.9344Z" fill="white"/>
<path opacity="0.6" fill-rule="evenodd" clip-rule="evenodd" d="M8.84961 31.7496L9.15206 30.7998C9.71555 30.9847 10.2646 31.1948 10.7975 31.439L10.3835 32.3474C9.88297 32.1176 9.36989 31.9201 8.84961 31.7496Z" fill="white"/>
<path opacity="0.6" fill-rule="evenodd" clip-rule="evenodd" d="M5.99658 31.3008L5.96777 30.3044C6.58527 30.281 7.19377 30.3493 7.78426 30.4552L7.60063 31.4355C7.06955 31.3403 6.52946 31.2793 5.99658 31.3008Z" fill="white"/>
<path opacity="0.6" fill-rule="evenodd" clip-rule="evenodd" d="M19.3517 37.7209C19.7639 38.1159 20.1528 38.5307 20.5525 38.9346L19.8306 39.6241C19.4363 39.2273 19.0546 38.8179 18.6514 38.4319L19.3517 37.7209Z" fill="white"/>
<path opacity="0.6" fill-rule="evenodd" clip-rule="evenodd" d="M18.3703 36.7838L17.688 37.5127C17.2776 37.1339 16.8653 36.7569 16.4404 36.396L17.0921 35.6401C17.5314 36.0118 17.9509 36.3978 18.3703 36.7838Z" fill="white"/>
<path opacity="0.6" fill-rule="evenodd" clip-rule="evenodd" d="M16.0537 34.7785L15.4272 35.5559C14.997 35.2022 14.5469 34.8736 14.0986 34.5433L14.6837 33.7354C15.1464 34.0747 15.6109 34.414 16.0537 34.7785Z" fill="white"/>
<path opacity="0.6" fill-rule="evenodd" clip-rule="evenodd" d="M24.6279 45.2131L25.4165 44.6008C25.7675 45.0461 26.1132 45.4949 26.4498 45.9492L25.6505 46.547C25.3174 46.0964 24.9772 45.6529 24.6279 45.2131Z" fill="white"/>
<path opacity="0.6" fill-rule="evenodd" clip-rule="evenodd" d="M24.5795 43.5435L23.8 44.1683C23.4435 43.7356 23.0997 43.2939 22.7324 42.8702L23.4975 42.2292C23.8702 42.6583 24.2194 43.1054 24.5795 43.5435Z" fill="white"/>
<path opacity="0.6" fill-rule="evenodd" clip-rule="evenodd" d="M20.7539 40.6117L21.492 39.9402L22.628 41.2095L21.8737 41.863L20.7539 40.6117Z" fill="white"/>
<path opacity="0.6" fill-rule="evenodd" clip-rule="evenodd" d="M31.6475 53.4644L30.8032 54.0012L29.8887 52.5883L30.724 52.0425L31.6475 53.4644Z" fill="white"/>
<path opacity="0.6" fill-rule="evenodd" clip-rule="evenodd" d="M27.2675 47.0479L28.2612 48.4231L27.4439 48.9994L26.4609 47.6349L27.2675 47.0479Z" fill="white"/>
<path opacity="0.6" fill-rule="evenodd" clip-rule="evenodd" d="M36.985 60.7071L36.2217 61.3534L35.1631 60.0267L35.9426 59.4019L36.985 60.7071Z" fill="white"/>
<path opacity="0.6" fill-rule="evenodd" clip-rule="evenodd" d="M35.114 58.3679L34.3219 58.9747C33.9744 58.5277 33.5982 58.104 33.2939 57.6264L34.1023 57.0393C34.4011 57.5097 34.772 57.928 35.114 58.3679Z" fill="white"/>
<path opacity="0.6" fill-rule="evenodd" clip-rule="evenodd" d="M33.3557 55.9549L32.5365 56.5259L31.5752 55.1291L32.4087 54.5779L33.3557 55.9549Z" fill="white"/>
<path opacity="0.6" fill-rule="evenodd" clip-rule="evenodd" d="M43.3188 67.0753L42.6689 67.833C42.235 67.4703 41.8335 67.0699 41.4141 66.6893L42.0856 65.9514C42.4978 66.3249 42.8921 66.7198 43.3188 67.0753Z" fill="white"/>
<path opacity="0.6" fill-rule="evenodd" clip-rule="evenodd" d="M41.1146 65.0518L40.4251 65.7736C40.0182 65.3804 39.5771 65.0213 39.1973 64.5994L39.9084 63.8992C40.281 64.3139 40.7149 64.6658 41.1146 65.0518Z" fill="white"/>
<path opacity="0.6" fill-rule="evenodd" clip-rule="evenodd" d="M39.0159 62.9353L38.2886 63.6193L37.1328 62.3751L37.8799 61.7126L39.0159 62.9353Z" fill="white"/>
<path opacity="0.6" fill-rule="evenodd" clip-rule="evenodd" d="M50.6365 72.2712L50.127 73.1294C49.6409 72.8367 49.1315 72.5836 48.667 72.2604L49.2035 71.4202C49.6608 71.7362 50.1612 71.9839 50.6365 72.2712Z" fill="white"/>
<path opacity="0.6" fill-rule="evenodd" clip-rule="evenodd" d="M48.1086 70.6734L47.5505 71.5011L46.1445 70.5459L46.7278 69.738L48.1086 70.6734Z" fill="white"/>
<path opacity="0.6" fill-rule="evenodd" clip-rule="evenodd" d="M45.6765 68.9515L45.0716 69.7451L43.7412 68.6876L44.3713 67.9138L45.6765 68.9515Z" fill="white"/>
<path opacity="0.6" fill-rule="evenodd" clip-rule="evenodd" d="M58.7325 76.1492L58.3796 77.081L56.8008 76.4508L57.1824 75.5298L58.7325 76.1492Z" fill="white"/>
<path opacity="0.6" fill-rule="evenodd" clip-rule="evenodd" d="M55.9547 75.0325L55.5496 75.9445L54.0176 75.2048L54.4514 74.3071L55.9547 75.0325Z" fill="white"/>
<path opacity="0.6" fill-rule="evenodd" clip-rule="evenodd" d="M53.2689 73.7362L52.8116 74.6231C52.2931 74.3915 51.8089 74.0953 51.3174 73.8134L51.8035 72.9426C52.2859 73.2173 52.7594 73.5082 53.2689 73.7362Z" fill="white"/>
<path opacity="0.6" fill-rule="evenodd" clip-rule="evenodd" d="M67.381 78.5945L67.1848 79.5712C66.6303 79.4563 66.0686 79.3737 65.5195 79.2301L65.7428 78.2588C66.2828 78.4024 66.8355 78.4814 67.381 78.5945Z" fill="white"/>
<path opacity="0.6" fill-rule="evenodd" clip-rule="evenodd" d="M64.4593 77.9321L64.2127 78.898L62.5654 78.4761L62.8409 77.5173L64.4593 77.9321Z" fill="white"/>
<path opacity="0.6" fill-rule="evenodd" clip-rule="evenodd" d="M61.5864 77.1205L61.2876 78.072L59.6709 77.5478L59.9985 76.6052L61.5864 77.1205Z" fill="white"/>
<path opacity="0.6" fill-rule="evenodd" clip-rule="evenodd" d="M76.3155 79.7167L76.2614 80.7113C75.6962 80.697 75.1327 80.6269 74.5674 80.5874L74.6466 79.5928C75.2029 79.6341 75.7574 79.7023 76.3155 79.7167Z" fill="white"/>
<path opacity="0.6" fill-rule="evenodd" clip-rule="evenodd" d="M73.3219 79.4849L73.2229 80.476C72.6576 80.4419 72.0959 80.3557 71.5342 80.2803L71.6584 79.291C72.2129 79.3664 72.7656 79.4508 73.3219 79.4849Z" fill="white"/>
<path opacity="0.6" fill-rule="evenodd" clip-rule="evenodd" d="M70.3549 79.1133L70.2091 80.0989C69.6474 80.0253 69.0857 79.9517 68.5312 79.8314L68.7041 78.8494C69.2496 78.9697 69.8022 79.0415 70.3549 79.1133Z" fill="white"/>
<path opacity="0.6" fill-rule="evenodd" clip-rule="evenodd" d="M85.4076 80.6196L83.7117 80.7094L83.6631 79.713L85.3374 79.625L85.4076 80.6196Z" fill="white"/>
<path opacity="0.6" fill-rule="evenodd" clip-rule="evenodd" d="M82.3667 80.7777L80.6672 80.7974L80.6582 79.801L82.3343 79.7812L82.3667 80.7777Z" fill="white"/>
<path opacity="0.6" fill-rule="evenodd" clip-rule="evenodd" d="M79.3385 79.8153L79.3295 80.8117L77.6318 80.7596L77.6642 79.7632L79.3385 79.8153Z" fill="white"/>
<path opacity="0.6" fill-rule="evenodd" clip-rule="evenodd" d="M94.4751 79.4672C93.9188 79.5713 93.3589 79.6521 92.8008 79.7454L92.6406 78.7616C93.1915 78.6682 93.746 78.5892 94.2951 78.4851L94.4751 79.4672Z" fill="white"/>
<path opacity="0.6" fill-rule="evenodd" clip-rule="evenodd" d="M91.4724 79.9607L89.7873 80.178L89.6631 79.1887L91.3266 78.9751L91.4724 79.9607Z" fill="white"/>
<path opacity="0.6" fill-rule="evenodd" clip-rule="evenodd" d="M88.4623 80.3433L86.77 80.4995L86.6836 79.5067L88.3525 79.3523L88.4623 80.3433Z" fill="white"/>
<path opacity="0.6" fill-rule="evenodd" clip-rule="evenodd" d="M103.373 77.3864L101.738 77.8424L101.48 76.8801L103.097 76.4294L103.373 77.3864Z" fill="white"/>
<path opacity="0.6" fill-rule="evenodd" clip-rule="evenodd" d="M100.433 78.1726C99.8835 78.3108 99.3362 78.4544 98.7835 78.5711L98.5566 77.5998C99.1039 77.4831 99.6458 77.3413 100.188 77.2048L100.433 78.1726Z" fill="white"/>
<path opacity="0.6" fill-rule="evenodd" clip-rule="evenodd" d="M97.4801 78.8654C96.9292 78.9965 96.3729 79.097 95.8185 79.2065L95.624 78.2281C96.1731 78.1203 96.724 78.0216 97.2677 77.8923L97.4801 78.8654Z" fill="white"/>
<path opacity="0.6" fill-rule="evenodd" clip-rule="evenodd" d="M112.015 74.4057C111.491 74.6248 110.966 74.833 110.436 75.0395L110.076 74.1095C110.596 73.9084 111.113 73.7019 111.626 73.4883L112.015 74.4057Z" fill="white"/>
<path opacity="0.6" fill-rule="evenodd" clip-rule="evenodd" d="M109.175 75.5118L107.574 76.0773L107.25 75.133L108.831 74.5764L109.175 75.5118Z" fill="white"/>
<path opacity="0.6" fill-rule="evenodd" clip-rule="evenodd" d="M106.306 76.4939C105.769 76.6752 105.227 76.8332 104.685 76.9984L104.396 76.045C104.93 75.8798 105.468 75.7254 105.998 75.5459L106.306 76.4939Z" fill="white"/>
</g>
<path d="M321.618 146.689C317.193 156.133 309.974 152.769 314.399 143.325C318.824 133.881 326.043 137.246 321.618 146.689Z" fill="#2BC672"/>
<path opacity="0.4" d="M313.01 157.516C313.006 157.516 313.004 157.516 313.001 157.516C312.923 157.51 312.864 157.444 312.869 157.365C313.46 148.323 320.369 139.172 320.44 139.081C320.486 139.018 320.577 139.007 320.638 139.054C320.701 139.1 320.712 139.19 320.665 139.251C320.596 139.343 313.737 148.427 313.152 157.383C313.147 157.458 313.086 157.516 313.01 157.516Z" fill="white"/>
<path d="M299.51 146.689C303.935 156.133 311.154 152.769 306.729 143.325C302.304 133.881 295.084 137.246 299.51 146.689Z" fill="#2BC672"/>
<path opacity="0.4" d="M308.117 157.516C308.044 157.516 307.981 157.458 307.977 157.383C307.392 148.426 300.533 139.341 300.464 139.251C300.418 139.188 300.428 139.1 300.491 139.054C300.554 139.007 300.643 139.018 300.689 139.081C300.76 139.172 307.667 148.323 308.26 157.365C308.265 157.442 308.206 157.51 308.128 157.516C308.123 157.514 308.119 157.516 308.117 157.516Z" fill="white"/>
<path d="M307.249 142.517C307.769 152.927 315.728 152.532 315.208 142.12C314.688 131.711 306.729 132.107 307.249 142.517Z" fill="#2BC672"/>
<path opacity="0.4" d="M311.026 157.516C311.023 157.516 311.019 157.516 311.013 157.516C310.936 157.508 310.878 157.44 310.884 157.363C311.498 150.117 311.42 144.691 311.248 141.416C311.06 137.869 310.722 136.009 310.718 135.991C310.704 135.914 310.754 135.84 310.832 135.826C310.909 135.811 310.983 135.862 310.997 135.939C311.001 135.957 311.341 137.828 311.53 141.391C311.705 144.677 311.782 150.119 311.167 157.385C311.161 157.458 311.1 157.516 311.026 157.516Z" fill="white"/>
<path d="M319.507 155.422L319.163 161.397L318.851 166.868L318.558 171.966L318.245 177.439L317.94 182.748L317.627 188.22L317.408 192.058L317.202 195.629H304.532L304.485 194.847L304.184 189.579L303.956 185.595L303.668 180.547L303.36 175.151L303.07 170.103L302.771 164.907L302.483 159.858L302.228 155.422H319.507Z" fill="#35234F"/>
<g opacity="0.29">
<g opacity="0.29">
<path opacity="0.29" d="M319.163 161.397L318.852 166.868L312.867 169.379L306.772 163.719L302.771 164.907L302.483 159.858L308.068 158.198L313.895 163.609L319.163 161.397Z" fill="#C9E0F4"/>
</g>
<g opacity="0.29">
<path opacity="0.29" d="M318.558 171.966L318.245 177.439L312.047 180.04L305.949 174.379L303.36 175.151L303.07 170.103L307.245 168.86L313.075 174.272L318.558 171.966Z" fill="#C9E0F4"/>
</g>
<g opacity="0.29">
<path opacity="0.29" d="M317.941 182.748L317.627 188.22L311.224 190.908L305.128 185.247L303.956 185.595L303.668 180.546L306.422 179.728L312.252 185.137L317.941 182.748Z" fill="#C9E0F4"/>
</g>
</g>
<path d="M38.3047 98.6954H30.2827C28.2142 98.6954 26.5381 97.0239 26.5381 94.961V89.5156C26.5381 87.4527 28.2142 85.7812 30.2827 85.7812H38.3047C40.3733 85.7812 42.0493 87.4527 42.0493 89.5156V94.961C42.0511 97.0239 40.3733 98.6954 38.3047 98.6954Z" fill="#695EF3"/>
<path d="M31.7518 96.8155L28.9992 94.2104C28.6373 93.8675 28.6229 93.2984 28.965 92.9375C29.3088 92.5766 29.8795 92.5623 30.2414 92.9034L31.7068 94.2912C32.0632 94.6287 32.6267 94.6198 32.9724 94.2697L38.8359 88.327C39.1852 87.9715 39.7577 87.9679 40.1123 88.3162C40.4688 88.6645 40.4724 89.2354 40.1231 89.5891L33.0156 96.794C32.6717 97.1441 32.1083 97.153 31.7518 96.8155Z" fill="white"/>
<path d="M246.848 80.6249C246.848 80.6249 248.13 75.4327 246.545 75.5907C244.963 75.7487 244.434 76.7703 243.83 78.9732C243.227 81.1761 243.982 83.4562 243.982 83.4562L246.848 80.6249Z" fill="#F9C5A2"/>
<path d="M268.563 191.224L269.153 191.2L272.333 191.068L273.388 127.508L260.721 128.136L268.563 191.224Z" fill="#231638"/>
<path d="M278.817 127.508L291.785 191.068L288.015 191.54L273.087 151.42L265.245 127.666L278.817 127.508Z" fill="#35234F"/>
<path d="M282.284 101.708L278.817 127.51L260.719 128.138L263.736 98.7188C263.736 98.7188 266.984 97.4441 270.215 96.7511C271.146 96.5464 272.073 96.392 272.923 96.3328C273.53 96.2879 274.097 96.2933 274.594 96.3579C275.258 96.4477 275.935 96.6811 276.604 97.0114C277.064 97.2358 277.517 97.4998 277.956 97.7942C280.345 99.3849 282.284 101.708 282.284 101.708Z" fill="#448FFF"/>
<path d="M263.738 98.7188L262.931 110.83C262.931 110.83 262.793 110.771 262.535 110.645C261.389 110.098 257.918 108.288 254.274 104.877C249.651 100.543 244.752 93.6325 243.983 83.4599L246.848 80.625C246.848 80.6232 251.824 98.559 263.738 98.7188Z" fill="#448FFF"/>
<path d="M277.762 134.115L274.444 130.811C274.444 130.811 281.53 124.833 282.137 120.743C282.195 120.35 282.227 119.96 282.232 119.592C282.308 116.723 281.071 114.565 280.628 113.888C280.533 113.744 280.475 113.664 280.475 113.664L281.015 110.082L281.302 108.224L282.285 101.706C282.285 101.706 288.015 107.211 289.671 114.918C291.333 122.631 277.762 134.115 277.762 134.115Z" fill="#448FFF"/>
<path d="M268.563 191.224L261.099 195.001L272.557 195.078L272.332 191.068L268.563 191.224Z" fill="#448FFF"/>
<path d="M288.015 191.54L287.261 195.63L295.254 195.315L291.785 191.068L288.015 191.54Z" fill="#448FFF"/>
<path d="M274.972 131.362L273.915 132.542L276.178 134.901L277.384 133.8L274.972 131.362Z" fill="#F9C5A2"/>
<path d="M262.758 108.313L262.533 110.645C261.386 110.098 257.915 108.288 254.271 104.877C257.93 107.053 262.758 108.313 262.758 108.313Z" fill="black" fill-opacity="0.2"/>
<path d="M282.232 119.592C282.308 116.723 281.071 114.565 280.628 113.888L281.015 110.082L281.229 107.999C281.229 107.999 281.253 108.078 281.301 108.223C281.719 109.606 282.428 112.674 282.587 115.552C282.704 117.669 282.48 118.901 282.232 119.592Z" fill="black" fill-opacity="0.2"/>
<path d="M277.958 97.7907C277.357 98.8967 275.657 101.462 273.086 101.338C270.679 101.218 270.264 98.2844 270.217 96.7494C271.148 96.5447 272.075 96.3903 272.924 96.3311L276.606 97.0079C277.065 97.2341 277.519 97.4981 277.958 97.7907Z" fill="#231638"/>
<path d="M272.476 90.8406L271.376 97.1441C271.376 97.1441 271.02 99.8767 273.074 100.114C275.13 100.351 276.255 98.3075 276.255 98.3075L277.08 91.2715L272.476 90.8406Z" fill="#F9C5A2"/>
<path d="M277.809 88.6252C277.598 91.593 275.123 93.8211 272.278 93.602C269.434 93.383 268.05 91.2608 268.26 88.2931C268.471 85.3253 270.194 82.634 273.038 82.8531C275.884 83.0739 278.019 85.6575 277.809 88.6252Z" fill="#F9C5A2"/>
<path d="M265.97 79.9966C265.97 79.9966 266.865 85.1654 270.885 86.0542C274.905 86.9429 277.227 86.1744 277.227 86.1744L277.339 90.2841C277.339 90.2841 280.552 86.9034 280.291 83.4652C280.03 80.0271 278.237 81.151 278.237 81.151C278.237 81.151 277.841 78.9121 273.175 78.6051C268.508 78.2981 265.902 75.2585 265.902 75.2585C265.902 75.2585 265.488 78.2766 265.97 79.9966Z" fill="#231638"/>
<path d="M279.508 89.5336C279.427 90.6108 278.464 91.4187 277.357 91.3397C276.25 91.2607 275.42 90.3235 275.501 89.2463C275.582 88.1691 276.545 87.3612 277.652 87.4401C278.759 87.5191 279.591 88.4581 279.508 89.5336Z" fill="#F9C5A2"/>
<path d="M271.979 93.5248C271.979 93.5248 274.643 93.5769 276.1 91.532C276.1 91.532 275.446 95.6775 271.374 97.1443L271.979 93.5248Z" fill="black" fill-opacity="0.1"/>
<path d="M288.015 191.54L291.232 188.655L291.784 191.068L288.015 191.54Z" fill="#D1D3D4"/>
<path d="M272.885 132.041L278.766 138.282L277.861 139.07L272.231 132.881L272.885 132.041Z" fill="black" fill-opacity="0.2"/>
<path d="M142.567 195.63H68.7278C62.8085 195.63 58.0107 190.845 58.0107 184.942V33.6901C58.0107 27.7869 62.8085 23.0022 68.7278 23.0022H142.565C148.484 23.0022 153.282 27.7869 153.282 33.6901V184.942C153.284 190.845 148.484 195.63 142.567 195.63Z" fill="#231638"/>
<path d="M141.891 27.2715H124.608H123.199H88.6421H84.154H70.0776H69.4025C64.7397 27.2715 60.9609 31.0418 60.9609 35.69V182.942C60.9609 187.592 64.7415 191.36 69.4025 191.36H141.891C146.554 191.36 150.333 187.592 150.333 182.942V136.791V35.69C150.333 31.04 146.554 27.2715 141.891 27.2715Z" fill="url(#paint0_linear)"/>
<path d="M78.6879 36.4784L78.6951 36.4712C78.7077 35.2647 79.6853 34.288 80.8951 34.2772L80.8969 34.2754C79.6835 34.2647 78.7023 33.2844 78.6933 32.0725L78.6861 32.0797C78.6735 33.2862 77.696 34.2629 76.4862 34.2736L76.4844 34.2754C77.6978 34.2862 78.6789 35.2665 78.6879 36.4784Z" fill="white"/>
<path d="M78.7419 37.8967L78.7275 37.9111C78.7059 40.0225 76.9938 41.7299 74.8767 41.7514L74.873 41.755C76.9974 41.7747 78.7149 43.4893 78.7275 45.6097L78.7419 45.5953C78.7635 43.4839 80.4755 41.7765 82.5927 41.755L82.5963 41.7514C80.4737 41.7317 78.7563 40.0171 78.7419 37.8967Z" fill="white"/>
<path d="M77.1468 37.0439C73.4364 37.0098 70.4371 34.0133 70.4137 30.3113L70.3885 30.3364C70.3525 34.0241 67.3604 37.008 63.6626 37.0439L63.6572 37.0511C67.3676 37.0852 70.3669 40.0817 70.3903 43.7838L70.4155 43.7587C70.4515 40.071 73.4436 37.087 77.1414 37.0511L77.1468 37.0439Z" fill="white"/>
<path d="M150.538 105.895L144.172 104.3C144.172 104.3 136.787 132.195 128.893 133.789C122.688 135.043 118.214 128.414 116.583 125.523C114.401 112.739 107.63 103.769 107.63 103.769L92.0972 97.1278C85.7314 93.9392 69.1796 121.57 63.8327 141.495C58.4859 161.42 61.2871 198.082 61.2871 198.082L68.1624 199.41C68.1624 199.41 72.9998 191.707 75.0377 172.047C75.2411 170.092 75.5742 168.025 76.0098 165.891L77.8371 186.392L111.704 182.406L115.18 151.982C119.845 153.632 129.588 155.824 139.333 150.262C152.83 142.556 150.538 105.895 150.538 105.895Z" fill="url(#paint1_linear)"/>
<path d="M143.917 104.832C143.917 104.832 142.898 87.6966 145.955 88.6266C149.01 89.5566 150.285 102.043 150.285 106.426L143.917 104.832Z" fill="#F9C5A2"/>
<path d="M61.2872 198.082C61.2872 198.082 60.6499 203.129 56.4499 209.24C52.248 215.35 60.9056 215.084 63.453 211.233C65.9986 207.38 68.1643 199.411 68.1643 199.411L61.2872 198.082Z" fill="#F9C5A2"/>
<path d="M91.3984 97.0615L99.3557 76.5386L105.975 88.0954L107.632 103.769L91.3984 97.0615Z" fill="#F9C5A2"/>
<path d="M105.722 87.8296C111.91 87.8296 116.927 82.5959 116.927 76.1399C116.927 69.6838 111.91 64.4502 105.722 64.4502C99.5332 64.4502 94.5166 69.6838 94.5166 76.1399C94.5166 82.5959 99.5332 87.8296 105.722 87.8296Z" fill="#F9C5A2"/>
<path d="M94.4049 89.3646C94.4049 89.3646 85.4773 71.357 92.7343 64.9816C99.9912 58.6062 112.39 60.398 115.317 65.1809C118.246 69.9638 115.778 76.1399 108.521 75.077C101.266 74.0141 94.4049 89.3646 94.4049 89.3646Z" fill="#231638"/>
<path d="M101.648 81.4543C104.039 81.4543 105.978 79.4319 105.978 76.9371C105.978 74.4423 104.039 72.4199 101.648 72.4199C99.2568 72.4199 97.3184 74.4423 97.3184 76.9371C97.3184 79.4319 99.2568 81.4543 101.648 81.4543Z" fill="#F9C5A2"/>
<path d="M116.671 125.554L122.018 153.449C122.018 153.449 117.434 153.582 115.143 151.589L116.671 125.554Z" fill="black" fill-opacity="0.2"/>
<path d="M75.9287 165.271C75.9287 165.271 91.7172 139.768 91.971 129.407C91.971 129.407 88.6603 155.973 82.804 166.866C76.9477 177.758 77.9666 182.539 77.9666 182.539L75.9989 165.437L75.9287 165.271Z" fill="#D1D3D4"/>
<path d="M105.799 103.37L104.681 98.1421L92.6897 93.1492L89.127 97.5263L105.799 103.37Z" fill="#231638"/>
<path d="M100.375 81.718C100.375 81.718 103.048 86.5673 105.977 87.8277L107.059 97.9895C107.058 97.9913 100.883 87.1652 100.375 81.718Z" fill="black" fill-opacity="0.1"/>
<path d="M145.736 83.8511C145.736 83.8511 148.208 94.8226 155.209 100.794C156.295 101.72 155.652 103.489 154.223 103.489H141.514C140.548 103.489 139.689 102.878 139.372 101.968C138.159 98.4906 135.41 89.8889 136.061 85.0701L145.736 83.8511Z" fill="#5350E2"/>
<path d="M130.688 80.851H125.631C124.701 80.851 123.946 80.0988 123.946 79.1705V66.9871C123.946 66.0589 124.701 65.3066 125.631 65.3066H130.688V80.851Z" fill="#8676E5"/>
<path d="M134.5 83.0934H129.733C129.344 83.0934 129.027 82.7793 129.027 82.3897V63.768C129.027 63.3802 129.342 63.0642 129.733 63.0642H134.5V83.0934Z" fill="#5350E2"/>
<path d="M187.343 49.4697V96.6881L148.961 85.3593V60.5077L187.343 49.4697Z" fill="#8676E5"/>
<path d="M187.343 49.4697V60.7034C180.333 64.7879 168.606 69.6587 154.288 68.0159C152.365 67.7969 150.594 67.5707 148.961 67.3463V60.5077L187.343 49.4697Z" fill="#766CD3"/>
<path d="M187.343 49.4697V56.5561C180.947 59.2689 171.036 62.4144 160.591 61.7285C155.773 61.4126 151.962 61.4162 148.961 61.5903V60.5059L187.343 49.4697Z" fill="#8676E5"/>
<path d="M188.69 97.5894H184.897C184.547 97.5894 184.265 97.3075 184.265 96.9592V49.1985C184.265 48.8502 184.547 48.5684 184.897 48.5684H188.69C189.039 48.5684 189.322 48.8502 189.322 49.1985V96.9592C189.322 97.3075 189.039 97.5894 188.69 97.5894Z" fill="#5B49A5"/>
<path d="M149.017 86.4312H134.347C133.837 86.4312 133.425 86.02 133.425 85.5119V60.6477C133.425 60.1397 133.837 59.7285 134.347 59.7285H149.017C149.527 59.7285 149.939 60.1397 149.939 60.6477V85.5119C149.939 86.0182 149.527 86.4312 149.017 86.4312Z" fill="#5B49A5"/>
<path d="M145.736 83.8511C145.736 83.8511 148.208 94.8226 155.209 100.794C156.295 101.72 155.652 103.489 154.223 103.489H141.514C140.548 103.489 139.689 102.878 139.372 101.968C138.159 98.4906 135.41 89.8889 136.061 85.0701L145.736 83.8511Z" fill="#5350E2"/>
<path d="M130.688 80.851H125.631C124.701 80.851 123.946 80.0988 123.946 79.1705V66.9871C123.946 66.0589 124.701 65.3066 125.631 65.3066H130.688V80.851Z" fill="#35234F"/>
<path d="M134.5 83.0934H129.733C129.344 83.0934 129.027 82.7793 129.027 82.3897V63.768C129.027 63.3802 129.342 63.0642 129.733 63.0642H134.5V83.0934Z" fill="#695EF3"/>
<path d="M187.343 49.4697V96.6881L148.961 85.3593V60.5077L187.343 49.4697Z" fill="#695EF3"/>
<path d="M187.343 49.4697V60.7034C180.333 64.7879 168.606 69.6587 154.288 68.0159C152.365 67.7969 150.594 67.5707 148.961 67.3463V60.5077L187.343 49.4697Z" fill="#5350E2"/>
<path d="M187.343 49.4697V56.5561C180.947 59.2689 171.036 62.4144 160.591 61.7285C155.773 61.4126 151.962 61.4162 148.961 61.5903V60.5059L187.343 49.4697Z" fill="#695EF3"/>
<path d="M188.69 97.5894H184.897C184.547 97.5894 184.265 97.3075 184.265 96.9592V49.1985C184.265 48.8502 184.547 48.5684 184.897 48.5684H188.69C189.039 48.5684 189.322 48.8502 189.322 49.1985V96.9592C189.322 97.3075 189.039 97.5894 188.69 97.5894Z" fill="#35234F"/>
<path d="M149.017 86.4312H134.347C133.837 86.4312 133.425 86.02 133.425 85.5119V60.6477C133.425 60.1397 133.837 59.7285 134.347 59.7285H149.017C149.527 59.7285 149.939 60.1397 149.939 60.6477V85.5119C149.939 86.0182 149.527 86.4312 149.017 86.4312Z" fill="#9892FF"/>
<path d="M77.6847 192.14V188.423H42.2641V192.14C42.2533 192.188 42.2461 192.236 42.2461 192.287C42.2461 194.132 50.1835 195.63 59.9735 195.63C69.7634 195.63 77.7009 194.132 77.7009 192.287C77.7027 192.238 77.6955 192.19 77.6847 192.14Z" fill="#EFB118"/>
<path d="M59.9754 191.942C69.766 191.942 77.7028 190.445 77.7028 188.599C77.7028 186.753 69.766 185.256 59.9754 185.256C50.1849 185.256 42.248 186.753 42.248 188.599C42.248 190.445 50.1849 191.942 59.9754 191.942Z" fill="#FFC417"/>
<path opacity="0.3" d="M46.4477 188.215C46.4423 188.195 46.4405 188.175 46.4405 188.156C46.4405 187.105 52.9576 186.254 60.9976 186.254C63.7251 186.254 66.2761 186.353 68.458 186.522C66.0691 186.297 63.14 186.166 59.9751 186.166C51.935 186.166 45.418 187.017 45.418 188.068C45.418 188.087 45.4216 188.107 45.4252 188.127C45.5836 188.796 48.3902 189.378 52.5237 189.701C48.9555 189.366 46.5918 188.827 46.4477 188.215Z" fill="#AA9B5C"/>
<path d="M74.5239 188.127C74.5293 188.107 74.5311 188.087 74.5311 188.067C74.5311 187.43 72.1349 186.868 68.4569 186.522C66.275 186.351 63.724 186.254 60.9966 186.254C52.9565 186.254 46.4395 187.105 46.4395 188.155C46.4395 188.175 46.443 188.195 46.4467 188.215C46.5907 188.827 48.9544 189.367 52.5226 189.701C54.7028 189.872 57.2502 189.969 59.974 189.969C67.8628 189.969 74.2845 189.148 74.5239 188.127Z" fill="#FFD717"/>
<path d="M77.6202 186.838V183.121H42.1996V186.838C42.1888 186.886 42.1816 186.934 42.1816 186.985C42.1816 188.83 50.1191 190.328 59.909 190.328C69.699 190.328 77.6364 188.83 77.6364 186.985C77.6382 186.936 77.631 186.888 77.6202 186.838Z" fill="#EFB118"/>
<path d="M59.911 186.64C69.7016 186.64 77.6384 185.143 77.6384 183.297C77.6384 181.451 69.7016 179.954 59.911 179.954C50.1204 179.954 42.1836 181.451 42.1836 183.297C42.1836 185.143 50.1204 186.64 59.911 186.64Z" fill="#FFC417"/>
<path opacity="0.3" d="M46.3833 182.913C46.3779 182.893 46.3761 182.873 46.3761 182.854C46.3761 181.803 52.8931 180.952 60.9332 180.952C63.6606 180.952 66.2116 181.051 68.3936 181.22C66.0046 180.995 63.0755 180.864 59.9106 180.864C51.8706 180.864 45.3535 181.715 45.3535 182.766C45.3535 182.785 45.3571 182.805 45.3607 182.825C45.5191 183.494 48.3258 184.076 52.4592 184.399C48.8911 184.064 46.5273 183.525 46.3833 182.913Z" fill="#AA9B5C"/>
<path d="M74.4604 182.825C74.4658 182.805 74.4676 182.785 74.4676 182.765C74.4676 182.128 72.0714 181.566 68.3935 181.22C66.2115 181.049 63.6605 180.952 60.9331 180.952C52.893 180.952 46.376 181.803 46.376 182.853C46.376 182.873 46.3796 182.893 46.3832 182.913C46.5272 183.525 48.891 184.065 52.4591 184.399C54.6393 184.57 57.1867 184.667 59.9105 184.667C67.7976 184.667 74.2192 183.846 74.4604 182.825Z" fill="#FFD717"/>
<path d="M74.3235 181.536V177.819H38.9047V181.536C38.8939 181.584 38.8867 181.633 38.8867 181.683C38.8867 183.529 46.8242 185.026 56.6141 185.026C66.4041 185.026 74.3415 183.529 74.3415 181.683C74.3415 181.634 74.3343 181.586 74.3235 181.536Z" fill="#EFB118"/>
<path d="M56.6141 181.338C66.4047 181.338 74.3415 179.842 74.3415 177.995C74.3415 176.149 66.4047 174.652 56.6141 174.652C46.8236 174.652 38.8867 176.149 38.8867 177.995C38.8867 179.842 46.8236 181.338 56.6141 181.338Z" fill="#FFC417"/>
<path opacity="0.3" d="M43.0864 177.611C43.081 177.591 43.0792 177.572 43.0792 177.552C43.0792 176.501 49.5962 175.65 57.6363 175.65C60.3637 175.65 62.9147 175.749 65.0967 175.918C62.7077 175.694 59.7786 175.562 56.6137 175.562C48.5737 175.562 42.0566 176.414 42.0566 177.464C42.0566 177.484 42.0602 177.503 42.0638 177.523C42.2223 178.193 45.0289 178.774 49.1624 179.098C45.5942 178.762 43.2304 178.223 43.0864 177.611Z" fill="#AA9B5C"/>
<path d="M71.1636 177.523C71.169 177.503 71.1708 177.484 71.1708 177.464C71.1708 176.827 68.7746 176.265 65.0966 175.918C62.9147 175.748 60.3637 175.651 57.6362 175.651C49.5961 175.651 43.0791 176.502 43.0791 177.552C43.0791 177.572 43.0827 177.591 43.0863 177.611C43.2303 178.223 45.5941 178.764 49.1623 179.098C51.3424 179.268 53.8898 179.365 56.6137 179.365C64.5007 179.365 70.9223 178.545 71.1636 177.523Z" fill="#FFD717"/>
<path d="M77.4251 176.236V172.519H42.0063V176.236C41.9955 176.284 41.9883 176.333 41.9883 176.383C41.9883 178.229 49.9257 179.726 59.7157 179.726C69.5057 179.726 77.4431 178.229 77.4431 176.383C77.4431 176.333 77.4359 176.284 77.4251 176.236Z" fill="#EFB118"/>
<path d="M59.7157 176.037C69.5063 176.037 77.4431 174.54 77.4431 172.694C77.4431 170.847 69.5063 169.351 59.7157 169.351C49.9251 169.351 41.9883 170.847 41.9883 172.694C41.9883 174.54 49.9251 176.037 59.7157 176.037Z" fill="#FFC417"/>
<path opacity="0.3" d="M46.188 172.309C46.1826 172.29 46.1808 172.27 46.1808 172.25C46.1808 171.2 52.6978 170.349 60.7379 170.349C63.4653 170.349 66.0163 170.447 68.1982 170.616C65.8093 170.392 62.8802 170.261 59.7153 170.261C51.6752 170.261 45.1582 171.112 45.1582 172.162C45.1582 172.182 45.1618 172.202 45.1654 172.221C45.3238 172.891 48.1305 173.473 52.2639 173.796C48.6958 173.46 46.332 172.921 46.188 172.309Z" fill="#AA9B5C"/>
<path d="M74.2651 172.221C74.2705 172.201 74.2723 172.182 74.2723 172.162C74.2723 171.525 71.8761 170.963 68.1982 170.616C66.0162 170.446 63.4652 170.349 60.7378 170.349C52.6977 170.349 46.1807 171.2 46.1807 172.25C46.1807 172.27 46.1843 172.289 46.1879 172.309C46.3319 172.921 48.6957 173.462 52.2638 173.796C54.444 173.966 56.9914 174.063 59.7152 174.063C67.6023 174.063 74.0239 173.243 74.2651 172.221Z" fill="#FFD717"/>
<path d="M80.72 170.934V167.218H45.3012V170.934C45.2904 170.982 45.2832 171.031 45.2832 171.081C45.2832 172.927 53.2207 174.424 63.0106 174.424C72.8006 174.424 80.738 172.927 80.738 171.081C80.738 171.031 80.7308 170.982 80.72 170.934Z" fill="#EFB118"/>
<path d="M63.0106 170.735C72.8012 170.735 80.738 169.238 80.738 167.392C80.738 165.546 72.8012 164.049 63.0106 164.049C53.22 164.049 45.2832 165.546 45.2832 167.392C45.2832 169.238 53.22 170.735 63.0106 170.735Z" fill="#FFC417"/>
<path opacity="0.3" d="M49.4829 167.008C49.4775 166.988 49.4757 166.968 49.4757 166.948C49.4757 165.898 55.9927 165.047 64.0328 165.047C66.7602 165.047 69.3112 165.146 71.4932 165.314C69.1042 165.09 66.1751 164.959 63.0102 164.959C54.9702 164.959 48.4531 165.81 48.4531 166.86C48.4531 166.88 48.4567 166.9 48.4603 166.92C48.6187 167.589 51.4254 168.171 55.5588 168.494C51.9907 168.158 49.6269 167.62 49.4829 167.008Z" fill="#AA9B5C"/>
<path d="M77.56 166.919C77.5654 166.9 77.5672 166.88 77.5672 166.86C77.5672 166.223 75.171 165.661 71.4931 165.314C69.3111 165.144 66.7601 165.047 64.0327 165.047C55.9926 165.047 49.4756 165.898 49.4756 166.948C49.4756 166.968 49.4792 166.988 49.4828 167.007C49.6268 167.62 51.9906 168.16 55.5587 168.494C57.7389 168.665 60.2863 168.761 63.0101 168.761C70.8972 168.761 77.3188 167.941 77.56 166.919Z" fill="#FFD717"/>
<path d="M77.4251 165.632V161.916H42.0063V165.632C41.9955 165.681 41.9883 165.729 41.9883 165.78C41.9883 167.625 49.9257 169.123 59.7157 169.123C69.5057 169.123 77.4431 167.625 77.4431 165.78C77.4431 165.729 77.4359 165.681 77.4251 165.632Z" fill="#EFB118"/>
<path d="M59.7157 165.433C69.5063 165.433 77.4431 163.936 77.4431 162.09C77.4431 160.244 69.5063 158.747 59.7157 158.747C49.9251 158.747 41.9883 160.244 41.9883 162.09C41.9883 163.936 49.9251 165.433 59.7157 165.433Z" fill="#FFC417"/>
<path opacity="0.3" d="M46.188 161.706C46.1826 161.686 46.1808 161.666 46.1808 161.646C46.1808 160.596 52.6978 159.745 60.7379 159.745C63.4653 159.745 66.0163 159.844 68.1982 160.013C65.8093 159.788 62.8802 159.657 59.7153 159.657C51.6752 159.657 45.1582 160.508 45.1582 161.559C45.1582 161.578 45.1618 161.598 45.1654 161.618C45.3238 162.287 48.1305 162.869 52.2639 163.192C48.6958 162.857 46.332 162.318 46.188 161.706Z" fill="#AA9B5C"/>
<path d="M74.2651 161.618C74.2705 161.598 74.2723 161.578 74.2723 161.558C74.2723 160.921 71.8761 160.359 68.1982 160.013C66.0162 159.842 63.4652 159.745 60.7378 159.745C52.6977 159.745 46.1807 160.596 46.1807 161.646C46.1807 161.666 46.1843 161.686 46.1879 161.706C46.3319 162.318 48.6957 162.858 52.2638 163.192C54.444 163.363 56.9914 163.46 59.7152 163.46C67.6023 163.46 74.0239 162.639 74.2651 161.618Z" fill="#FFD717"/>
<path d="M77.5373 160.331V156.614H42.1166V160.331C42.1058 160.379 42.0986 160.428 42.0986 160.478C42.0986 162.324 50.0361 163.821 59.826 163.821C69.616 163.821 77.5535 162.324 77.5535 160.478C77.5553 160.428 77.548 160.379 77.5373 160.331Z" fill="#EFB118"/>
<path d="M59.826 160.131C69.6166 160.131 77.5534 158.635 77.5534 156.788C77.5534 154.942 69.6166 153.445 59.826 153.445C50.0355 153.445 42.0986 154.942 42.0986 156.788C42.0986 158.635 50.0355 160.131 59.826 160.131Z" fill="#FFC417"/>
<path opacity="0.3" d="M46.3003 156.404C46.2949 156.384 46.2931 156.364 46.2931 156.345C46.2931 155.294 52.8101 154.443 60.8502 154.443C63.5776 154.443 66.1286 154.542 68.3106 154.711C65.9216 154.487 62.9925 154.355 59.8276 154.355C51.7875 154.355 45.2705 155.206 45.2705 156.257C45.2705 156.277 45.2741 156.296 45.2777 156.316C45.4361 156.986 48.2428 157.567 52.3762 157.891C48.8063 157.555 46.4443 157.016 46.3003 156.404Z" fill="#AA9B5C"/>
<path d="M74.3755 156.316C74.3809 156.296 74.3827 156.277 74.3827 156.257C74.3827 155.62 71.9865 155.058 68.3085 154.711C66.1266 154.541 63.5756 154.444 60.8481 154.444C52.808 154.444 46.291 155.295 46.291 156.345C46.291 156.365 46.2946 156.384 46.2982 156.404C46.4422 157.016 48.806 157.557 52.3742 157.891C54.5543 158.061 57.1017 158.158 59.8256 158.158C67.7144 158.158 74.136 157.338 74.3755 156.316Z" fill="#FFD717"/>
<path d="M72.1233 152.826C78.7509 146.216 78.7509 135.5 72.1233 128.89C65.4956 122.281 54.7501 122.281 48.1225 128.89C41.4948 135.5 41.4948 146.216 48.1225 152.826C54.7501 159.435 65.4956 159.435 72.1233 152.826Z" fill="#FFC417"/>
<path opacity="0.3" d="M46.9089 141.957C46.9035 141.81 46.9017 141.662 46.9017 141.513C46.9017 133.68 53.2693 127.328 61.1257 127.328C63.7901 127.328 66.2835 128.059 68.4151 129.33C66.0819 127.659 63.2194 126.673 60.1266 126.673C52.2719 126.673 45.9043 133.023 45.9043 140.858C45.9043 141.007 45.9079 141.154 45.9115 141.302C46.0663 146.296 48.8082 150.641 52.8462 153.045C49.359 150.553 47.0493 146.528 46.9089 141.957Z" fill="#AA9B5C"/>
<path d="M74.3402 141.303C74.3456 141.156 74.3474 141.009 74.3474 140.86C74.3474 136.111 72.007 131.906 68.4118 129.332C66.2803 128.061 63.7869 127.33 61.1225 127.33C53.2678 127.33 46.8984 133.68 46.8984 141.515C46.8984 141.664 46.902 141.811 46.9056 141.959C47.0461 146.53 49.3558 150.555 52.8412 153.049C54.9709 154.316 57.4607 155.045 60.1215 155.045C67.8322 155.043 74.1061 148.932 74.3402 141.303Z" fill="#FFD717"/>
<path d="M255.246 59.1543C256.377 51.904 251.402 45.1119 244.133 43.9835C236.864 42.8551 230.054 47.8179 228.922 55.0681C227.79 62.3183 232.766 69.1105 240.035 70.2389C247.304 71.3672 254.114 66.4045 255.246 59.1543Z" fill="#FFC417"/>
<path opacity="0.3" d="M231.718 57.9764C231.714 57.8615 231.713 57.7448 231.713 57.6281C231.713 51.4789 236.71 46.4949 242.876 46.4949C244.968 46.4949 246.923 47.0694 248.598 48.0659C246.767 46.7535 244.52 45.9814 242.091 45.9814C235.925 45.9814 230.928 50.9654 230.928 57.1146C230.928 57.2313 230.93 57.348 230.933 57.4629C231.054 61.384 233.207 64.7934 236.377 66.6804C233.643 64.7234 231.83 61.5635 231.718 57.9764Z" fill="#AA9B5C"/>
<path d="M253.251 57.4628C253.255 57.3479 253.257 57.2312 253.257 57.1145C253.257 53.3873 251.419 50.0874 248.598 48.0658C246.925 47.0676 244.968 46.4949 242.876 46.4949C236.71 46.4949 231.713 51.4788 231.713 57.628C231.713 57.7447 231.715 57.8614 231.718 57.9763C231.828 61.5635 233.641 64.7233 236.377 66.6803C238.05 67.6749 240.003 68.2477 242.092 68.2477C248.142 68.2477 253.066 63.4504 253.251 57.4628Z" fill="#FFD717"/>
<path d="M184.729 26.1479C185.908 18.905 180.976 12.0807 173.715 10.9054C166.453 9.73007 159.611 14.6488 158.432 21.8917C157.253 29.1346 162.185 35.9589 169.446 37.1342C176.708 38.3095 183.55 33.3908 184.729 26.1479Z" fill="#FFC417"/>
<path opacity="0.3" d="M161.202 24.8841C161.199 24.7692 161.197 24.6525 161.197 24.5358C161.197 18.3866 166.195 13.4026 172.361 13.4026C174.453 13.4026 176.408 13.9772 178.082 14.9736C176.251 13.6612 174.004 12.8892 171.576 12.8892C165.41 12.8892 160.412 17.8731 160.412 24.0223C160.412 24.139 160.414 24.2557 160.418 24.3706C160.538 28.2917 162.691 31.7011 165.862 33.5881C163.127 31.6311 161.314 28.4712 161.202 24.8841Z" fill="#AA9B5C"/>
<path d="M182.736 24.3706C182.739 24.2556 182.741 24.1389 182.741 24.0222C182.741 20.295 180.903 16.9951 178.082 14.9735C176.41 13.9753 174.453 13.4026 172.361 13.4026C166.195 13.4026 161.197 18.3866 161.197 24.5357C161.197 24.6524 161.199 24.7691 161.203 24.884C161.312 28.4712 163.125 31.6311 165.862 33.588C167.534 34.5827 169.488 35.1554 171.576 35.1554C177.627 35.1554 182.55 30.3581 182.736 24.3706Z" fill="#FFD717"/>
<path d="M96.3508 142.729H83.3149C83.0575 142.729 82.8486 142.937 82.8486 143.194V145.943C82.8486 146.199 83.0575 146.408 83.3149 146.408H96.3508C96.6082 146.408 96.817 146.199 96.817 145.943V143.194C96.817 142.937 96.6082 142.729 96.3508 142.729Z" fill="#231638"/>
<path d="M96.6352 146.821H93.708C103.222 153.453 110.143 172.396 110.143 182.834C110.143 195.141 100.52 195.61 88.3701 195.628C88.8544 195.628 89.3423 195.628 89.8338 195.628C102.666 195.628 113.07 195.631 113.07 182.832C113.068 172.397 106.15 153.454 96.6352 146.821Z" fill="#231638"/>
<path d="M110.143 182.836C110.143 172.397 103.223 153.454 93.708 146.822H83.0305C73.516 153.454 66.5957 172.397 66.5957 182.836C66.5957 195.143 76.2182 195.612 88.3684 195.63C100.52 195.612 110.143 195.143 110.143 182.836Z" fill="#35234F"/>
<path d="M100.33 132.847C99.9857 131.149 98.8534 130.831 97.3753 131.177C97.9694 131.395 98.3979 131.912 98.5869 132.847C99.4114 136.917 94.1582 142.244 94.1582 142.244H95.9009C95.9009 142.244 101.154 136.917 100.33 132.847Z" fill="#231638"/>
<path d="M86.2402 135.366C84.4633 135.124 82.7531 134.219 80.3551 133.582C79.3559 133.316 78.7564 133.343 78.418 133.533C78.481 133.547 78.5458 133.565 78.6124 133.582C81.7755 134.422 83.7396 135.727 86.2402 135.366Z" fill="#231638"/>
<path d="M98.5869 132.847C98.3979 131.912 97.9676 131.395 97.3754 131.177C95.3104 131.662 92.5686 133.443 90.3434 134.58C88.7682 135.382 87.4882 135.538 86.2424 135.368C83.7418 135.729 81.7777 134.424 78.6146 133.583C78.548 133.565 78.4832 133.549 78.4202 133.535C77.3778 134.12 78.8378 136.269 78.8378 136.269L83.3979 142.246H94.1618C94.1582 142.244 99.4115 136.917 98.5869 132.847Z" fill="#35234F"/>
<path d="M231.229 192.093L234.034 190.283H244.1C244.1 190.283 234.778 195.301 232.963 195.632L231.229 192.093Z" fill="#2FE096"/>
<path d="M203.92 127.646L200.271 157.765L200.174 158.557L198.557 160.688L196.606 163.256L184.062 180.953L186.06 183.98L208.517 163.647L214.349 145.133L203.92 127.646Z" fill="#231638"/>
<path d="M184.913 179.681L180.213 182.17L188.64 192.754L187.302 182.848L184.913 179.681Z" fill="#2FE096"/>
<path d="M216.834 96.7657L217.716 109.432C217.716 109.432 217.867 109.369 218.15 109.24C219.405 108.667 223.202 106.775 227.189 103.206C232.246 98.6724 237.608 91.446 238.448 80.8047L235.314 77.8406C235.314 77.8406 229.87 96.5987 216.834 96.7657Z" fill="#2FE096"/>
<path d="M235.313 77.8422C235.313 77.8422 233.911 72.413 235.643 72.5764C237.375 72.7415 237.953 73.8098 238.613 76.1133C239.274 78.4168 238.448 80.8028 238.448 80.8028L235.313 77.8422Z" fill="#F9C5A2"/>
<path d="M217.905 106.802L218.15 109.24C219.405 108.667 223.202 106.775 227.189 103.206C223.187 105.482 217.905 106.802 217.905 106.802Z" fill="black" fill-opacity="0.19"/>
<path d="M238.259 82.9968L234.518 79.9806L235.315 77.8423L238.532 80.6395L238.259 82.9968Z" fill="#231638"/>
<path d="M203.181 129.264L231.229 192.093L234.034 190.282L217.81 127.617L203.181 129.264Z" fill="#35234F"/>
<path d="M219.79 111.053L217.81 127.617L203.18 129.262L200.98 105.678L209.341 92.4045L216.051 95.1461C216.049 95.1479 221.768 102.389 219.79 111.053Z" fill="#2FE096"/>
<path d="M209.037 92.3778L212.476 83.9036L215.335 88.6757L216.049 95.148L209.037 92.3778Z" fill="#F9C5A2"/>
<path d="M219.589 85.8323C220.747 83.4301 219.733 80.5467 217.324 79.3921C214.915 78.2374 212.024 79.2489 210.866 81.6511C209.708 84.0533 210.722 86.9367 213.131 88.0913C215.54 89.2459 218.431 88.2345 219.589 85.8323Z" fill="#F9C5A2"/>
<path d="M210.337 89.1998C210.337 89.1998 206.481 81.7651 209.615 79.1313C212.75 76.4993 218.106 77.239 219.371 79.2139C220.637 81.1888 219.571 83.7382 216.435 83.3002C213.299 82.8621 210.337 89.1998 210.337 89.1998Z" fill="#231638"/>
<path d="M213.464 85.9339C214.497 85.9339 215.335 85.0987 215.335 84.0685C215.335 83.0383 214.497 82.2031 213.464 82.2031C212.431 82.2031 211.594 83.0383 211.594 84.0685C211.594 85.0987 212.431 85.9339 213.464 85.9339Z" fill="#F9C5A2"/>
<path d="M215.26 94.9827L214.775 92.8246L209.596 90.7617L208.057 92.5697L215.26 94.9827Z" fill="#231638"/>
<path d="M212.915 86.0435C212.915 86.0435 214.071 88.0453 215.335 88.566L215.803 92.7618C215.803 92.7618 213.135 88.2913 212.915 86.0435Z" fill="black" fill-opacity="0.1"/>
<path d="M202.338 116.55C202.338 116.55 208.416 106.019 208.515 101.742C208.515 101.742 207.24 112.712 204.986 117.209C202.732 121.707 203.123 123.682 203.123 123.682L202.437 116.112" fill="black" fill-opacity="0.22"/>
<path d="M195.508 134.612C195.508 134.612 195.232 136.696 193.418 139.219C191.603 141.741 195.342 141.632 196.442 140.041C197.542 138.45 198.477 135.159 198.477 135.159L195.508 134.612Z" fill="#F9C5A2"/>
<path d="M208.927 103.019C208.927 103.019 202.327 115.744 201.447 123.861C200.567 131.978 198.477 135.16 198.477 135.16L195.506 134.61C195.506 134.61 194.296 119.472 196.606 111.245C198.916 103.019 206.067 91.6092 208.816 92.9252C211.568 94.243 208.927 103.019 208.927 103.019Z" fill="#2FE096"/>
<path d="M291.563 88.3218V92.7366C291.563 93.0598 291.945 93.2321 292.188 93.0185L297.537 88.3218H291.563Z" fill="#5350E2"/>
<path d="M308.562 89.8821H293.024C292.217 89.8821 291.563 89.2303 291.563 88.426V80.5264C291.563 79.722 292.217 79.0703 293.024 79.0703H308.562C309.368 79.0703 310.022 79.722 310.022 80.5264V88.426C310.02 89.2321 309.366 89.8821 308.562 89.8821Z" fill="#695EF3"/>
<g opacity="0.4">
<path opacity="0.4" d="M304.817 82.7816H295.983C295.549 82.7816 295.196 82.4297 295.196 81.997C295.196 81.5643 295.549 81.2124 295.983 81.2124H304.817C305.251 81.2124 305.604 81.5643 305.604 81.997C305.604 82.4315 305.251 82.7816 304.817 82.7816Z" fill="white"/>
<path opacity="0.4" d="M304.817 85.2627H295.983C295.549 85.2627 295.196 84.9109 295.196 84.4782C295.196 84.0455 295.549 83.6936 295.983 83.6936H304.817C305.251 83.6936 305.604 84.0455 305.604 84.4782C305.604 84.9109 305.251 85.2627 304.817 85.2627Z" fill="white"/>
<path opacity="0.4" d="M304.817 87.7422H295.983C295.549 87.7422 295.196 87.3904 295.196 86.9577C295.196 86.525 295.549 86.1731 295.983 86.1731H304.817C305.251 86.1731 305.604 86.525 305.604 86.9577C305.604 87.3904 305.251 87.7422 304.817 87.7422Z" fill="white"/>
</g>
<path d="M194.04 78.6843C193.727 78.9913 193.219 78.9913 192.906 78.6843C192.593 78.3773 192.593 77.88 192.906 77.5748C195.298 75.2318 195.298 71.422 192.906 69.0791C192.749 68.9265 192.67 68.7254 192.67 68.5243C192.67 68.3232 192.749 68.1221 192.906 67.9695C193.219 67.6625 193.727 67.6625 194.04 67.9695C197.059 70.9211 197.059 75.7291 194.04 78.6843Z" fill="#695EF3"/>
<path d="M200.33 73.325C200.33 76.1815 199.194 78.8655 197.131 80.8853C196.818 81.1924 196.31 81.1924 195.997 80.8853C195.683 80.5783 195.683 80.081 195.997 79.7758C197.757 78.0522 198.726 75.7613 198.726 73.325C198.726 70.8887 197.757 68.5978 195.997 66.8742C195.84 66.7216 195.763 66.5205 195.763 66.3195C195.763 66.1184 195.84 65.9173 195.997 65.7647C196.31 65.4577 196.818 65.4577 197.131 65.7647C199.194 67.7845 200.33 70.4704 200.33 73.325Z" fill="#695EF3"/>
<path d="M200.223 64.0285C202.759 66.5115 204.156 69.8132 204.156 73.3249C204.156 76.8367 202.759 80.1384 200.223 82.6214C199.909 82.9284 199.402 82.9284 199.088 82.6214C198.775 82.3144 198.775 81.8171 199.088 81.5119C201.323 79.3251 202.552 76.4184 202.552 73.3249C202.552 70.2333 201.323 67.3248 199.088 65.138C198.932 64.9854 198.854 64.7843 198.854 64.5832C198.854 64.3822 198.932 64.1811 199.088 64.0285C199.402 63.7233 199.909 63.7233 200.223 64.0285Z" fill="#695EF3"/>
<defs>
<linearGradient id="paint0_linear" x1="60.9606" y1="109.316" x2="150.333" y2="109.316" gradientUnits="userSpaceOnUse">
<stop offset="0.00050512" stop-color="#AFDEFD"/>
<stop offset="0.9872" stop-color="white"/>
</linearGradient>
<linearGradient id="paint1_linear" x1="60.5538" y1="148.142" x2="150.685" y2="148.142" gradientUnits="userSpaceOnUse">
<stop stop-color="#FF6767"/>
<stop offset="0.999" stop-color="#F92E2E"/>
</linearGradient>
</defs>
</svg>
